Black.ufo
<glyph name="exclam" format="2">
  <advance width="223"/>
  <unicode hex="0021"/>
  <outline>
    <contour>
      <point x="89" y="727" type="curve"/>
      <point x="57" y="695"/>
      <point x="7" y="659"/>
      <point x="8" y="658" type="curve" smooth="yes"/>
      <point x="67" y="567"/>
      <point x="56" y="505"/>
      <point x="61" y="466" type="curve" smooth="yes"/>
      <point x="66" y="429"/>
      <point x="66" y="388"/>
      <point x="70" y="234" type="curve"/>
      <point x="158" y="311" type="line"/>
      <point x="161" y="437" type="line"/>
      <point x="161" y="478"/>
      <point x="165" y="588"/>
      <point x="165" y="606" type="curve" smooth="yes"/>
      <point x="165" y="630"/>
      <point x="172" y="800"/>
      <point x="171" y="799" type="curve" smooth="yes"/>
      <point x="145" y="778"/>
      <point x="140" y="769"/>
    </contour>
    <contour>
      <point x="113" y="213" type="curve"/>
      <point x="155" y="176"/>
      <point x="213" y="116"/>
      <point x="213" y="116" type="curve" smooth="yes"/>
      <point x="188" y="91"/>
      <point x="114" y="16"/>
      <point x="113" y="17" type="curve" smooth="yes"/>
      <point x="83" y="48"/>
      <point x="11" y="116"/>
      <point x="12" y="117" type="curve" smooth="yes"/>
      <point x="50" y="155"/>
      <point x="112" y="213"/>
    </contour>
  </outline>
</glyph>
<glyph name="numbersign" format="2">
  <advance width="667"/>
  <unicode hex="0023"/>
  <outline>
    <contour>
      <point x="256" y="606" type="line"/>
      <point x="200" y="605" type="line"/>
      <point x="181" y="444" type="line"/>
      <point x="87" y="441" type="line"/>
      <point x="80" y="377" type="line"/>
      <point x="172" y="378" type="line"/>
      <point x="162" y="279" type="line"/>
      <point x="69" y="279" type="line"/>
      <point x="62" y="219" type="line"/>
      <point x="155" y="217" type="line"/>
      <point x="133" y="39" type="line"/>
      <point x="189" y="38" type="line"/>
      <point x="209" y="217" type="line"/>
      <point x="298" y="217" type="line"/>
      <point x="276" y="38" type="line"/>
      <point x="332" y="38" type="line"/>
      <point x="354" y="217" type="line"/>
      <point x="450" y="216" type="line"/>
      <point x="460" y="278" type="line"/>
      <point x="361" y="280" type="line"/>
      <point x="372" y="378" type="line"/>
      <point x="472" y="376" type="line"/>
      <point x="486" y="439" type="line"/>
      <point x="380" y="442" type="line"/>
      <point x="400" y="604" type="line"/>
      <point x="345" y="606" type="line"/>
      <point x="324" y="441" type="line"/>
      <point x="236" y="443" type="line"/>
    </contour>
    <contour>
      <point x="229" y="378" type="line"/>
      <point x="317" y="378" type="line"/>
      <point x="305" y="280" type="line"/>
      <point x="218" y="280" type="line"/>
    </contour>
  </outline>
</glyph>
<glyph name="dollar" format="2">
  <advance width="500"/>
  <unicode hex="0024"/>
  <outline>
    <contour>
      <point x="414" y="555" type="line"/>
      <point x="388" y="599" type="line"/>
      <point x="362" y="626" type="line"/>
      <point x="325" y="653" type="line"/>
      <point x="301" y="664" type="line"/>
      <point x="278" y="674" type="line"/>
      <point x="277" y="750" type="line"/>
      <point x="208" y="750" type="line"/>
      <point x="207" y="674" type="line"/>
      <point x="164" y="661" type="line"/>
      <point x="121" y="634" type="line"/>
      <point x="92" y="602" type="line"/>
      <point x="67" y="554" type="line"/>
      <point x="55" y="486" type="line"/>
      <point x="67" y="417" type="line"/>
      <point x="96" y="368" type="line"/>
      <point x="125" y="338" type="line"/>
      <point x="154" y="316" type="line"/>
      <point x="191" y="292" type="line"/>
      <point x="232" y="268" type="line"/>
      <point x="274" y="245" type="line"/>
      <point x="308" y="216" type="line"/>
      <point x="321" y="180" type="line"/>
      <point x="310" y="144" type="line"/>
      <point x="286" y="123" type="line"/>
      <point x="262" y="109" type="line"/>
      <point x="218" y="107" type="line"/>
      <point x="184" y="118" type="line"/>
      <point x="157" y="138" type="line"/>
      <point x="139" y="162" type="line"/>
      <point x="115" y="193" type="line"/>
      <point x="84" y="173" type="line"/>
      <point x="58" y="155" type="line"/>
      <point x="26" y="130" type="line"/>
      <point x="50" y="92" type="line"/>
      <point x="73" y="61" type="line"/>
      <point x="102" y="35" type="line"/>
      <point x="145" y="8" type="line"/>
      <point x="178" y="-2" type="line"/>
      <point x="207" y="-8" type="line"/>
      <point x="207" y="-87" type="line"/>
      <point x="276" y="-87" type="line"/>
      <point x="277" y="-7" type="line"/>
      <point x="325" y="9" type="line"/>
      <point x="351" y="26" type="line"/>
      <point x="368" y="41" type="line"/>
      <point x="384" y="58" type="line"/>
      <point x="399" y="81" type="line"/>
      <point x="412" y="110" type="line"/>
      <point x="421" y="139" type="line"/>
      <point x="424" y="169" type="line"/>
      <point x="426" y="203" type="line"/>
      <point x="422" y="230" type="line"/>
      <point x="416" y="258" type="line"/>
      <point x="400" y="289" type="line"/>
      <point x="385" y="308" type="line"/>
      <point x="367" y="326" type="line"/>
      <point x="355" y="338" type="line"/>
      <point x="332" y="355" type="line"/>
      <point x="314" y="366" type="line"/>
      <point x="290" y="380" type="line"/>
      <point x="261" y="399" type="line"/>
      <point x="224" y="423" type="line"/>
      <point x="183" y="451" type="line"/>
      <point x="166" y="478" type="line"/>
      <point x="164" y="503" type="line"/>
      <point x="170" y="523" type="line"/>
      <point x="185" y="541" type="line"/>
      <point x="204" y="550" type="line"/>
      <point x="232" y="557" type="line"/>
      <point x="263" y="554" type="line"/>
      <point x="293" y="535" type="line"/>
      <point x="310" y="519" type="line"/>
      <point x="326" y="493" type="line"/>
      <point x="353" y="512" type="line"/>
      <point x="377" y="529" type="line"/>
      <point x="398" y="543" type="line"/>
    </contour>
  </outline>
</glyph>
<glyph name="percent" format="2">
  <advance width="800"/>
  <unicode hex="0025"/>
  <outline>
    <contour>
      <point x="534" y="697" type="curve"/>
      <point x="523" y="674"/>
      <point x="381" y="397"/>
      <point x="168" y="-27" type="curve" smooth="yes"/>
      <point x="168" y="-28"/>
      <point x="218" y="-31"/>
      <point x="218" y="-31" type="curve" smooth="yes"/>
      <point x="290" y="102"/>
      <point x="454" y="419"/>
      <point x="583" y="697" type="curve"/>
      <point x="565" y="697"/>
      <point x="562" y="697"/>
    </contour>
    <contour>
      <point x="110" y="546" type="curve"/>
      <point x="133" y="563"/>
      <point x="157" y="560"/>
      <point x="167" y="548" type="curve"/>
      <point x="202" y="509" type="line"/>
      <point x="242" y="464"/>
      <point x="234" y="455"/>
      <point x="256" y="389" type="curve"/>
      <point x="258" y="384"/>
      <point x="266" y="355"/>
      <point x="240" y="333" type="curve"/>
      <point x="220" y="316"/>
      <point x="211" y="315"/>
      <point x="181" y="335" type="curve"/>
      <point x="176" y="339"/>
      <point x="161" y="356"/>
      <point x="140" y="388" type="curve"/>
      <point x="136" y="394"/>
      <point x="120" y="422"/>
      <point x="95" y="476" type="curve"/>
      <point x="93" y="481"/>
      <point x="90" y="532"/>
    </contour>
    <contour>
      <point x="183" y="659" type="curve"/>
      <point x="158" y="653"/>
      <point x="160" y="650"/>
      <point x="141" y="634" type="curve"/>
      <point x="135" y="630"/>
      <point x="119" y="612"/>
      <point x="86" y="570" type="curve"/>
      <point x="82" y="565"/>
      <point x="68" y="546"/>
      <point x="49" y="500" type="curve"/>
      <point x="44" y="485"/>
      <point x="39" y="464"/>
      <point x="39" y="415" type="curve"/>
      <point x="42" y="384"/>
      <point x="47" y="372"/>
      <point x="65" y="328" type="curve"/>
      <point x="76" y="306"/>
      <point x="85" y="292"/>
      <point x="117" y="252" type="curve"/>
      <point x="141" y="224"/>
      <point x="148" y="213"/>
      <point x="173" y="207" type="curve"/>
      <point x="207" y="207"/>
      <point x="217" y="228"/>
      <point x="246" y="255" type="curve"/>
      <point x="262" y="272"/>
      <point x="272" y="282"/>
      <point x="304" y="332" type="curve"/>
      <point x="308" y="335"/>
      <point x="323" y="366"/>
      <point x="335" y="425" type="curve"/>
      <point x="338" y="458"/>
      <point x="337" y="470"/>
      <point x="314" y="526" type="curve"/>
      <point x="303" y="543"/>
      <point x="296" y="558"/>
      <point x="267" y="594" type="curve"/>
      <point x="234" y="621"/>
      <point x="225" y="648"/>
    </contour>
    <contour>
      <point x="504" y="348" type="curve"/>
      <point x="527" y="365"/>
      <point x="551" y="362"/>
      <point x="561" y="350" type="curve"/>
      <point x="596" y="311" type="line"/>
      <point x="636" y="266"/>
      <point x="628" y="257"/>
      <point x="650" y="191" type="curve"/>
      <point x="652" y="186"/>
      <point x="660" y="157"/>
      <point x="634" y="135" type="curve"/>
      <point x="614" y="118"/>
      <point x="605" y="117"/>
      <point x="575" y="137" type="curve"/>
      <point x="570" y="141"/>
      <point x="555" y="158"/>
      <point x="534" y="190" type="curve"/>
      <point x="530" y="196"/>
      <point x="514" y="224"/>
      <point x="489" y="278" type="curve"/>
      <point x="487" y="283"/>
      <point x="484" y="334"/>
    </contour>
    <contour>
      <point x="577" y="461" type="curve"/>
      <point x="552" y="455"/>
      <point x="554" y="452"/>
      <point x="535" y="436" type="curve"/>
      <point x="529" y="432"/>
      <point x="513" y="414"/>
      <point x="480" y="372" type="curve"/>
      <point x="476" y="367"/>
      <point x="462" y="348"/>
      <point x="443" y="302" type="curve"/>
      <point x="438" y="287"/>
      <point x="433" y="266"/>
      <point x="433" y="217" type="curve"/>
      <point x="436" y="186"/>
      <point x="441" y="174"/>
      <point x="459" y="130" type="curve"/>
      <point x="470" y="108"/>
      <point x="479" y="94"/>
      <point x="511" y="54" type="curve"/>
      <point x="535" y="26"/>
      <point x="542" y="15"/>
      <point x="567" y="9" type="curve"/>
      <point x="601" y="9"/>
      <point x="611" y="30"/>
      <point x="640" y="57" type="curve"/>
      <point x="656" y="74"/>
      <point x="666" y="84"/>
      <point x="698" y="134" type="curve"/>
      <point x="702" y="137"/>
      <point x="717" y="168"/>
      <point x="729" y="227" type="curve"/>
      <point x="732" y="260"/>
      <point x="731" y="272"/>
      <point x="708" y="328" type="curve"/>
      <point x="697" y="345"/>
      <point x="690" y="360"/>
      <point x="661" y="396" type="curve"/>
      <point x="628" y="423"/>
      <point x="619" y="450"/>
    </contour>
  </outline>
</glyph>
<glyph name="parenright" format="2">
  <advance width="500"/>
  <unicode hex="0029"/>
  <outline>
    <contour>
      <point x="9" y="669" type="line"/>
      <point x="155" y="651"/>
      <point x="143" y="518"/>
      <point x="152" y="473" type="curve" smooth="yes"/>
      <point x="164" y="412"/>
      <point x="172" y="224"/>
      <point x="168" y="177" type="curve" smooth="yes"/>
      <point x="149" y="-63"/>
      <point x="31" y="-151"/>
      <point x="37" y="-156" type="curve" smooth="yes"/>
      <point x="50" y="-167"/>
      <point x="74" y="-188"/>
      <point x="74" y="-188" type="curve" smooth="yes"/>
      <point x="198" y="-44"/>
      <point x="251" y="105"/>
      <point x="274" y="265" type="curve" smooth="yes"/>
      <point x="276" y="281"/>
      <point x="303" y="382"/>
      <point x="267" y="630" type="curve" smooth="yes"/>
      <point x="259" y="685"/>
      <point x="222" y="785"/>
      <point x="126" y="799" type="curve"/>
    </contour>
  </outline>
</glyph>
<glyph name="comma" format="2">
  <advance width="300"/>
  <unicode hex="002C"/>
  <outline>
    <contour>
      <point x="114" y="263" type="curve"/>
      <point x="113" y="263"/>
      <point x="82" y="112"/>
      <point x="75" y="74" type="curve" smooth="yes"/>
      <point x="68" y="38"/>
      <point x="64" y="23"/>
      <point x="62" y="10" type="curve" smooth="yes"/>
      <point x="59" y="-7"/>
      <point x="55" y="-25"/>
      <point x="53" y="-33" type="curve" smooth="yes"/>
      <point x="46" y="-65"/>
      <point x="39" y="-98"/>
      <point x="36" y="-113" type="curve" smooth="yes"/>
      <point x="35" y="-119"/>
      <point x="18" y="-197"/>
      <point x="9" y="-248" type="curve"/>
      <point x="66" y="-172" type="line"/>
      <point x="89" y="-140"/>
      <point x="107" y="-114"/>
      <point x="125" y="-93" type="curve" smooth="yes"/>
      <point x="143" y="-71"/>
      <point x="168" y="-32"/>
      <point x="179" y="-19" type="curve" smooth="yes"/>
      <point x="188" y="-8"/>
      <point x="243" y="69"/>
      <point x="243" y="69" type="curve" smooth="yes"/>
      <point x="231" y="87"/>
      <point x="163" y="193"/>
    </contour>
  </outline>
</glyph>
<glyph name="slash" format="2">
  <advance width="700"/>
  <unicode hex="002F"/>
  <outline>
    <contour>
      <point x="660" y="754" type="curve"/>
      <point x="643" y="736"/>
      <point x="316" y="305"/>
      <point x="52" y="257" type="curve" smooth="yes"/>
      <point x="50" y="257"/>
      <point x="1" y="11"/>
      <point x="1" y="11" type="curve" smooth="yes"/>
      <point x="70" y="68"/>
      <point x="346" y="233"/>
      <point x="682" y="742" type="curve"/>
      <point x="681" y="730"/>
      <point x="673" y="734"/>
    </contour>
  </outline>
</glyph>
<glyph name="three" format="2">
  <advance width="500"/>
  <unicode hex="0033"/>
  <outline>
    <contour>
      <point x="297" y="666" type="curve"/>
      <point x="255" y="670" type="line"/>
      <point x="238" y="675"/>
      <point x="213" y="668"/>
      <point x="117" y="728" type="curve" smooth="yes"/>
      <point x="114" y="730"/>
      <point x="75" y="575"/>
      <point x="56" y="497" type="curve"/>
      <point x="86" y="482" type="line"/>
      <point x="92" y="560"/>
      <point x="190" y="543"/>
      <point x="230" y="544" type="curve" smooth="yes"/>
      <point x="231" y="544"/>
      <point x="255" y="540"/>
      <point x="305" y="537" type="curve" smooth="yes"/>
      <point x="308" y="537"/>
      <point x="287" y="511"/>
      <point x="260" y="479" type="curve" smooth="yes"/>
      <point x="251" y="469"/>
      <point x="212" y="422"/>
      <point x="165" y="364" type="curve"/>
      <point x="173" y="361" type="line"/>
      <point x="275" y="320"/>
      <point x="312" y="282"/>
      <point x="317" y="277" type="curve" smooth="yes"/>
      <point x="350" y="242"/>
      <point x="387" y="204"/>
      <point x="358" y="153" type="curve" smooth="yes"/>
      <point x="319" y="84"/>
      <point x="264" y="84"/>
      <point x="262" y="84" type="curve" smooth="yes"/>
      <point x="211" y="92"/>
      <point x="187" y="136"/>
      <point x="163" y="196" type="curve" smooth="yes"/>
      <point x="148" y="235"/>
      <point x="151" y="229"/>
      <point x="141" y="299" type="curve"/>
      <point x="8" y="159" type="line"/>
      <point x="41" y="118"/>
      <point x="54" y="77"/>
      <point x="88" y="49" type="curve" smooth="yes"/>
      <point x="123" y="20"/>
      <point x="149" y="9"/>
      <point x="188" y="10" type="curve" smooth="yes"/>
      <point x="350" y="15"/>
      <point x="456" y="147"/>
      <point x="470" y="188" type="curve" smooth="yes"/>
      <point x="484" y="229"/>
      <point x="473" y="302"/>
      <point x="466" y="324" type="curve" smooth="yes"/>
      <point x="461" y="339"/>
      <point x="427" y="419"/>
      <point x="347" y="479" type="curve"/>
      <point x="387" y="527" type="line"/>
      <point x="408" y="565"/>
      <point x="417" y="559"/>
      <point x="431" y="580" type="curve" smooth="yes"/>
      <point x="476" y="644"/>
      <point x="495" y="660"/>
      <point x="493" y="660" type="curve" smooth="yes"/>
      <point x="396" y="666"/>
      <point x="402" y="665"/>
    </contour>
  </outline>
</glyph>
<glyph name="four" format="2">
  <advance width="500"/>
  <unicode hex="0034"/>
  <outline>
    <contour>
      <point x="409" y="721" type="curve"/>
      <point x="319" y="720" type="line"/>
      <point x="333" y="721"/>
      <point x="302" y="721"/>
      <point x="225" y="718" type="curve"/>
      <point x="115" y="455" type="line"/>
      <point x="121" y="467"/>
      <point x="-1" y="198"/>
      <point x="5" y="198" type="curve" smooth="yes"/>
      <point x="58" y="196"/>
      <point x="177" y="193"/>
      <point x="243" y="195" type="curve" smooth="yes"/>
      <point x="245" y="195"/>
      <point x="234" y="119"/>
      <point x="202" y="45" type="curve" smooth="yes"/>
      <point x="196" y="30"/>
      <point x="189" y="16"/>
      <point x="181" y="2" type="curve" smooth="yes"/>
      <point x="180" y="1"/>
      <point x="242" y="18"/>
      <point x="274" y="25" type="curve" smooth="yes"/>
      <point x="306" y="32"/>
      <point x="376" y="48"/>
      <point x="399" y="46" type="curve" smooth="yes"/>
      <point x="399" y="46"/>
      <point x="397" y="57"/>
      <point x="394" y="78" type="curve" smooth="yes"/>
      <point x="391" y="103"/>
      <point x="387" y="142"/>
      <point x="386" y="192" type="curve" smooth="yes"/>
      <point x="386" y="192"/>
      <point x="390" y="192"/>
      <point x="397" y="192" type="curve" smooth="yes"/>
      <point x="407" y="192"/>
      <point x="421" y="192"/>
      <point x="435" y="191" type="curve" smooth="yes"/>
      <point x="448" y="191"/>
      <point x="459" y="190"/>
      <point x="466" y="190" type="curve" smooth="yes"/>
      <point x="470" y="190"/>
      <point x="465" y="314"/>
      <point x="470" y="338" type="curve" smooth="yes"/>
      <point x="470" y="339"/>
      <point x="460" y="337"/>
      <point x="447" y="335" type="curve" smooth="yes"/>
      <point x="435" y="334"/>
      <point x="420" y="331"/>
      <point x="408" y="329" type="curve" smooth="yes"/>
      <point x="394" y="327"/>
      <point x="384" y="325"/>
      <point x="384" y="326" type="curve" smooth="yes"/>
      <point x="385" y="361"/>
      <point x="387" y="421"/>
      <point x="388" y="438" type="curve" smooth="yes"/>
      <point x="389" y="449"/>
      <point x="394" y="508"/>
      <point x="391" y="616" type="curve"/>
      <point x="311" y="526" type="line"/>
      <point x="316" y="531"/>
      <point x="297" y="507"/>
      <point x="244" y="450" type="curve"/>
      <point x="254" y="373" type="line"/>
      <point x="255" y="358"/>
      <point x="255" y="344"/>
      <point x="254" y="317" type="curve"/>
      <point x="131" y="318" type="line"/>
      <point x="103" y="287"/>
      <point x="217" y="469"/>
      <point x="235" y="497" type="curve" smooth="yes"/>
      <point x="246" y="513"/>
      <point x="303" y="592"/>
    </contour>
  </outline>
</glyph>
<glyph name="six" format="2">
  <advance width="500"/>
  <unicode hex="0036"/>
  <outline>
    <contour>
      <point x="297" y="710" type="curve"/>
      <point x="285" y="715"/>
      <point x="276" y="720"/>
      <point x="260" y="731" type="curve"/>
      <point x="228" y="746" type="line"/>
      <point x="226" y="747"/>
      <point x="217" y="723"/>
      <point x="180" y="685" type="curve" smooth="yes"/>
      <point x="166" y="671"/>
      <point x="168" y="670"/>
      <point x="139" y="625" type="curve" smooth="yes"/>
      <point x="107" y="576"/>
      <point x="91" y="533"/>
      <point x="63" y="488" type="curve" smooth="yes"/>
      <point x="42" y="454"/>
      <point x="-5" y="359"/>
      <point x="30" y="240" type="curve" smooth="yes"/>
      <point x="47" y="182"/>
      <point x="66" y="156"/>
      <point x="106" y="107" type="curve" smooth="yes"/>
      <point x="144" y="60"/>
      <point x="173" y="46"/>
      <point x="211" y="20" type="curve" smooth="yes"/>
      <point x="215" y="17"/>
      <point x="321" y="70"/>
      <point x="381" y="143" type="curve" smooth="yes"/>
      <point x="426" y="198"/>
      <point x="432" y="286"/>
      <point x="434" y="323" type="curve" smooth="yes"/>
      <point x="436" y="360"/>
      <point x="402" y="418"/>
      <point x="371" y="453" type="curve" smooth="yes"/>
      <point x="342" y="486"/>
      <point x="318" y="503"/>
      <point x="279" y="528" type="curve" smooth="yes"/>
      <point x="276" y="530"/>
      <point x="237" y="494"/>
      <point x="142" y="422" type="curve"/>
      <point x="146" y="467" type="line"/>
      <point x="160" y="534"/>
      <point x="188" y="588"/>
      <point x="202" y="606" type="curve" smooth="yes"/>
      <point x="235" y="647"/>
      <point x="282" y="666"/>
      <point x="282" y="666" type="curve" smooth="yes"/>
      <point x="291" y="671"/>
      <point x="339" y="687"/>
      <point x="339" y="689" type="curve" smooth="yes"/>
      <point x="339" y="691"/>
      <point x="318" y="698"/>
    </contour>
    <contour>
      <point x="213" y="392" type="curve"/>
      <point x="253" y="393"/>
      <point x="292" y="370"/>
      <point x="309" y="310" type="curve" smooth="yes"/>
      <point x="311" y="302"/>
      <point x="321" y="277"/>
      <point x="327" y="233" type="curve" smooth="yes"/>
      <point x="333" y="190"/>
      <point x="332" y="150"/>
      <point x="331" y="149" type="curve" smooth="yes"/>
      <point x="310" y="137"/>
      <point x="286" y="142"/>
      <point x="263" y="151" type="curve" smooth="yes"/>
      <point x="242" y="159"/>
      <point x="222" y="174"/>
      <point x="202" y="200" type="curve" smooth="yes"/>
      <point x="178" y="231"/>
      <point x="172" y="251"/>
      <point x="162" y="274" type="curve" smooth="yes"/>
      <point x="150" y="301"/>
      <point x="144" y="368"/>
      <point x="145" y="369" type="curve" smooth="yes"/>
      <point x="183" y="395"/>
      <point x="168" y="394"/>
    </contour>
  </outline>
</glyph>
<glyph name="eight" format="2">
  <advance width="500"/>
  <unicode hex="0038"/>
  <outline>
    <contour>
      <point x="253" y="739" type="curve"/>
      <point x="221" y="741"/>
      <point x="128" y="656"/>
      <point x="119" y="643" type="curve" smooth="yes"/>
      <point x="110" y="630"/>
      <point x="23" y="541"/>
      <point x="27" y="506" type="curve" smooth="yes"/>
      <point x="31" y="471"/>
      <point x="119" y="401"/>
      <point x="127" y="393" type="curve" smooth="yes"/>
      <point x="135" y="385"/>
      <point x="24" y="266"/>
      <point x="16" y="236" type="curve" smooth="yes"/>
      <point x="8" y="206"/>
      <point x="184" y="25"/>
      <point x="223" y="21" type="curve" smooth="yes"/>
      <point x="262" y="17"/>
      <point x="449" y="212"/>
      <point x="444" y="269" type="curve" smooth="yes"/>
      <point x="439" y="326"/>
      <point x="334" y="430"/>
      <point x="313" y="434" type="curve" smooth="yes"/>
      <point x="292" y="438"/>
      <point x="457" y="556"/>
      <point x="441" y="583" type="curve" smooth="yes"/>
      <point x="425" y="610"/>
      <point x="347" y="678"/>
      <point x="335" y="685" type="curve" smooth="yes"/>
      <point x="327" y="690"/>
      <point x="300" y="708"/>
    </contour>
    <contour>
      <point x="149" y="569" type="curve"/>
      <point x="164" y="593"/>
      <point x="158" y="592"/>
      <point x="182" y="610" type="curve" smooth="yes"/>
      <point x="206" y="628"/>
      <point x="238" y="593"/>
      <point x="251" y="583" type="curve" smooth="yes"/>
      <point x="264" y="573"/>
      <point x="291" y="537"/>
      <point x="300" y="518" type="curve" smooth="yes"/>
      <point x="309" y="499"/>
      <point x="284" y="481"/>
      <point x="270" y="475" type="curve" smooth="yes"/>
      <point x="261" y="471"/>
      <point x="220" y="502"/>
    </contour>
    <contour>
      <point x="190" y="350" type="curve"/>
      <point x="209" y="340"/>
      <point x="305" y="259"/>
      <point x="315" y="222" type="curve" smooth="yes"/>
      <point x="325" y="185"/>
      <point x="326" y="142"/>
      <point x="305" y="142" type="curve" smooth="yes"/>
      <point x="284" y="142"/>
      <point x="230" y="176"/>
      <point x="204" y="199" type="curve" smooth="yes"/>
      <point x="178" y="222"/>
      <point x="151" y="286"/>
      <point x="149" y="311" type="curve" smooth="yes"/>
      <point x="148" y="328"/>
      <point x="161" y="341"/>
    </contour>
  </outline>
</glyph>
<glyph name="colon" format="2">
  <advance width="247.0064285582715"/>
  <unicode hex="003A"/>
  <outline>
    <contour>
      <point x="239" y="132" type="curve" smooth="yes"/>
      <point x="233" y="139"/>
      <point x="126" y="247"/>
      <point x="124" y="249" type="curve" smooth="yes"/>
      <point x="123" y="250"/>
      <point x="13" y="140"/>
      <point x="7" y="132" type="curve" smooth="yes"/>
      <point x="6" y="131"/>
      <point x="122" y="17"/>
      <point x="124" y="15" type="curve" smooth="yes"/>
      <point x="124" y="15"/>
      <point x="240" y="131"/>
    </contour>
    <contour>
      <point x="238" y="451" type="curve" smooth="yes"/>
      <point x="232" y="458"/>
      <point x="129" y="563"/>
      <point x="127" y="565" type="curve" smooth="yes"/>
      <point x="126" y="566"/>
      <point x="12" y="454"/>
      <point x="12" y="452" type="curve" smooth="yes"/>
      <point x="11" y="446"/>
      <point x="128" y="334"/>
      <point x="124" y="333" type="curve" smooth="yes"/>
      <point x="122" y="333"/>
      <point x="239" y="450"/>
    </contour>
  </outline>
</glyph>
<glyph name="semicolon" format="2">
  <advance width="300.08054051377036"/>
  <unicode hex="003B"/>
  <outline>
    <contour>
      <point x="42" y="131" type="curve"/>
      <point x="52" y="104"/>
      <point x="63" y="94"/>
      <point x="71" y="72" type="curve" smooth="yes"/>
      <point x="76" y="59"/>
      <point x="86" y="38"/>
      <point x="90" y="23" type="curve" smooth="yes"/>
      <point x="93" y="11"/>
      <point x="101" y="-16"/>
      <point x="102" y="-24" type="curve" smooth="yes"/>
      <point x="107" y="-56"/>
      <point x="112" y="-86"/>
      <point x="114" y="-102" type="curve" smooth="yes"/>
      <point x="115" y="-109"/>
      <point x="118" y="-145"/>
      <point x="123" y="-198" type="curve"/>
      <point x="162" y="-95" type="line"/>
      <point x="173" y="-57"/>
      <point x="187" y="0"/>
      <point x="191" y="25" type="curve" smooth="yes"/>
      <point x="195" y="53"/>
      <point x="197" y="99"/>
      <point x="196" y="129" type="curve" smooth="yes"/>
      <point x="194" y="204"/>
      <point x="171" y="247"/>
      <point x="171" y="247" type="curve" smooth="yes"/>
      <point x="144" y="221"/>
      <point x="95" y="177"/>
    </contour>
    <contour>
      <point x="240" y="415" type="curve" smooth="yes"/>
      <point x="234" y="422"/>
      <point x="131" y="527"/>
      <point x="129" y="529" type="curve" smooth="yes"/>
      <point x="128" y="530"/>
      <point x="14" y="418"/>
      <point x="14" y="416" type="curve" smooth="yes"/>
      <point x="13" y="410"/>
      <point x="130" y="298"/>
      <point x="126" y="297" type="curve" smooth="yes"/>
      <point x="124" y="297"/>
      <point x="241" y="414"/>
    </contour>
  </outline>
</glyph>
<glyph name="equal" format="2">
  <advance width="500"/>
  <unicode hex="003D"/>
  <outline>
    <contour>
      <point x="431" y="462" type="line"/>
      <point x="422" y="456"/>
      <point x="407" y="442"/>
      <point x="385" y="436" type="curve" smooth="yes"/>
      <point x="369" y="431"/>
      <point x="212" y="429"/>
      <point x="211" y="429" type="curve" smooth="yes"/>
      <point x="203" y="430"/>
      <point x="188" y="430"/>
      <point x="184" y="461" type="curve"/>
      <point x="113" y="286" type="line"/>
      <point x="126" y="302"/>
      <point x="144" y="308"/>
      <point x="155" y="311" type="curve" smooth="yes"/>
      <point x="162" y="313"/>
      <point x="224" y="321"/>
      <point x="348" y="317" type="curve"/>
    </contour>
    <contour>
      <point x="328" y="295" type="line"/>
      <point x="320" y="286"/>
      <point x="291" y="272"/>
      <point x="284" y="270" type="curve" smooth="yes"/>
      <point x="258" y="262"/>
      <point x="205" y="266"/>
      <point x="164" y="266" type="curve" smooth="yes"/>
      <point x="159" y="266"/>
      <point x="136" y="268"/>
      <point x="134" y="297" type="curve"/>
      <point x="64" y="122" type="line"/>
      <point x="82" y="150"/>
      <point x="100" y="146"/>
      <point x="112" y="150" type="curve" smooth="yes"/>
      <point x="113" y="150"/>
      <point x="161" y="152"/>
      <point x="243" y="150" type="curve"/>
    </contour>
  </outline>
</glyph>
<glyph name="question" format="2">
  <advance width="259.0778276076886"/>
  <unicode hex="003F"/>
  <outline>
    <contour>
      <point x="149" y="827" type="curve"/>
      <point x="63" y="742" type="line"/>
      <point x="48" y="722"/>
      <point x="27" y="705"/>
      <point x="10" y="689" type="curve"/>
      <point x="127" y="684"/>
      <point x="147" y="613"/>
      <point x="149" y="588" type="curve" smooth="yes"/>
      <point x="151" y="548"/>
      <point x="127" y="487"/>
      <point x="114" y="465" type="curve" smooth="yes"/>
      <point x="104" y="448"/>
      <point x="26" y="326"/>
      <point x="26" y="325" type="curve" smooth="yes"/>
      <point x="38" y="285"/>
      <point x="124" y="228"/>
      <point x="126" y="230" type="curve" smooth="yes"/>
      <point x="170" y="276"/>
      <point x="233" y="346"/>
      <point x="229" y="346" type="curve" smooth="yes"/>
      <point x="202" y="349"/>
      <point x="192" y="345"/>
      <point x="161" y="364" type="curve" smooth="yes"/>
      <point x="135" y="380"/>
      <point x="146" y="433"/>
      <point x="167" y="458" type="curve" smooth="yes"/>
      <point x="177" y="470"/>
      <point x="225" y="575"/>
      <point x="233" y="594" type="curve" smooth="yes"/>
      <point x="251" y="635"/>
      <point x="256" y="679"/>
      <point x="237" y="731" type="curve" smooth="yes"/>
      <point x="227" y="760"/>
      <point x="202" y="793"/>
    </contour>
    <contour>
      <point x="138" y="216" type="curve"/>
      <point x="179" y="175"/>
      <point x="207" y="147"/>
      <point x="239" y="116" type="curve" smooth="yes"/>
      <point x="240" y="115"/>
      <point x="172" y="51"/>
      <point x="139" y="15" type="curve" smooth="yes"/>
      <point x="138" y="14"/>
      <point x="96" y="58"/>
      <point x="37" y="116" type="curve" smooth="yes"/>
      <point x="36" y="117"/>
      <point x="83" y="157"/>
    </contour>
  </outline>
</glyph>
<glyph name="at" format="2">
  <advance width="650"/>
  <unicode hex="0040"/>
  <outline>
    <contour>
      <point x="453" y="413" type="curve"/>
      <point x="427" y="419" type="line"/>
      <point x="404" y="424" type="line"/>
      <point x="390" y="424"/>
      <point x="366" y="425"/>
      <point x="350" y="425" type="curve" smooth="yes"/>
      <point x="275" y="425"/>
      <point x="217" y="362"/>
      <point x="204" y="337" type="curve" smooth="yes"/>
      <point x="195" y="320"/>
      <point x="144" y="198"/>
      <point x="212" y="123" type="curve" smooth="yes"/>
      <point x="231" y="102"/>
      <point x="273" y="112"/>
      <point x="314" y="146" type="curve" smooth="yes"/>
      <point x="352" y="178"/>
      <point x="363" y="201"/>
      <point x="364" y="198" type="curve" smooth="yes"/>
      <point x="369" y="186"/>
      <point x="353" y="118"/>
      <point x="359" y="118" type="curve" smooth="yes"/>
      <point x="433" y="112"/>
      <point x="536" y="138"/>
      <point x="563" y="185" type="curve" smooth="yes"/>
      <point x="587" y="226"/>
      <point x="600" y="258"/>
      <point x="599" y="321" type="curve" smooth="yes"/>
      <point x="597" y="406"/>
      <point x="538" y="487"/>
      <point x="507" y="509" type="curve" smooth="yes"/>
      <point x="465" y="539"/>
      <point x="424" y="562"/>
      <point x="352" y="555" type="curve" smooth="yes"/>
      <point x="314" y="551"/>
      <point x="270" y="542"/>
      <point x="228" y="520" type="curve" smooth="yes"/>
      <point x="175" y="492"/>
      <point x="147" y="467"/>
      <point x="118" y="430" type="curve" smooth="yes"/>
      <point x="91" y="396"/>
      <point x="62" y="350"/>
      <point x="50" y="280" type="curve" smooth="yes"/>
      <point x="32" y="169"/>
      <point x="60" y="94"/>
      <point x="106" y="49" type="curve" smooth="yes"/>
      <point x="127" y="28"/>
      <point x="216" y="-20"/>
      <point x="297" y="-23" type="curve" smooth="yes"/>
      <point x="354" y="-26"/>
      <point x="435" y="-2"/>
      <point x="517" y="64" type="curve"/>
      <point x="476" y="94" type="line"/>
      <point x="446" y="71" type="line"/>
      <point x="396" y="37"/>
      <point x="341" y="5"/>
      <point x="273" y="23" type="curve" smooth="yes"/>
      <point x="258" y="27"/>
      <point x="186" y="43"/>
      <point x="153" y="82" type="curve" smooth="yes"/>
      <point x="120" y="119"/>
      <point x="106" y="192"/>
      <point x="113" y="285" type="curve" smooth="yes"/>
      <point x="114" y="299"/>
      <point x="137" y="373"/>
      <point x="163" y="410" type="curve" smooth="yes"/>
      <point x="187" y="442"/>
      <point x="211" y="460"/>
      <point x="242" y="476" type="curve" smooth="yes"/>
      <point x="273" y="492"/>
      <point x="301" y="501"/>
      <point x="349" y="501" type="curve" smooth="yes"/>
      <point x="413" y="501"/>
      <point x="449" y="488"/>
      <point x="477" y="463" type="curve" smooth="yes"/>
      <point x="512" y="431"/>
      <point x="539" y="389"/>
      <point x="545" y="339" type="curve" smooth="yes"/>
      <point x="552" y="281"/>
      <point x="535" y="237"/>
      <point x="530" y="226" type="curve" smooth="yes"/>
      <point x="525" y="214"/>
      <point x="485" y="159"/>
      <point x="465" y="157" type="curve" smooth="yes"/>
      <point x="447" y="156"/>
      <point x="396" y="153"/>
      <point x="429" y="253" type="curve" smooth="yes"/>
      <point x="432" y="263"/>
      <point x="428" y="322"/>
    </contour>
    <contour>
      <point x="343" y="387" type="curve"/>
      <point x="413" y="386"/>
      <point x="366" y="259"/>
      <point x="366" y="259" type="curve" smooth="yes"/>
      <point x="329" y="188"/>
      <point x="285" y="163"/>
      <point x="268" y="169" type="curve" smooth="yes"/>
      <point x="239" y="179"/>
      <point x="244" y="253"/>
      <point x="250" y="283" type="curve" smooth="yes"/>
      <point x="262" y="340"/>
      <point x="289" y="390"/>
    </contour>
  </outline>
</glyph>
<glyph name="C" format="2">
  <advance width="550"/>
  <unicode hex="0043"/>
  <outline>
    <contour>
      <point x="514" y="588" type="line"/>
      <point x="522" y="611" type="line"/>
      <point x="525" y="628" type="line"/>
      <point x="535" y="665" type="line"/>
      <point x="519" y="677" type="line"/>
      <point x="501" y="689" type="line"/>
      <point x="479" y="706" type="line"/>
      <point x="459" y="720" type="line"/>
      <point x="437" y="736" type="line"/>
      <point x="417" y="750" type="line"/>
      <point x="357" y="720" type="line"/>
      <point x="301" y="692" type="line"/>
      <point x="245" y="663" type="line"/>
      <point x="162" y="623" type="line"/>
      <point x="71" y="577" type="line"/>
      <point x="13" y="547" type="line"/>
      <point x="14" y="501" type="line"/>
      <point x="14" y="446" type="line"/>
      <point x="16" y="402" type="line"/>
      <point x="20" y="343" type="line"/>
      <point x="27" y="296" type="line"/>
      <point x="39" y="258" type="line"/>
      <point x="53" y="228" type="line"/>
      <point x="66" y="200" type="line"/>
      <point x="97" y="167" type="line"/>
      <point x="125" y="139" type="line"/>
      <point x="172" y="109" type="line"/>
      <point x="221" y="83" type="line"/>
      <point x="275" y="60" type="line"/>
      <point x="307" y="47" type="line"/>
      <point x="343" y="33" type="line"/>
      <point x="366" y="24" type="line"/>
      <point x="390" y="18" type="line"/>
      <point x="417" y="8" type="line"/>
      <point x="423" y="18" type="line"/>
      <point x="431" y="38" type="line"/>
      <point x="439" y="57" type="line"/>
      <point x="447" y="69" type="line"/>
      <point x="452" y="82" type="line"/>
      <point x="465" y="104" type="line"/>
      <point x="472" y="123" type="line"/>
      <point x="481" y="140" type="line"/>
      <point x="485" y="152" type="line"/>
      <point x="492" y="164" type="line"/>
      <point x="497" y="175" type="line"/>
      <point x="503" y="186" type="line"/>
      <point x="492" y="183" type="line"/>
      <point x="469" y="179" type="line"/>
      <point x="443" y="179" type="line"/>
      <point x="418" y="177" type="line"/>
      <point x="377" y="182" type="line"/>
      <point x="358" y="186" type="line"/>
      <point x="321" y="196" type="line"/>
      <point x="305" y="203" type="line"/>
      <point x="288" y="210" type="line"/>
      <point x="271" y="220" type="line"/>
      <point x="246" y="239" type="line"/>
      <point x="199" y="296" type="line"/>
      <point x="180" y="340" type="line"/>
      <point x="163" y="415" type="line"/>
      <point x="159" y="469" type="line"/>
      <point x="173" y="515" type="line"/>
      <point x="196" y="561" type="line"/>
      <point x="241" y="589" type="line"/>
      <point x="242" y="537" type="line"/>
      <point x="247" y="481" type="line"/>
      <point x="246" y="385" type="line"/>
      <point x="246" y="338" type="line"/>
      <point x="227" y="304" type="line"/>
      <point x="210" y="283" type="line"/>
      <point x="236" y="251" type="line"/>
      <point x="394" y="319" type="line"/>
      <point x="379" y="385" type="line"/>
      <point x="375" y="521" type="line"/>
      <point x="386" y="590" type="line"/>
      <point x="418" y="578" type="line"/>
      <point x="444" y="567" type="line"/>
      <point x="463" y="553" type="line"/>
      <point x="479" y="540" type="line"/>
      <point x="496" y="528" type="line"/>
      <point x="499" y="548" type="line"/>
      <point x="507" y="567" type="line"/>
    </contour>
  </outline>
</glyph>
<glyph name="D" format="2">
  <advance width="633"/>
  <unicode hex="0044"/>
  <outline>
    <contour>
      <point x="7" y="635" type="line"/>
      <point x="80" y="624" type="line"/>
      <point x="158" y="620" type="line"/>
      <point x="213" y="603" type="line"/>
      <point x="276" y="582" type="line"/>
      <point x="217" y="555" type="line"/>
      <point x="169" y="542" type="line"/>
      <point x="108" y="538" type="line"/>
      <point x="55" y="531" type="line"/>
      <point x="99" y="468" type="line"/>
      <point x="114" y="412" type="line"/>
      <point x="114" y="357" type="line"/>
      <point x="114" y="304" type="line"/>
      <point x="103" y="252" type="line"/>
      <point x="5" y="134" type="line"/>
      <point x="89" y="113" type="line"/>
      <point x="167" y="81" type="line"/>
      <point x="251" y="50" type="line"/>
      <point x="335" y="18" type="line"/>
      <point x="406" y="71" type="line"/>
      <point x="463" y="111" type="line"/>
      <point x="514" y="155" type="line"/>
      <point x="543" y="195" type="line"/>
      <point x="617" y="260" type="line"/>
      <point x="623" y="315" type="line"/>
      <point x="606" y="395" type="line"/>
      <point x="581" y="483" type="line"/>
      <point x="535" y="546" type="line"/>
      <point x="495" y="605" type="line"/>
      <point x="415" y="662" type="line"/>
      <point x="320" y="715" type="line"/>
      <point x="234" y="742" type="line"/>
      <point x="169" y="754" type="line"/>
    </contour>
    <contour>
      <point x="305" y="561" type="line"/>
      <point x="358" y="519" type="line"/>
      <point x="398" y="475" type="line"/>
      <point x="427" y="418" type="line"/>
      <point x="446" y="380" type="line"/>
      <point x="465" y="308" type="line"/>
      <point x="444" y="235" type="line"/>
      <point x="425" y="193" type="line"/>
      <point x="381" y="159" type="line"/>
      <point x="322" y="157" type="line"/>
      <point x="280" y="174" type="line"/>
      <point x="234" y="203" type="line"/>
      <point x="181" y="241" type="line"/>
      <point x="230" y="260" type="line"/>
      <point x="287" y="260" type="line"/>
      <point x="276" y="306" type="line"/>
      <point x="265" y="359" type="line"/>
      <point x="265" y="412" type="line"/>
      <point x="268" y="456" type="line"/>
      <point x="274" y="498" type="line"/>
    </contour>
  </outline>
</glyph>
<glyph name="G" format="2">
  <advance width="730"/>
  <unicode hex="0047"/>
  <outline>
    <contour>
      <point x="539" y="527" type="line"/>
      <point x="573" y="560" type="line"/>
      <point x="607" y="592" type="line"/>
      <point x="649" y="634" type="line"/>
      <point x="595" y="649" type="line"/>
      <point x="545" y="667" type="line"/>
      <point x="482" y="683" type="line"/>
      <point x="468" y="691" type="line"/>
      <point x="449" y="703" type="line"/>
      <point x="408" y="725" type="line"/>
      <point x="387" y="738" type="line"/>
      <point x="369" y="752" type="line"/>
      <point x="296" y="712" type="line"/>
      <point x="229" y="668" type="line"/>
      <point x="183" y="629" type="line"/>
      <point x="154" y="602" type="line"/>
      <point x="108" y="554" type="line"/>
      <point x="68" y="505" type="line"/>
      <point x="35" y="455" type="line"/>
      <point x="30" y="396" type="line"/>
      <point x="35" y="369" type="line"/>
      <point x="46" y="308" type="line"/>
      <point x="78" y="229" type="line"/>
      <point x="102" y="188" type="line"/>
      <point x="137" y="152" type="line"/>
      <point x="155" y="138" type="line"/>
      <point x="183" y="110" type="line"/>
      <point x="227" y="82" type="line"/>
      <point x="284" y="49" type="line"/>
      <point x="332" y="25" type="line"/>
      <point x="358" y="16" type="line"/>
      <point x="396" y="33" type="line"/>
      <point x="423" y="49" type="line"/>
      <point x="455" y="72" type="line"/>
      <point x="506" y="105" type="line"/>
      <point x="554" y="147" type="line"/>
      <point x="596" y="190" type="line"/>
      <point x="636" y="243" type="line"/>
      <point x="662" y="279" type="line"/>
      <point x="683" y="316" type="line"/>
      <point x="700" y="349" type="line"/>
      <point x="670" y="394" type="line"/>
      <point x="645" y="424" type="line"/>
      <point x="615" y="458" type="line"/>
      <point x="572" y="500" type="line"/>
      <point x="539" y="527" type="line"/>
      <point x="467" y="559" type="line"/>
      <point x="410" y="506" type="line"/>
      <point x="357" y="459" type="line"/>
      <point x="358" y="435" type="line"/>
      <point x="421" y="422" type="line"/>
      <point x="468" y="395" type="line"/>
      <point x="518" y="352" type="line"/>
      <point x="541" y="316" type="line"/>
      <point x="554" y="270" type="line"/>
      <point x="553" y="236" type="line"/>
      <point x="549" y="215" type="line"/>
      <point x="546" y="202" type="line"/>
      <point x="533" y="185" type="line"/>
      <point x="514" y="174" type="line"/>
      <point x="495" y="163" type="line"/>
      <point x="462" y="155" type="line"/>
      <point x="426" y="152" type="line"/>
      <point x="400" y="158" type="line"/>
      <point x="374" y="166" type="line"/>
      <point x="343" y="182" type="line"/>
      <point x="314" y="199" type="line"/>
      <point x="286" y="220" type="line"/>
      <point x="249" y="249" type="line"/>
      <point x="213" y="285" type="line"/>
      <point x="197" y="303" type="line"/>
      <point x="173" y="346" type="line"/>
      <point x="159" y="399" type="line"/>
      <point x="159" y="455" type="line"/>
      <point x="172" y="507" type="line"/>
      <point x="193" y="547" type="line"/>
      <point x="216" y="576" type="line"/>
      <point x="231" y="529" type="line"/>
      <point x="230" y="500" type="line"/>
      <point x="227" y="342" type="line"/>
      <point x="213" y="285" type="line"/>
      <point x="248" y="250" type="line"/>
      <point x="315" y="297" type="line"/>
      <point x="367" y="316" type="line"/>
      <point x="361" y="361" type="line"/>
      <point x="357" y="459" type="line"/>
      <point x="356" y="518" type="line"/>
      <point x="357" y="568" type="line"/>
      <point x="361" y="610" type="line"/>
      <point x="378" y="605" type="line"/>
      <point x="393" y="599" type="line"/>
      <point x="407" y="594" type="line"/>
      <point x="427" y="584" type="line"/>
      <point x="449" y="572" type="line"/>
      <point x="467" y="560" type="line"/>
      <point x="494" y="547" type="line"/>
      <point x="528" y="532" type="line"/>
    </contour>
  </outline>
</glyph>
<glyph name="K" format="2">
  <advance width="700"/>
  <unicode hex="004B"/>
  <outline>
    <contour>
      <point x="69" y="749" type="line"/>
      <point x="51" y="679" type="line"/>
      <point x="35" y="623" type="line"/>
      <point x="26" y="586" type="line"/>
      <point x="69" y="592" type="line"/>
      <point x="123" y="600" type="line"/>
      <point x="158" y="598" type="line"/>
      <point x="159" y="569" type="line"/>
      <point x="157" y="493" type="line"/>
      <point x="145" y="368" type="line"/>
      <point x="138" y="272" type="line"/>
      <point x="125" y="219" type="line"/>
      <point x="110" y="176" type="line"/>
      <point x="88" y="136" type="line"/>
      <point x="64" y="99" type="line"/>
      <point x="43" y="75" type="line"/>
      <point x="22" y="54" type="line"/>
      <point x="55" y="53" type="line"/>
      <point x="103" y="48" type="line"/>
      <point x="160" y="41" type="line"/>
      <point x="204" y="34" type="line"/>
      <point x="254" y="23" type="line"/>
      <point x="282" y="15" type="line"/>
      <point x="299" y="46" type="line"/>
      <point x="320" y="86" type="line"/>
      <point x="342" y="125" type="line"/>
      <point x="363" y="166" type="line"/>
      <point x="336" y="162" type="line"/>
      <point x="317" y="161" type="line"/>
      <point x="296" y="160" type="line"/>
      <point x="279" y="159"/>
      <point x="250" y="155"/>
      <point x="228" y="161" type="curve"/>
      <point x="208" y="169" type="line"/>
      <point x="237" y="198" type="line"/>
      <point x="261" y="217" type="line"/>
      <point x="284" y="243" type="line"/>
      <point x="300" y="280" type="line"/>
      <point x="306" y="318" type="line"/>
      <point x="349" y="339" type="line"/>
      <point x="381" y="353" type="line"/>
      <point x="469" y="173" type="line"/>
      <point x="493" y="109" type="line"/>
      <point x="518" y="52" type="line"/>
      <point x="532" y="15" type="line"/>
      <point x="553" y="28" type="line"/>
      <point x="611" y="64" type="line"/>
      <point x="650" y="87" type="line"/>
      <point x="688" y="110" type="line"/>
      <point x="668" y="142" type="line"/>
      <point x="649" y="175" type="line"/>
      <point x="624" y="208" type="line"/>
      <point x="616" y="230" type="line"/>
      <point x="600" y="254" type="line"/>
      <point x="581" y="287" type="line"/>
      <point x="565" y="313" type="line"/>
      <point x="546" y="364" type="line"/>
      <point x="524" y="418" type="line"/>
      <point x="550" y="431" type="line"/>
      <point x="620" y="469" type="line"/>
      <point x="688" y="499" type="line"/>
      <point x="638" y="556" type="line"/>
      <point x="600" y="600" type="line"/>
      <point x="565" y="652" type="line"/>
      <point x="536" y="695" type="line"/>
      <point x="501" y="750" type="line"/>
      <point x="447" y="664" type="line"/>
      <point x="412" y="619" type="line"/>
      <point x="377" y="569" type="line"/>
      <point x="354" y="541" type="line"/>
      <point x="338" y="519" type="line"/>
      <point x="305" y="484" type="line"/>
      <point x="302" y="510" type="line"/>
      <point x="302" y="542" type="line"/>
      <point x="309" y="612" type="line"/>
      <point x="318" y="655" type="line"/>
      <point x="332" y="691" type="line"/>
      <point x="353" y="726" type="line"/>
      <point x="305" y="729" type="line"/>
      <point x="186" y="740" type="line"/>
      <point x="101" y="747" type="line"/>
    </contour>
    <contour>
      <point x="309" y="387" type="line"/>
      <point x="441" y="556" type="line"/>
      <point x="499" y="483" type="line"/>
    </contour>
  </outline>
</glyph>
<glyph name="L" format="2">
  <advance width="580"/>
  <unicode hex="004C"/>
  <outline>
    <contour>
      <point x="261" y="263" type="line"/>
      <point x="285" y="244" type="line"/>
      <point x="318" y="271" type="line"/>
      <point x="337" y="286" type="line"/>
      <point x="360" y="305" type="line"/>
      <point x="386" y="325" type="line"/>
      <point x="401" y="344" type="line"/>
      <point x="417" y="365" type="line"/>
      <point x="427" y="388" type="line"/>
      <point x="428" y="396" type="line"/>
      <point x="424" y="416" type="line"/>
      <point x="420" y="430" type="line"/>
      <point x="421" y="452" type="line"/>
      <point x="416" y="470" type="line"/>
      <point x="415" y="494" type="line"/>
      <point x="410" y="516" type="line"/>
      <point x="408" y="539" type="line"/>
      <point x="408" y="565" type="line"/>
      <point x="409" y="580" type="line"/>
      <point x="407" y="599" type="line"/>
      <point x="409" y="626" type="line"/>
      <point x="413" y="653" type="line"/>
      <point x="430" y="658" type="line"/>
      <point x="456" y="665" type="line"/>
      <point x="490" y="667" type="line"/>
      <point x="515" y="673" type="line"/>
      <point x="548" y="674" type="line"/>
      <point x="528" y="713" type="line"/>
      <point x="517" y="731" type="line"/>
      <point x="495" y="751" type="line"/>
      <point x="454" y="748" type="line"/>
      <point x="393" y="726" type="line"/>
      <point x="334" y="700" type="line"/>
      <point x="267" y="678" type="line"/>
      <point x="195" y="655" type="line"/>
      <point x="136" y="628" type="line"/>
      <point x="88" y="611" type="line"/>
      <point x="55" y="589" type="line"/>
      <point x="50" y="569" type="line"/>
      <point x="55" y="545" type="line"/>
      <point x="72" y="484" type="line"/>
      <point x="87" y="428" type="line"/>
      <point x="103" y="395" type="line"/>
      <point x="114" y="358" type="line"/>
      <point x="116" y="301" type="line"/>
      <point x="105" y="259" type="line"/>
      <point x="92" y="229" type="line"/>
      <point x="77" y="188" type="line"/>
      <point x="59" y="161" type="line"/>
      <point x="40" y="129" type="line"/>
      <point x="7" y="100" type="line"/>
      <point x="44" y="94" type="line"/>
      <point x="83" y="81" type="line"/>
      <point x="138" y="73" type="line"/>
      <point x="174" y="64" type="line"/>
      <point x="212" y="59" type="line"/>
      <point x="226" y="55" type="line"/>
      <point x="253" y="51" type="line"/>
      <point x="282" y="44" type="line"/>
      <point x="309" y="38" type="line"/>
      <point x="344" y="31" type="line"/>
      <point x="373" y="25" type="line"/>
      <point x="410" y="18" type="line"/>
      <point x="434" y="16" type="line"/>
      <point x="450" y="16" type="line"/>
      <point x="465" y="24" type="line"/>
      <point x="478" y="36" type="line"/>
      <point x="488" y="49" type="line"/>
      <point x="498" y="62" type="line"/>
      <point x="507" y="78" type="line"/>
      <point x="518" y="94" type="line"/>
      <point x="528" y="109" type="line"/>
      <point x="538" y="125" type="line"/>
      <point x="554" y="151" type="line"/>
      <point x="536" y="150" type="line"/>
      <point x="509" y="150" type="line"/>
      <point x="492" y="150" type="line"/>
      <point x="470" y="150" type="line"/>
      <point x="452" y="152" type="line"/>
      <point x="430" y="153" type="line"/>
      <point x="410" y="155" type="line"/>
      <point x="389" y="158" type="line"/>
      <point x="370" y="159" type="line"/>
      <point x="349" y="162" type="line"/>
      <point x="325" y="165" type="line"/>
      <point x="304" y="171" type="line"/>
      <point x="288" y="173" type="line"/>
      <point x="263" y="177" type="line"/>
      <point x="239" y="184" type="line"/>
      <point x="217" y="192" type="line"/>
      <point x="244" y="209" type="line"/>
      <point x="261" y="224" type="line"/>
      <point x="285" y="244" type="line"/>
      <point x="261" y="263" type="line"/>
      <point x="251" y="301" type="line"/>
      <point x="253" y="319" type="line"/>
      <point x="253" y="352" type="line"/>
      <point x="252" y="373" type="line"/>
      <point x="246" y="400" type="line"/>
      <point x="241" y="431" type="line"/>
      <point x="233" y="455" type="line"/>
      <point x="227" y="491" type="line"/>
      <point x="222" y="524" type="line"/>
      <point x="221" y="553" type="line"/>
      <point x="236" y="578" type="line"/>
      <point x="261" y="596" type="line"/>
      <point x="293" y="612" type="line"/>
      <point x="289" y="572" type="line"/>
      <point x="292" y="520" type="line"/>
      <point x="296" y="464" type="line"/>
      <point x="296" y="414" type="line"/>
      <point x="277" y="329" type="line"/>
      <point x="251" y="301" type="line"/>
    </contour>
  </outline>
</glyph>
<glyph name="M" format="2">
  <advance width="950"/>
  <unicode hex="004D"/>
  <outline>
    <contour>
      <point x="281" y="698" type="line"/>
      <point x="259" y="749" type="line"/>
      <point x="204" y="729" type="line"/>
      <point x="158" y="711" type="line"/>
      <point x="108" y="689" type="line"/>
      <point x="69" y="665" type="line"/>
      <point x="39" y="633" type="line"/>
      <point x="35" y="588" type="line"/>
      <point x="49" y="543" type="line"/>
      <point x="71" y="496" type="line"/>
      <point x="91" y="448" type="line"/>
      <point x="116" y="394" type="line"/>
      <point x="138" y="336" type="line"/>
      <point x="144" y="280" type="line"/>
      <point x="135" y="257" type="line"/>
      <point x="112" y="224" type="line"/>
      <point x="71" y="180" type="line"/>
      <point x="43" y="151" type="line"/>
      <point x="20" y="130" type="line"/>
      <point x="245" y="15" type="line"/>
      <point x="328" y="162" type="line"/>
      <point x="281" y="174" type="line"/>
      <point x="244" y="188" type="line"/>
      <point x="199" y="213" type="line"/>
      <point x="217" y="237" type="line"/>
      <point x="235" y="260" type="line"/>
      <point x="260" y="298" type="line"/>
      <point x="277" y="327" type="line"/>
      <point x="296" y="381" type="line"/>
      <point x="289" y="432" type="line"/>
      <point x="276" y="468" type="line"/>
      <point x="252" y="513" type="line"/>
      <point x="275" y="536" type="line"/>
      <point x="312" y="566" type="line"/>
      <point x="348" y="595" type="line"/>
      <point x="370" y="591" type="line"/>
      <point x="421" y="571" type="line"/>
      <point x="418" y="512" type="line"/>
      <point x="416" y="412" type="line"/>
      <point x="414" y="406"/>
      <point x="411" y="382"/>
      <point x="407" y="339" type="curve"/>
      <point x="404" y="249" type="line"/>
      <point x="399" y="214" type="line"/>
      <point x="391" y="191" type="line"/>
      <point x="383" y="167" type="line"/>
      <point x="363" y="132" type="line"/>
      <point x="396" y="103" type="line"/>
      <point x="435" y="69" type="line"/>
      <point x="484" y="15" type="line"/>
      <point x="513" y="51" type="line"/>
      <point x="539" y="82" type="line"/>
      <point x="597" y="154" type="line"/>
      <point x="578" y="164" type="line"/>
      <point x="562" y="190" type="line"/>
      <point x="554" y="223" type="line"/>
      <point x="552" y="281" type="line"/>
      <point x="554" y="345" type="line"/>
      <point x="555" y="420" type="line"/>
      <point x="559" y="526" type="line"/>
      <point x="564" y="576" type="line"/>
      <point x="577" y="605" type="line"/>
      <point x="590" y="604" type="line"/>
      <point x="611" y="601"/>
      <point x="660" y="572"/>
      <point x="699" y="546" type="curve"/>
      <point x="726" y="526" type="line"/>
      <point x="711" y="515"/>
      <point x="666" y="446"/>
      <point x="667" y="394" type="curve"/>
      <point x="667" y="318" type="line"/>
      <point x="667" y="286" type="line"/>
      <point x="667" y="203" type="line"/>
      <point x="674" y="147" type="line"/>
      <point x="677" y="121"/>
      <point x="718" y="47"/>
      <point x="747" y="36" type="curve"/>
      <point x="775" y="21" type="line"/>
      <point x="790" y="15" type="line"/>
      <point x="869" y="160" type="line"/>
      <point x="841" y="182" type="line"/>
      <point x="816" y="224" type="line"/>
      <point x="810" y="261" type="line"/>
      <point x="813" y="301" type="line"/>
      <point x="816" y="351" type="line"/>
      <point x="816" y="406" type="line"/>
      <point x="819" y="449" type="line"/>
      <point x="822" y="500" type="line"/>
      <point x="830" y="538" type="line"/>
      <point x="844" y="567" type="line"/>
      <point x="870" y="605" type="line"/>
      <point x="901" y="631" type="line"/>
      <point x="782" y="683" type="line"/>
      <point x="661" y="748" type="line"/>
      <point x="564" y="647" type="line"/>
      <point x="522" y="669" type="line"/>
      <point x="449" y="725" type="line"/>
      <point x="415" y="750" type="line"/>
      <point x="336" y="671" type="line"/>
      <point x="227" y="564" type="line"/>
      <point x="215" y="591" type="line"/>
      <point x="208" y="628" type="line"/>
      <point x="210" y="652" type="line"/>
      <point x="221" y="667" type="line"/>
      <point x="248" y="685" type="line"/>
    </contour>
  </outline>
</glyph>
<glyph name="P" format="2">
  <advance width="630"/>
  <unicode hex="0050"/>
  <outline>
    <contour>
      <point x="104" y="750" type="line"/>
      <point x="92" y="734" type="line"/>
      <point x="82" y="721" type="line"/>
      <point x="66" y="700" type="line"/>
      <point x="45" y="674" type="line"/>
      <point x="20" y="642" type="line"/>
      <point x="38" y="634" type="line"/>
      <point x="75" y="617" type="line"/>
      <point x="101" y="606" type="line"/>
      <point x="126" y="593" type="line"/>
      <point x="129" y="430" type="line"/>
      <point x="128" y="262" type="line"/>
      <point x="103" y="236" type="line"/>
      <point x="67" y="202" type="line"/>
      <point x="27" y="160" type="line"/>
      <point x="125" y="125" type="line"/>
      <point x="117" y="13" type="line"/>
      <point x="113" y="-13" type="line"/>
      <point x="106" y="-61" type="line"/>
      <point x="93" y="-119" type="line"/>
      <point x="79" y="-170" type="line"/>
      <point x="200" y="-92" type="line"/>
      <point x="294" y="-34" type="line"/>
      <point x="289" y="-24" type="line"/>
      <point x="286" y="-15" type="line"/>
      <point x="282" y="2" type="line"/>
      <point x="280" y="15" type="line"/>
      <point x="278" y="29" type="line"/>
      <point x="277" y="39" type="line"/>
      <point x="276" y="52" type="line"/>
      <point x="275" y="71" type="line"/>
      <point x="299" y="62" type="line"/>
      <point x="338" y="48" type="line"/>
      <point x="362" y="40" type="line"/>
      <point x="389" y="30" type="line"/>
      <point x="412" y="22" type="line"/>
      <point x="431" y="15" type="line"/>
      <point x="446" y="35" type="line"/>
      <point x="483" y="89" type="line"/>
      <point x="514" y="140" type="line"/>
      <point x="550" y="211" type="line"/>
      <point x="571" y="264" type="line"/>
      <point x="591" y="329" type="line"/>
      <point x="603" y="392" type="line"/>
      <point x="609" y="459" type="line"/>
      <point x="601" y="516" type="line"/>
      <point x="590" y="562" type="line"/>
      <point x="576" y="596" type="line"/>
      <point x="542" y="651" type="line"/>
      <point x="523" y="673" type="line"/>
      <point x="503" y="695" type="line"/>
      <point x="473" y="725" type="line"/>
      <point x="441" y="749" type="line"/>
      <point x="292" y="630" type="line"/>
      <point x="298" y="692" type="line"/>
    </contour>
    <contour>
      <point x="325" y="561" type="line"/>
      <point x="343" y="565" type="line"/>
      <point x="360" y="563" type="line"/>
      <point x="383" y="547" type="line"/>
      <point x="411" y="518" type="line"/>
      <point x="433" y="485" type="line"/>
      <point x="452" y="452" type="line"/>
      <point x="464" y="424" type="line"/>
      <point x="476" y="389" type="line"/>
      <point x="485" y="354" type="line"/>
      <point x="492" y="318" type="line"/>
      <point x="497" y="259" type="line"/>
      <point x="494" y="219" type="line"/>
      <point x="487" y="193" type="line"/>
      <point x="475" y="176" type="line"/>
      <point x="464" y="169" type="line"/>
      <point x="450" y="162" type="line"/>
      <point x="434" y="161" type="line"/>
      <point x="273" y="237" type="line"/>
      <point x="285" y="507" type="line"/>
      <point x="287" y="522" type="line"/>
      <point x="309" y="550" type="line"/>
    </contour>
  </outline>
</glyph>
<glyph name="Q" format="2">
  <advance width="845"/>
  <unicode hex="0051"/>
  <outline>
    <contour>
      <point x="452" y="750" type="line"/>
      <point x="411" y="742" type="line"/>
      <point x="390" y="740" type="line"/>
      <point x="363" y="731" type="line"/>
      <point x="340" y="724" type="line"/>
      <point x="301" y="709" type="line"/>
      <point x="256" y="688" type="line"/>
      <point x="204" y="657" type="line"/>
      <point x="157" y="619" type="line"/>
      <point x="114" y="576" type="line"/>
      <point x="73" y="540" type="line"/>
      <point x="9" y="453" type="line"/>
      <point x="18" y="418" type="line"/>
      <point x="26" y="369" type="line"/>
      <point x="47" y="312" type="line"/>
      <point x="60" y="250" type="line"/>
      <point x="84" y="205" type="line"/>
      <point x="95" y="164" type="line"/>
      <point x="125" y="123" type="line"/>
      <point x="153" y="93" type="line"/>
      <point x="185" y="67" type="line"/>
      <point x="224" y="48" type="line"/>
      <point x="264" y="35" type="line"/>
      <point x="299" y="24" type="line"/>
      <point x="352" y="17" type="line"/>
      <point x="406" y="13" type="line"/>
      <point x="515" y="49" type="line"/>
      <point x="535" y="26" type="line"/>
      <point x="554" y="9" type="line"/>
      <point x="579" y="-13" type="line"/>
      <point x="615" y="-36" type="line"/>
      <point x="647" y="-57" type="line"/>
      <point x="660" y="-65" type="line"/>
      <point x="672" y="-72" type="line"/>
      <point x="685" y="-79" type="line"/>
      <point x="699" y="-86" type="line"/>
      <point x="712" y="-93" type="line"/>
      <point x="732" y="-102" type="line"/>
      <point x="759" y="-113" type="line"/>
      <point x="782" y="-122" type="line"/>
      <point x="801" y="-128" type="line"/>
      <point x="829" y="-137" type="line"/>
      <point x="852" y="-143" type="line"/>
      <point x="877" y="-148" type="line"/>
      <point x="899" y="-152" type="line"/>
      <point x="927" y="-156" type="line"/>
      <point x="963" y="-160" type="line"/>
      <point x="995" y="-161" type="line"/>
      <point x="1029" y="-161" type="line"/>
      <point x="1063" y="-160" type="line"/>
      <point x="1091" y="-158" type="line"/>
      <point x="1113" y="-156" type="line"/>
      <point x="1131" y="-154" type="line"/>
      <point x="1141" y="-153" type="line"/>
      <point x="1154" y="-151" type="line"/>
      <point x="1176" y="-148" type="line"/>
      <point x="1189" y="-146" type="line"/>
      <point x="1203" y="-144" type="line"/>
      <point x="1211" y="-142" type="line"/>
      <point x="1212" y="-123" type="line"/>
      <point x="1213" y="-94" type="line"/>
      <point x="1191" y="-96" type="line"/>
      <point x="1173" y="-97" type="line"/>
      <point x="1151" y="-98" type="line"/>
      <point x="1132" y="-99" type="line"/>
      <point x="1110" y="-99" type="line"/>
      <point x="1098" y="-99" type="line"/>
      <point x="1084" y="-98" type="line"/>
      <point x="1070" y="-97" type="line"/>
      <point x="1056" y="-96" type="line"/>
      <point x="1044" y="-95" type="line"/>
      <point x="1033" y="-94" type="line"/>
      <point x="1018" y="-92" type="line"/>
      <point x="990" y="-88" type="line"/>
      <point x="973" y="-85" type="line"/>
      <point x="955" y="-81" type="line"/>
      <point x="928" y="-74" type="line"/>
      <point x="908" y="-68" type="line"/>
      <point x="871" y="-54" type="line"/>
      <point x="850" y="-45" type="line"/>
      <point x="838" y="-39" type="line"/>
      <point x="811" y="-24" type="line"/>
      <point x="794" y="-13" type="line"/>
      <point x="785" y="-7" type="line"/>
      <point x="770" y="5" type="line"/>
      <point x="756" y="16" type="line"/>
      <point x="734" y="36" type="line"/>
      <point x="714" y="57" type="line"/>
      <point x="690" y="86" type="line"/>
      <point x="680" y="100" type="line"/>
      <point x="660" y="133" type="line"/>
      <point x="649" y="153" type="line"/>
      <point x="667" y="175" type="line"/>
      <point x="679" y="191" type="line"/>
      <point x="691" y="210" type="line"/>
      <point x="704" y="231" type="line"/>
      <point x="714" y="249" type="line"/>
      <point x="723" y="268" type="line"/>
      <point x="733" y="289" type="line"/>
      <point x="745" y="318" type="line"/>
      <point x="759" y="365" type="line"/>
      <point x="768" y="415" type="line"/>
      <point x="773" y="460" type="line"/>
      <point x="774" y="493" type="line"/>
      <point x="741" y="513" type="line"/>
      <point x="718" y="529" type="line"/>
      <point x="695" y="547" type="line"/>
      <point x="671" y="566" type="line"/>
      <point x="636" y="599" type="line"/>
      <point x="613" y="625" type="line"/>
      <point x="593" y="649" type="line"/>
      <point x="577" y="671" type="line"/>
      <point x="559" y="700" type="line"/>
      <point x="541" y="733" type="line"/>
      <point x="447" y="642" type="line"/>
    </contour>
    <contour>
      <point x="446" y="579" type="line"/>
      <point x="468" y="563" type="line"/>
      <point x="484" y="550" type="line"/>
      <point x="507" y="529" type="line"/>
      <point x="524" y="514" type="line"/>
      <point x="544" y="490" type="line"/>
      <point x="561" y="474" type="line"/>
      <point x="574" y="455" type="line"/>
      <point x="583" y="440" type="line"/>
      <point x="597" y="424" type="line"/>
      <point x="605" y="405" type="line"/>
      <point x="615" y="384" type="line"/>
      <point x="619" y="372" type="line"/>
      <point x="623" y="360" type="line"/>
      <point x="631" y="336" type="line"/>
      <point x="634" y="318" type="line"/>
      <point x="638" y="294" type="line"/>
      <point x="638" y="287" type="line"/>
      <point x="638" y="282"/>
      <point x="639" y="268"/>
      <point x="636" y="254" type="curve" smooth="yes"/>
      <point x="633" y="243"/>
      <point x="623" y="211"/>
      <point x="614" y="191" type="curve"/>
      <point x="603" y="178" type="line"/>
      <point x="575" y="149" type="line"/>
      <point x="536" y="130" type="line"/>
      <point x="490" y="114" type="line"/>
      <point x="440" y="112" type="line"/>
      <point x="390" y="120" type="line"/>
      <point x="341" y="142" type="line"/>
      <point x="295" y="176" type="line"/>
      <point x="261" y="210" type="line"/>
      <point x="239" y="243" type="line"/>
      <point x="215" y="284" type="line"/>
      <point x="207" y="316" type="line"/>
      <point x="203" y="341" type="line"/>
      <point x="198" y="367" type="line"/>
      <point x="192" y="426" type="line"/>
      <point x="195" y="484" type="line"/>
      <point x="208" y="537" type="line"/>
      <point x="229" y="574" type="line"/>
      <point x="259" y="610" type="line"/>
      <point x="300" y="637" type="line"/>
      <point x="307" y="581" type="line"/>
      <point x="311" y="493" type="line"/>
      <point x="316" y="292" type="line"/>
      <point x="308" y="216" type="line"/>
      <point x="295" y="175" type="line"/>
      <point x="341" y="142" type="line"/>
      <point x="363" y="174" type="line"/>
      <point x="394" y="199" type="line"/>
      <point x="429" y="218" type="line"/>
      <point x="464" y="231" type="line"/>
      <point x="500" y="241" type="line"/>
      <point x="479" y="299" type="line"/>
      <point x="460" y="382" type="line"/>
      <point x="451" y="463" type="line"/>
    </contour>
  </outline>
</glyph>
<glyph name="R" format="2">
  <advance width="750"/>
  <unicode hex="0052"/>
  <outline>
    <contour>
      <point x="30" y="620" type="line"/>
      <point x="57" y="620" type="line"/>
      <point x="81" y="617" type="line"/>
      <point x="92" y="615" type="line"/>
      <point x="103" y="612" type="line"/>
      <point x="116" y="607" type="line"/>
      <point x="126" y="581" type="line"/>
      <point x="141" y="534" type="line"/>
      <point x="156" y="472" type="line"/>
      <point x="160" y="436" type="line"/>
      <point x="162" y="404" type="line"/>
      <point x="162" y="397"/>
      <point x="161" y="367"/>
      <point x="159" y="341" type="curve"/>
      <point x="152" y="309" type="line"/>
      <point x="142" y="276" type="line"/>
      <point x="124" y="232" type="line"/>
      <point x="106" y="201" type="line"/>
      <point x="78" y="161" type="line"/>
      <point x="55" y="134" type="line"/>
      <point x="27" y="107" type="line"/>
      <point x="114" y="74" type="line"/>
      <point x="262" y="15" type="line"/>
      <point x="274" y="29" type="line"/>
      <point x="289" y="47" type="line"/>
      <point x="311" y="72" type="line"/>
      <point x="331" y="95" type="line"/>
      <point x="353" y="121" type="line"/>
      <point x="379" y="151" type="line"/>
      <point x="351" y="145" type="line"/>
      <point x="329" y="143" type="line"/>
      <point x="302" y="147" type="line"/>
      <point x="171" y="191" type="line"/>
      <point x="192" y="224" type="line"/>
      <point x="210" y="260" type="line"/>
      <point x="222" y="281" type="line"/>
      <point x="245" y="326" type="line"/>
      <point x="261" y="360" type="line"/>
      <point x="278" y="401" type="line"/>
      <point x="289" y="435" type="line"/>
      <point x="296" y="468" type="line"/>
      <point x="300" y="487" type="line"/>
      <point x="305" y="524" type="line"/>
      <point x="306" y="565" type="line"/>
      <point x="329" y="596" type="line"/>
      <point x="352" y="628" type="line"/>
      <point x="380" y="610" type="line"/>
      <point x="406" y="595" type="line"/>
      <point x="422" y="585" type="line"/>
      <point x="441" y="574" type="line"/>
      <point x="467" y="560" type="line"/>
      <point x="492" y="545" type="line"/>
      <point x="471" y="532" type="line"/>
      <point x="455" y="522" type="line"/>
      <point x="436" y="509" type="line"/>
      <point x="419" y="497" type="line"/>
      <point x="405" y="488" type="line"/>
      <point x="387" y="477" type="line"/>
      <point x="370" y="465" type="line"/>
      <point x="356" y="455" type="line"/>
      <point x="390" y="386" type="line"/>
      <point x="416" y="333" type="line"/>
      <point x="440" y="284" type="line"/>
      <point x="441" y="279"/>
      <point x="469" y="210"/>
      <point x="488" y="178" type="curve"/>
      <point x="509" y="128" type="line"/>
      <point x="529" y="78" type="line"/>
      <point x="541" y="49" type="line"/>
      <point x="555" y="15" type="line"/>
      <point x="601" y="47" type="line"/>
      <point x="649" y="79" type="line"/>
      <point x="723" y="130" type="line"/>
      <point x="709" y="134" type="line"/>
      <point x="692" y="141" type="line"/>
      <point x="674" y="153" type="line"/>
      <point x="661" y="168" type="line"/>
      <point x="648" y="191" type="line"/>
      <point x="628" y="230" type="line"/>
      <point x="600" y="290" type="line"/>
      <point x="564" y="374" type="line"/>
      <point x="543" y="424" type="line"/>
      <point x="510" y="499" type="line"/>
      <point x="544" y="517" type="line"/>
      <point x="577" y="534" type="line"/>
      <point x="618" y="557" type="line"/>
      <point x="650" y="573" type="line"/>
      <point x="689" y="594" type="line"/>
      <point x="659" y="609" type="line"/>
      <point x="632" y="623" type="line"/>
      <point x="607" y="636" type="line"/>
      <point x="574" y="653" type="line"/>
      <point x="551" y="665" type="line"/>
      <point x="515" y="683" type="line"/>
      <point x="468" y="708" type="line"/>
      <point x="438" y="723" type="line"/>
      <point x="418" y="734" type="line"/>
      <point x="387" y="750" type="line"/>
      <point x="371" y="728" type="line"/>
      <point x="355" y="706" type="line"/>
      <point x="340" y="686" type="line"/>
      <point x="322" y="660" type="line"/>
      <point x="295" y="624" type="line"/>
      <point x="288" y="643" type="line"/>
      <point x="274" y="669" type="line"/>
      <point x="262" y="687" type="line"/>
      <point x="245" y="707" type="line"/>
      <point x="229" y="723" type="line"/>
      <point x="209" y="739" type="line"/>
      <point x="193" y="749" type="line"/>
      <point x="152" y="717" type="line"/>
      <point x="118" y="690" type="line"/>
      <point x="78" y="658" type="line"/>
    </contour>
  </outline>
</glyph>
<glyph name="S" format="2">
  <advance width="729"/>
  <unicode hex="0053"/>
  <outline>
    <contour>
      <point x="709" y="710" type="line"/>
      <point x="691" y="732" type="line"/>
      <point x="658" y="717" type="line"/>
      <point x="620" y="705" type="line"/>
      <point x="591" y="699" type="line"/>
      <point x="549" y="699" type="line"/>
      <point x="497" y="714" type="line"/>
      <point x="448" y="737" type="line"/>
      <point x="324" y="764" type="line"/>
      <point x="274" y="761" type="line"/>
      <point x="219" y="747" type="line"/>
      <point x="174" y="709" type="line"/>
      <point x="149" y="681" type="line"/>
      <point x="118" y="642" type="line"/>
      <point x="90" y="599" type="line"/>
      <point x="58" y="529" type="line"/>
      <point x="41" y="477" type="line"/>
      <point x="158" y="375" type="line"/>
      <point x="196" y="350" type="line"/>
      <point x="219" y="338" type="line"/>
      <point x="250" y="323" type="line"/>
      <point x="271" y="316" type="line"/>
      <point x="298" y="309" type="line"/>
      <point x="333" y="303" type="line"/>
      <point x="359" y="303" type="line"/>
      <point x="375" y="332" type="line"/>
      <point x="397" y="358" type="line"/>
      <point x="421" y="375" type="line"/>
      <point x="465" y="391" type="line"/>
      <point x="520" y="393" type="line"/>
      <point x="561" y="377" type="line"/>
      <point x="592" y="355" type="line"/>
      <point x="616" y="325" type="line"/>
      <point x="625" y="291" type="line"/>
      <point x="619" y="248" type="line"/>
      <point x="586" y="208" type="line"/>
      <point x="549" y="187" type="line"/>
      <point x="500" y="174" type="line"/>
      <point x="437" y="173" type="line"/>
      <point x="373" y="188" type="line"/>
      <point x="336" y="207" type="line"/>
      <point x="292" y="227" type="line"/>
      <point x="254" y="251" type="line"/>
      <point x="221" y="276" type="line"/>
      <point x="177" y="324" type="line"/>
      <point x="165" y="351" type="line"/>
      <point x="158" y="375" type="line"/>
      <point x="41" y="477" type="line"/>
      <point x="25" y="401" type="line"/>
      <point x="19" y="336" type="line"/>
      <point x="29" y="284" type="line"/>
      <point x="59" y="224" type="line"/>
      <point x="105" y="165" type="line"/>
      <point x="183" y="96" type="line"/>
      <point x="232" y="69" type="line"/>
      <point x="273" y="51" type="line"/>
      <point x="334" y="30" type="line"/>
      <point x="385" y="18" type="line"/>
      <point x="427" y="14" type="line"/>
      <point x="464" y="18" type="line"/>
      <point x="499" y="38" type="line"/>
      <point x="538" y="69" type="line"/>
      <point x="572" y="97" type="line"/>
      <point x="607" y="133" type="line"/>
      <point x="642" y="184" type="line"/>
      <point x="665" y="230" type="line"/>
      <point x="682" y="302" type="line"/>
      <point x="677" y="360" type="line"/>
      <point x="660" y="402" type="line"/>
      <point x="630" y="445" type="line"/>
      <point x="574" y="490" type="line"/>
      <point x="505" y="519" type="line"/>
      <point x="442" y="529" type="line"/>
      <point x="380" y="530" type="line"/>
      <point x="322" y="522" type="line"/>
      <point x="302" y="488" type="line"/>
      <point x="275" y="448" type="line"/>
      <point x="238" y="430" type="line"/>
      <point x="209" y="430" type="line"/>
      <point x="184" y="438" type="line"/>
      <point x="162" y="454" type="line"/>
      <point x="140" y="493" type="line"/>
      <point x="136" y="519" type="line"/>
      <point x="138" y="542" type="line"/>
      <point x="145" y="565" type="line"/>
      <point x="158" y="583" type="line"/>
      <point x="177" y="598" type="line"/>
      <point x="199" y="607" type="line"/>
      <point x="224" y="613" type="line"/>
      <point x="247" y="615" type="line"/>
      <point x="285" y="615" type="line"/>
      <point x="314" y="611" type="line"/>
      <point x="339" y="606" type="line"/>
      <point x="360" y="601" type="line"/>
      <point x="414" y="585" type="line"/>
      <point x="471" y="566" type="line"/>
      <point x="525" y="554" type="line"/>
      <point x="580" y="562" type="line"/>
      <point x="609" y="580" type="line"/>
      <point x="648" y="609" type="line"/>
      <point x="668" y="636" type="line"/>
      <point x="691" y="669" type="line"/>
    </contour>
  </outline>
</glyph>
<glyph name="W" format="2">
  <advance width="900"/>
  <unicode hex="0057"/>
  <outline>
    <contour>
      <point x="259" y="763" type="curve"/>
      <point x="184" y="784" type="line"/>
      <point x="183" y="782"/>
      <point x="158" y="759"/>
      <point x="108" y="714" type="curve"/>
      <point x="107" y="711"/>
      <point x="88" y="693"/>
      <point x="50" y="658" type="curve"/>
      <point x="49" y="655"/>
      <point x="40" y="638"/>
      <point x="21" y="607" type="curve"/>
      <point x="20" y="604"/>
      <point x="39" y="552"/>
      <point x="79" y="453" type="curve"/>
      <point x="97" y="409"/>
      <point x="146" y="330"/>
      <point x="152" y="247" type="curve"/>
      <point x="155" y="242"/>
      <point x="118" y="157"/>
      <point x="33" y="86" type="curve"/>
      <point x="31" y="79"/>
      <point x="149" y="57"/>
      <point x="301" y="15" type="curve"/>
      <point x="306" y="11"/>
      <point x="329" y="55"/>
      <point x="377" y="106" type="curve"/>
      <point x="380" y="102"/>
      <point x="460" y="79"/>
      <point x="598" y="15" type="curve"/>
      <point x="632" y="68"/>
      <point x="672" y="102"/>
      <point x="787" y="253" type="curve"/>
      <point x="804" y="269"/>
      <point x="815" y="298"/>
      <point x="840" y="379" type="curve"/>
      <point x="844" y="390"/>
      <point x="834" y="456"/>
      <point x="788" y="589" type="curve"/>
      <point x="783" y="595"/>
      <point x="758" y="655"/>
      <point x="697" y="761" type="curve"/>
      <point x="684" y="756"/>
      <point x="639" y="694"/>
      <point x="527" y="622" type="curve"/>
      <point x="528" y="615"/>
      <point x="533" y="592"/>
      <point x="544" y="548" type="curve"/>
      <point x="560" y="560"/>
      <point x="567" y="564"/>
      <point x="593" y="583" type="curve"/>
      <point x="596" y="578"/>
      <point x="632" y="523"/>
      <point x="672" y="419" type="curve"/>
      <point x="676" y="406"/>
      <point x="695" y="365"/>
      <point x="698" y="297" type="curve"/>
      <point x="700" y="290"/>
      <point x="698" y="211"/>
      <point x="638" y="157" type="curve"/>
      <point x="608" y="169"/>
      <point x="596" y="173"/>
      <point x="533" y="201" type="curve"/>
      <point x="531" y="206"/>
      <point x="536" y="319"/>
      <point x="544" y="548" type="curve"/>
      <point x="542" y="559"/>
      <point x="538" y="576"/>
      <point x="527" y="622" type="curve"/>
      <point x="523" y="621"/>
      <point x="390" y="763"/>
      <point x="389" y="762" type="curve" smooth="yes"/>
      <point x="383" y="750"/>
      <point x="314" y="671"/>
      <point x="307" y="663" type="curve" smooth="yes"/>
      <point x="300" y="656"/>
      <point x="227" y="583"/>
      <point x="217" y="576" type="curve" smooth="yes"/>
      <point x="213" y="573"/>
      <point x="229" y="548"/>
      <point x="250" y="508" type="curve"/>
      <point x="327" y="604" type="line"/>
      <point x="338" y="589"/>
      <point x="382" y="547"/>
      <point x="391" y="527" type="curve" smooth="yes"/>
      <point x="398" y="512"/>
      <point x="396" y="228"/>
      <point x="383" y="192" type="curve" smooth="yes"/>
      <point x="383" y="191"/>
      <point x="358" y="156"/>
      <point x="328" y="157" type="curve" smooth="yes"/>
      <point x="269" y="159"/>
      <point x="201" y="192"/>
      <point x="201" y="192" type="curve" smooth="yes"/>
      <point x="242" y="230"/>
      <point x="304" y="353"/>
      <point x="302" y="368" type="curve" smooth="yes"/>
      <point x="298" y="404"/>
      <point x="288" y="442"/>
      <point x="250" y="508" type="curve"/>
      <point x="251" y="508"/>
      <point x="226" y="579"/>
      <point x="216" y="576" type="curve" smooth="yes"/>
      <point x="206" y="573"/>
      <point x="193" y="642"/>
      <point x="194" y="649" type="curve" smooth="yes"/>
      <point x="196" y="676"/>
      <point x="213" y="714"/>
    </contour>
  </outline>
</glyph>
<glyph name="X" format="2">
  <advance width="700"/>
  <unicode hex="0058"/>
  <outline>
    <contour>
      <point x="221" y="777" type="line"/>
      <point x="191" y="762" type="line"/>
      <point x="155" y="738"/>
      <point x="101" y="701"/>
      <point x="42" y="632" type="curve"/>
      <point x="133" y="638"/>
      <point x="149" y="584"/>
      <point x="161" y="565" type="curve"/>
      <point x="182" y="539"/>
      <point x="234" y="460"/>
      <point x="235" y="449" type="curve" smooth="yes"/>
      <point x="237" y="433"/>
      <point x="101" y="220"/>
      <point x="92" y="201" type="curve" smooth="yes"/>
      <point x="48" y="107"/>
      <point x="31" y="48"/>
      <point x="19" y="4" type="curve" smooth="yes"/>
      <point x="19" y="4"/>
      <point x="82" y="32"/>
      <point x="82" y="32" type="curve"/>
      <point x="126" y="56"/>
      <point x="212" y="78"/>
      <point x="212" y="78" type="curve" smooth="yes"/>
      <point x="210" y="88"/>
      <point x="209" y="106"/>
      <point x="209" y="107" type="curve" smooth="yes"/>
      <point x="202" y="165"/>
      <point x="205" y="128"/>
      <point x="205" y="205" type="curve" smooth="yes"/>
      <point x="205" y="260"/>
      <point x="219" y="311"/>
      <point x="270" y="401" type="curve"/>
      <point x="380" y="180" type="line"/>
      <point x="387" y="173"/>
      <point x="400" y="134"/>
      <point x="425" y="92" type="curve" smooth="yes"/>
      <point x="431" y="81"/>
      <point x="472" y="2"/>
      <point x="473" y="3" type="curve" smooth="yes"/>
      <point x="538" y="62"/>
      <point x="595" y="110"/>
      <point x="607" y="121" type="curve" smooth="yes"/>
      <point x="640" y="151"/>
      <point x="655" y="169"/>
      <point x="654" y="169" type="curve" smooth="yes"/>
      <point x="600" y="186"/>
      <point x="579" y="205"/>
      <point x="570" y="216" type="curve" smooth="yes"/>
      <point x="554" y="235"/>
      <point x="487" y="332"/>
      <point x="359" y="532" type="curve"/>
      <point x="368" y="546"/>
      <point x="438" y="633"/>
      <point x="445" y="630" type="curve" smooth="yes"/>
      <point x="510" y="604"/>
      <point x="530" y="585"/>
      <point x="567" y="554" type="curve" smooth="yes"/>
      <point x="568" y="553"/>
      <point x="662" y="708"/>
      <point x="662" y="708" type="curve" smooth="yes"/>
      <point x="601" y="733"/>
      <point x="492" y="779"/>
      <point x="491" y="778" type="curve" smooth="yes"/>
      <point x="469" y="749"/>
      <point x="457" y="736"/>
      <point x="457" y="736" type="curve" smooth="yes"/>
      <point x="444" y="720"/>
      <point x="436" y="709"/>
      <point x="422" y="691" type="curve" smooth="yes"/>
      <point x="419" y="688"/>
      <point x="341" y="591"/>
      <point x="333" y="580" type="curve" smooth="yes"/>
      <point x="331" y="577"/>
      <point x="285" y="665"/>
      <point x="274" y="682" type="curve" smooth="yes"/>
      <point x="270" y="688"/>
      <point x="252" y="722"/>
      <point x="248" y="729" type="curve"/>
    </contour>
  </outline>
</glyph>
<glyph name="Y" format="2">
  <advance width="700"/>
  <unicode hex="0059"/>
  <outline>
    <contour>
      <point x="219" y="765" type="curve"/>
      <point x="199" y="776"/>
      <point x="168" y="794"/>
      <point x="168" y="794" type="curve" smooth="yes"/>
      <point x="101" y="764"/>
      <point x="32" y="687"/>
      <point x="36" y="624" type="curve" smooth="yes"/>
      <point x="46" y="475"/>
      <point x="156" y="421"/>
      <point x="134" y="288" type="curve" smooth="yes"/>
      <point x="122" y="212"/>
      <point x="10" y="134"/>
      <point x="11" y="134" type="curve" smooth="yes"/>
      <point x="106" y="113"/>
      <point x="247" y="25"/>
      <point x="253" y="15" type="curve" smooth="yes"/>
      <point x="255" y="11"/>
      <point x="420" y="199"/>
      <point x="420" y="198" type="curve" smooth="yes"/>
      <point x="423" y="137"/>
      <point x="485" y="5"/>
      <point x="486" y="-7" type="curve" smooth="yes"/>
      <point x="496" y="-117"/>
      <point x="423" y="-121"/>
      <point x="422" y="-121" type="curve" smooth="yes"/>
      <point x="334" y="-149"/>
      <point x="229" y="-78"/>
      <point x="129" y="-68" type="curve" smooth="yes"/>
      <point x="38" y="-59"/>
      <point x="11" y="-153"/>
      <point x="-30" y="-223" type="curve"/>
      <point x="-11" y="-245" type="line"/>
      <point x="-5" y="-249"/>
      <point x="39" y="-193"/>
      <point x="101" y="-210" type="curve" smooth="yes"/>
      <point x="179" y="-232"/>
      <point x="266" y="-276"/>
      <point x="345" y="-276" type="curve" smooth="yes"/>
      <point x="473" y="-275"/>
      <point x="527" y="-104"/>
      <point x="544" y="-66" type="curve" smooth="yes"/>
      <point x="552" y="-47"/>
      <point x="597" y="78"/>
      <point x="637" y="159" type="curve" smooth="yes"/>
      <point x="641" y="166"/>
      <point x="569" y="177"/>
      <point x="576" y="325" type="curve" smooth="yes"/>
      <point x="577" y="346"/>
      <point x="584" y="526"/>
      <point x="584" y="557" type="curve" smooth="yes"/>
      <point x="583" y="622"/>
      <point x="609" y="670"/>
      <point x="624" y="671" type="curve" smooth="yes"/>
      <point x="639" y="672"/>
      <point x="479" y="759"/>
      <point x="478" y="760" type="curve" smooth="yes"/>
      <point x="475" y="762"/>
      <point x="356" y="633"/>
      <point x="365" y="628" type="curve" smooth="yes"/>
      <point x="395" y="610"/>
      <point x="419" y="591"/>
      <point x="424" y="572" type="curve" smooth="yes"/>
      <point x="434" y="534"/>
      <point x="433" y="305"/>
      <point x="429" y="293" type="curve" smooth="yes"/>
      <point x="409" y="233"/>
      <point x="335" y="200"/>
      <point x="321" y="193" type="curve" smooth="yes"/>
      <point x="301" y="182"/>
      <point x="263" y="198"/>
      <point x="202" y="239" type="curve" smooth="yes"/>
      <point x="195" y="244"/>
      <point x="316" y="437"/>
      <point x="291" y="558" type="curve" smooth="yes"/>
      <point x="290" y="563"/>
      <point x="174" y="586"/>
      <point x="148" y="653" type="curve" smooth="yes"/>
      <point x="145" y="662"/>
      <point x="132" y="709"/>
    </contour>
  </outline>
</glyph>
<glyph name="bracketleft" format="2">
  <advance width="299"/>
  <unicode hex="005B"/>
  <outline>
    <contour>
      <point x="244" y="745" type="line"/>
      <point x="50" y="744" type="line"/>
      <point x="50" y="-39" type="line"/>
      <point x="246" y="-39" type="line"/>
      <point x="246" y="3" type="line"/>
      <point x="167" y="4" type="line"/>
      <point x="167" y="701" type="line"/>
      <point x="249" y="702" type="line"/>
    </contour>
  </outline>
</glyph>
<glyph name="backslash" format="2">
  <advance width="450"/>
  <unicode hex="005C"/>
  <outline>
    <contour>
      <point x="73" y="755" type="line"/>
      <point x="25" y="753" type="line"/>
      <point x="302" y="0" type="line"/>
      <point x="363" y="3" type="line"/>
    </contour>
  </outline>
</glyph>
<glyph name="bracketright" format="2">
  <advance width="299"/>
  <unicode hex="005D"/>
  <outline>
    <contour>
      <point x="55" y="-39" type="line"/>
      <point x="249" y="-38" type="line"/>
      <point x="249" y="745" type="line"/>
      <point x="53" y="745" type="line"/>
      <point x="53" y="703" type="line"/>
      <point x="132" y="702" type="line"/>
      <point x="132" y="5" type="line"/>
      <point x="50" y="4" type="line"/>
    </contour>
  </outline>
</glyph>
<glyph name="asciicircum" format="2">
  <advance width="500"/>
  <unicode hex="005E"/>
  <outline>
    <contour>
      <point x="156" y="746" type="curve"/>
      <point x="173" y="748"/>
      <point x="178" y="741"/>
      <point x="182" y="733" type="curve" smooth="yes"/>
      <point x="184" y="728"/>
      <point x="254" y="598"/>
      <point x="257" y="595" type="curve" smooth="yes"/>
      <point x="260" y="592"/>
      <point x="271" y="574"/>
      <point x="262" y="571" type="curve" smooth="yes"/>
      <point x="261" y="571"/>
      <point x="250" y="568"/>
      <point x="237" y="569" type="curve"/>
      <point x="226" y="567"/>
      <point x="222" y="579"/>
      <point x="219" y="580" type="curve" smooth="yes"/>
      <point x="217" y="581"/>
      <point x="191" y="606"/>
      <point x="142" y="657" type="curve"/>
      <point x="63" y="576" type="line"/>
      <point x="61" y="571"/>
      <point x="55" y="571"/>
      <point x="48" y="569" type="curve" smooth="yes"/>
      <point x="41" y="567"/>
      <point x="38" y="568"/>
      <point x="28" y="568" type="curve" smooth="yes"/>
      <point x="18" y="568"/>
      <point x="19" y="579"/>
      <point x="20" y="584" type="curve" smooth="yes"/>
      <point x="21" y="587"/>
      <point x="50" y="637"/>
      <point x="105" y="733" type="curve"/>
      <point x="110" y="746"/>
      <point x="118" y="746"/>
      <point x="122" y="746" type="curve" smooth="yes"/>
      <point x="125" y="746"/>
      <point x="136" y="746"/>
    </contour>
  </outline>
</glyph>
<glyph name="grave" format="2">
  <advance width="500"/>
  <unicode hex="0060"/>
  <outline>
    <contour>
      <point x="222" y="631" type="line"/>
      <point x="222" y="632" type="line"/>
      <point x="225" y="754"/>
      <point x="199" y="820"/>
      <point x="198" y="820" type="curve" smooth="yes"/>
      <point x="169" y="817"/>
      <point x="85" y="803"/>
      <point x="86" y="801" type="curve" smooth="yes"/>
      <point x="101" y="783"/>
      <point x="123" y="757"/>
      <point x="129" y="748" type="curve" smooth="yes"/>
      <point x="134" y="741"/>
      <point x="162" y="707"/>
      <point x="208" y="651" type="curve"/>
    </contour>
  </outline>
</glyph>
<glyph name="a" format="2">
  <advance width="450"/>
  <unicode hex="0061"/>
  <outline>
    <contour>
      <point x="136" y="466" type="line"/>
      <point x="112" y="446" type="line"/>
      <point x="87" y="427" type="line"/>
      <point x="70" y="412" type="line"/>
      <point x="51" y="399" type="line"/>
      <point x="18" y="370" type="line"/>
      <point x="36" y="341" type="line"/>
      <point x="38" y="290" type="line"/>
      <point x="38" y="274" type="line"/>
      <point x="38" y="245" type="line"/>
      <point x="39" y="211" type="line"/>
      <point x="39" y="184" type="line"/>
      <point x="37" y="148" type="line"/>
      <point x="30" y="118" type="line"/>
      <point x="19" y="98" type="line"/>
      <point x="61" y="61" type="line"/>
      <point x="154" y="13" type="line"/>
      <point x="207" y="53" type="line"/>
      <point x="261" y="91" type="line"/>
      <point x="335" y="17" type="line"/>
      <point x="358" y="38" type="line"/>
      <point x="380" y="61" type="line"/>
      <point x="400" y="82" type="line"/>
      <point x="413" y="95" type="line"/>
      <point x="433" y="116" type="line"/>
      <point x="417" y="133" type="line"/>
      <point x="399" y="151" type="line"/>
      <point x="385" y="182" type="line"/>
      <point x="384" y="212" type="line"/>
      <point x="385" y="300" type="line"/>
      <point x="384" y="342" type="line"/>
      <point x="392" y="372" type="line"/>
      <point x="404" y="404" type="line"/>
      <point x="425" y="424" type="line"/>
      <point x="376" y="446" type="line"/>
      <point x="321" y="473" type="line"/>
      <point x="208" y="525" type="line"/>
      <point x="199" y="517" type="line"/>
      <point x="187" y="508" type="line"/>
      <point x="172" y="496" type="line"/>
      <point x="158" y="486" type="line"/>
      <point x="151" y="478" type="line"/>
    </contour>
    <contour>
      <point x="262" y="365" type="line"/>
      <point x="261" y="297" type="line"/>
      <point x="261" y="239" type="line"/>
      <point x="261" y="194" type="line"/>
      <point x="266" y="152" type="line"/>
      <point x="249" y="130" type="line"/>
      <point x="219" y="115" type="line"/>
      <point x="197" y="126" type="line"/>
      <point x="177" y="149" type="line"/>
      <point x="166" y="163" type="line"/>
      <point x="158" y="198" type="line"/>
      <point x="157" y="238" type="line"/>
      <point x="155" y="290" type="line"/>
      <point x="160" y="361" type="line"/>
      <point x="186" y="409" type="line"/>
    </contour>
  </outline>
</glyph>
<glyph name="c" format="2">
  <advance width="396"/>
  <unicode hex="0063"/>
  <outline>
    <contour>
      <point x="337" y="178" type="line"/>
      <point x="295" y="206" type="line"/>
      <point x="277" y="182" type="line"/>
      <point x="258" y="162" type="line"/>
      <point x="239" y="160" type="line"/>
      <point x="226" y="161" type="line"/>
      <point x="209" y="168" type="line"/>
      <point x="196" y="180" type="line"/>
      <point x="183" y="193" type="line"/>
      <point x="161" y="220" type="line"/>
      <point x="151" y="234" type="line"/>
      <point x="139" y="255" type="line"/>
      <point x="127" y="279" type="line"/>
      <point x="120" y="305" type="line"/>
      <point x="119" y="328" type="line"/>
      <point x="122" y="349" type="line"/>
      <point x="131" y="370" type="line"/>
      <point x="149" y="394" type="line"/>
      <point x="161" y="403" type="line"/>
      <point x="176" y="402" type="line"/>
      <point x="195" y="395" type="line"/>
      <point x="214" y="385" type="line"/>
      <point x="230" y="374" type="line"/>
      <point x="245" y="363" type="line"/>
      <point x="258" y="355" type="line"/>
      <point x="267" y="349" type="line"/>
      <point x="278" y="341" type="line"/>
      <point x="289" y="352" type="line"/>
      <point x="294" y="356"/>
      <point x="314" y="374"/>
      <point x="321" y="379" type="curve"/>
      <point x="342" y="398" type="line"/>
      <point x="347" y="404"/>
      <point x="355" y="409"/>
      <point x="357" y="411" type="curve"/>
      <point x="376" y="428" type="line"/>
      <point x="360" y="437" type="line"/>
      <point x="349" y="444" type="line"/>
      <point x="338" y="451" type="line"/>
      <point x="330" y="456" type="line"/>
      <point x="321" y="460" type="line"/>
      <point x="311" y="466" type="line"/>
      <point x="302" y="472" type="line"/>
      <point x="291" y="478" type="line"/>
      <point x="281" y="484" type="line"/>
      <point x="269" y="491" type="line"/>
      <point x="256" y="499" type="line"/>
      <point x="244" y="506" type="line"/>
      <point x="234" y="513" type="line"/>
      <point x="229" y="516"/>
      <point x="226" y="518"/>
      <point x="224" y="519" type="curve"/>
      <point x="217" y="523" type="line"/>
      <point x="211" y="527" type="line"/>
      <point x="202" y="533" type="line"/>
      <point x="186" y="520" type="line"/>
      <point x="165" y="504" type="line"/>
      <point x="153" y="491" type="line"/>
      <point x="130" y="472" type="line"/>
      <point x="112" y="451" type="line"/>
      <point x="95" y="433" type="line"/>
      <point x="84" y="422" type="line"/>
      <point x="71" y="408" type="line"/>
      <point x="63" y="393" type="line"/>
      <point x="62" y="390"/>
      <point x="51" y="381"/>
      <point x="46" y="369" type="curve"/>
      <point x="37" y="349" type="line"/>
      <point x="25" y="319" type="line"/>
      <point x="16" y="271" type="line"/>
      <point x="16" y="235" type="line"/>
      <point x="18" y="219" type="line"/>
      <point x="24" y="202" type="line"/>
      <point x="27" y="190" type="line"/>
      <point x="36" y="163" type="line"/>
      <point x="47" y="141" type="line"/>
      <point x="59" y="122" type="line"/>
      <point x="71" y="104" type="line"/>
      <point x="81" y="92" type="line"/>
      <point x="88" y="81" type="line"/>
      <point x="100" y="71" type="line"/>
      <point x="107" y="65" type="line"/>
      <point x="112" y="60" type="line"/>
      <point x="120" y="52" type="line"/>
      <point x="127" y="45" type="line"/>
      <point x="145" y="29" type="line"/>
      <point x="156" y="22" type="line"/>
      <point x="172" y="12" type="line"/>
      <point x="189" y="30" type="line"/>
      <point x="203" y="45" type="line"/>
      <point x="219" y="60" type="line"/>
      <point x="241" y="81" type="line"/>
      <point x="258" y="99" type="line"/>
      <point x="277" y="117" type="line"/>
      <point x="298" y="138" type="line"/>
      <point x="318" y="159" type="line"/>
    </contour>
  </outline>
</glyph>
<glyph name="e" format="2">
  <advance width="400"/>
  <unicode hex="0065"/>
  <outline>
    <contour>
      <point x="377" y="391" type="line"/>
      <point x="339" y="418" type="line"/>
      <point x="300" y="445" type="line"/>
      <point x="263" y="473" type="line"/>
      <point x="218" y="504" type="line"/>
      <point x="189" y="528" type="line"/>
      <point x="146" y="503" type="line"/>
      <point x="97" y="472" type="line"/>
      <point x="22" y="428" type="line"/>
      <point x="27" y="376" type="line"/>
      <point x="33" y="303" type="line"/>
      <point x="31" y="241" type="line"/>
      <point x="30" y="171" type="line"/>
      <point x="27" y="143" type="line"/>
      <point x="19" y="108" type="line"/>
      <point x="32" y="103" type="line"/>
      <point x="48" y="97" type="line"/>
      <point x="65" y="90" type="line"/>
      <point x="91" y="80" type="line"/>
      <point x="116" y="70" type="line"/>
      <point x="152" y="55" type="line"/>
      <point x="206" y="35" type="line"/>
      <point x="254" y="14" type="line"/>
      <point x="306" y="89" type="line"/>
      <point x="356" y="158" type="line"/>
      <point x="308" y="156" type="line"/>
      <point x="283" y="154" type="line"/>
      <point x="261" y="154" type="line"/>
      <point x="246" y="154" type="line"/>
      <point x="236" y="155" type="line"/>
      <point x="222" y="156" type="line"/>
      <point x="205" y="162" type="line"/>
      <point x="196" y="167" type="line"/>
      <point x="190" y="173" type="line"/>
      <point x="180" y="183" type="line"/>
      <point x="196" y="199" type="line"/>
      <point x="248" y="255" type="line"/>
      <point x="269" y="276" type="line"/>
      <point x="316" y="325" type="line"/>
      <point x="341" y="353" type="line"/>
    </contour>
    <contour>
      <point x="161" y="223" type="line"/>
      <point x="147" y="287" type="line"/>
      <point x="145" y="344" type="line"/>
      <point x="153" y="378" type="line"/>
      <point x="167" y="396" type="line"/>
      <point x="187" y="393" type="line"/>
      <point x="207" y="381" type="line"/>
      <point x="225" y="364" type="line"/>
      <point x="242" y="341" type="line"/>
      <point x="246" y="316" type="line"/>
      <point x="235" y="302" type="line"/>
      <point x="218" y="283" type="line"/>
      <point x="193" y="257" type="line"/>
    </contour>
  </outline>
</glyph>
<glyph name="g" format="2">
  <advance width="500"/>
  <unicode hex="0067"/>
  <outline>
    <contour>
      <point x="427" y="422" type="line"/>
      <point x="405" y="437" type="line"/>
      <point x="387" y="444" type="line"/>
      <point x="368" y="451" type="line"/>
      <point x="347" y="462" type="line"/>
      <point x="329" y="469" type="line"/>
      <point x="314" y="478" type="line"/>
      <point x="293" y="487" type="line"/>
      <point x="272" y="496" type="line"/>
      <point x="246" y="514" type="line"/>
      <point x="226" y="524" type="line"/>
      <point x="204" y="508" type="line"/>
      <point x="180" y="490" type="line"/>
      <point x="148" y="463" type="line"/>
      <point x="113" y="436" type="line"/>
      <point x="79" y="410" type="line"/>
      <point x="32" y="371" type="line"/>
      <point x="46" y="350" type="line"/>
      <point x="54" y="330" type="line"/>
      <point x="55" y="301" type="line"/>
      <point x="53" y="229" type="line"/>
      <point x="53" y="189" type="line"/>
      <point x="55" y="165" type="line"/>
      <point x="51" y="138" type="line"/>
      <point x="45" y="120" type="line"/>
      <point x="34" y="98" type="line"/>
      <point x="69" y="70" type="line"/>
      <point x="141" y="32" type="line"/>
      <point x="180" y="21" type="line"/>
      <point x="196" y="42" type="line"/>
      <point x="240" y="99" type="line"/>
      <point x="279" y="147" type="line"/>
      <point x="285" y="112" type="line"/>
      <point x="301" y="56" type="line"/>
      <point x="322" y="17" type="line"/>
      <point x="343" y="-7" type="line"/>
      <point x="313" y="-44" type="line"/>
      <point x="270" y="-34" type="line"/>
      <point x="244" y="-29" type="line"/>
      <point x="220" y="-26" type="line"/>
      <point x="199" y="-23" type="line"/>
      <point x="173" y="-21" type="line"/>
      <point x="148" y="-20" type="line"/>
      <point x="181" y="20" type="line"/>
      <point x="140" y="31" type="line"/>
      <point x="101" y="-18" type="line"/>
      <point x="66" y="-63" type="line"/>
      <point x="15" y="-126" type="line"/>
      <point x="48" y="-127"/>
      <point x="117" y="-133"/>
      <point x="142" y="-139" type="curve"/>
      <point x="165" y="-144" type="line"/>
      <point x="191" y="-146" type="line"/>
      <point x="220" y="-152" type="line"/>
      <point x="244" y="-157" type="line"/>
      <point x="268" y="-163" type="line"/>
      <point x="277" y="-150" type="line"/>
      <point x="302" y="-124" type="line"/>
      <point x="324" y="-97" type="line"/>
      <point x="350" y="-66" type="line"/>
      <point x="364" y="-51" type="line"/>
      <point x="374" y="-40" type="line"/>
      <point x="390" y="-22" type="line"/>
      <point x="400" y="-10" type="line"/>
      <point x="411" y="3" type="line"/>
      <point x="421" y="14" type="line"/>
      <point x="425" y="19" type="line"/>
      <point x="430" y="24" type="line"/>
      <point x="435" y="30" type="line"/>
      <point x="444" y="40" type="line"/>
      <point x="451" y="48" type="line"/>
      <point x="457" y="55" type="line"/>
      <point x="461" y="59" type="line"/>
      <point x="450" y="72" type="line"/>
      <point x="444" y="80" type="line"/>
      <point x="420" y="117" type="line"/>
      <point x="409" y="133"/>
      <point x="402" y="149"/>
      <point x="401" y="152" type="curve"/>
      <point x="395" y="165" type="line"/>
      <point x="388" y="186" type="line"/>
      <point x="389" y="205" type="line"/>
      <point x="389" y="231" type="line"/>
      <point x="389" y="249" type="line"/>
      <point x="389" y="261" type="line"/>
      <point x="390" y="286" type="line"/>
      <point x="390" y="300" type="line"/>
      <point x="390" y="320" type="line"/>
      <point x="390" y="336" type="line"/>
      <point x="390" y="351" type="line"/>
      <point x="391" y="365" type="line"/>
      <point x="397" y="382" type="line"/>
      <point x="409" y="404" type="line"/>
    </contour>
    <contour>
      <point x="161" y="306" type="line"/>
      <point x="162" y="343" type="line"/>
      <point x="167" y="362" type="line"/>
      <point x="176" y="387" type="line"/>
      <point x="190" y="408" type="line"/>
      <point x="210" y="398" type="line"/>
      <point x="233" y="388" type="line"/>
      <point x="251" y="378" type="line"/>
      <point x="276" y="367" type="line"/>
      <point x="277" y="357" type="line"/>
      <point x="277" y="338" type="line"/>
      <point x="277" y="325" type="line"/>
      <point x="277" y="319"/>
      <point x="277" y="314"/>
      <point x="277" y="305" type="curve"/>
      <point x="277" y="286" type="line"/>
      <point x="278" y="259" type="line"/>
      <point x="278" y="238" type="line"/>
      <point x="278" y="225" type="line"/>
      <point x="278" y="206" type="line"/>
      <point x="267" y="192" type="line"/>
      <point x="246" y="165" type="line"/>
      <point x="225" y="138" type="line"/>
      <point x="213" y="123" type="line"/>
      <point x="194" y="137" type="line"/>
      <point x="179" y="154" type="line"/>
      <point x="165" y="174" type="line"/>
      <point x="160" y="206" type="line"/>
      <point x="161" y="230" type="line"/>
      <point x="162" y="262" type="line"/>
    </contour>
  </outline>
</glyph>
<glyph name="h" format="2">
  <advance width="500"/>
  <unicode hex="0068"/>
  <outline>
    <contour>
      <point x="202" y="748" type="line"/>
      <point x="153" y="722" type="line"/>
      <point x="102" y="695" type="line"/>
      <point x="80" y="682" type="line"/>
      <point x="63" y="674" type="line"/>
      <point x="41" y="663" type="line"/>
      <point x="49" y="650" type="line"/>
      <point x="52" y="642" type="line"/>
      <point x="56" y="633" type="line"/>
      <point x="59" y="625"/>
      <point x="64" y="604"/>
      <point x="64" y="592" type="curve"/>
      <point x="65" y="586" type="line"/>
      <point x="66" y="555" type="line"/>
      <point x="67" y="529" type="line"/>
      <point x="66" y="451" type="line"/>
      <point x="67" y="405" type="line"/>
      <point x="67" y="400"/>
      <point x="66" y="369"/>
      <point x="66" y="344" type="curve"/>
      <point x="65" y="249" type="line"/>
      <point x="63" y="190" type="line"/>
      <point x="56" y="173" type="line"/>
      <point x="12" y="119" type="line"/>
      <point x="31" y="102" type="line"/>
      <point x="49" y="88" type="line"/>
      <point x="67" y="73" type="line"/>
      <point x="85" y="59" type="line"/>
      <point x="105" y="44" type="line"/>
      <point x="127" y="27" type="line"/>
      <point x="154" y="8" type="line"/>
      <point x="171" y="25" type="line"/>
      <point x="188" y="46" type="line"/>
      <point x="208" y="68" type="line"/>
      <point x="238" y="101" type="line"/>
      <point x="263" y="127" type="line"/>
      <point x="238" y="141" type="line"/>
      <point x="218" y="155" type="line"/>
      <point x="205" y="162" type="line"/>
      <point x="188" y="176" type="line"/>
      <point x="184" y="192" type="line"/>
      <point x="184" y="250" type="line"/>
      <point x="185" y="315" type="line"/>
      <point x="186" y="405" type="line"/>
      <point x="194" y="397" type="line"/>
      <point x="213" y="380" type="line"/>
      <point x="226" y="367" type="line"/>
      <point x="253" y="331" type="line"/>
      <point x="280" y="284" type="line"/>
      <point x="293" y="252" type="line"/>
      <point x="301" y="225" type="line"/>
      <point x="310" y="174" type="line"/>
      <point x="313" y="125" type="line"/>
      <point x="310" y="82" type="line"/>
      <point x="303" y="44" type="line"/>
      <point x="299" y="24" type="line"/>
      <point x="293" y="5" type="line"/>
      <point x="283" y="-20" type="line"/>
      <point x="280" y="-27" type="line"/>
      <point x="274" y="-39" type="line"/>
      <point x="270" y="-49" type="line"/>
      <point x="267" y="-55" type="line"/>
      <point x="259" y="-69" type="line"/>
      <point x="246" y="-90" type="line"/>
      <point x="230" y="-111" type="line"/>
      <point x="203" y="-144" type="line"/>
      <point x="275" y="-167" type="line"/>
      <point x="286" y="-150" type="line"/>
      <point x="311" y="-109" type="line"/>
      <point x="322" y="-91" type="line"/>
      <point x="346" y="-43" type="line"/>
      <point x="356" y="-23" type="line"/>
      <point x="370" y="11" type="line"/>
      <point x="380" y="37" type="line"/>
      <point x="390" y="65" type="line"/>
      <point x="397" y="89" type="line"/>
      <point x="403" y="113" type="line"/>
      <point x="412" y="156" type="line"/>
      <point x="415" y="179" type="line"/>
      <point x="417" y="219" type="line"/>
      <point x="417" y="260" type="line"/>
      <point x="416" y="270" type="line"/>
      <point x="414" y="288" type="line"/>
      <point x="409" y="315" type="line"/>
      <point x="400" y="346" type="line"/>
      <point x="389" y="376" type="line"/>
      <point x="376" y="404" type="line"/>
      <point x="369" y="417" type="line"/>
      <point x="361" y="431" type="line"/>
      <point x="353" y="443" type="line"/>
      <point x="334" y="470" type="line"/>
      <point x="281" y="527" type="line"/>
      <point x="269" y="518" type="line"/>
      <point x="249" y="503" type="line"/>
      <point x="224" y="483" type="line"/>
      <point x="202" y="467" type="line"/>
      <point x="186" y="455" type="line"/>
      <point x="186" y="475" type="line"/>
      <point x="186" y="501" type="line"/>
      <point x="186" y="530" type="line"/>
      <point x="187" y="580" type="line"/>
      <point x="189" y="646" type="line"/>
      <point x="193" y="689" type="line"/>
      <point x="200" y="733" type="line"/>
    </contour>
  </outline>
</glyph>
<glyph name="i" format="2">
  <advance width="300"/>
  <unicode hex="0069"/>
  <outline>
    <contour>
      <point x="41" y="592" type="line"/>
      <point x="37" y="572" type="line"/>
      <point x="29" y="532" type="line"/>
      <point x="58" y="553" type="line"/>
      <point x="85" y="573" type="line"/>
      <point x="107" y="589" type="line"/>
      <point x="119" y="598" type="line"/>
      <point x="129" y="605" type="line"/>
      <point x="134" y="609" type="line"/>
      <point x="142" y="615" type="line"/>
      <point x="154" y="623" type="line"/>
      <point x="165" y="631" type="line"/>
      <point x="177" y="640" type="line"/>
      <point x="193" y="652" type="line"/>
      <point x="213" y="666" type="line"/>
      <point x="171" y="683" type="line"/>
      <point x="161" y="687" type="line"/>
      <point x="154" y="690" type="line"/>
      <point x="149" y="692" type="line"/>
      <point x="142" y="695" type="line"/>
      <point x="134" y="698" type="line"/>
      <point x="129" y="700" type="line"/>
      <point x="117" y="705" type="line"/>
      <point x="106" y="709" type="line"/>
      <point x="97" y="713" type="line"/>
      <point x="84" y="718" type="line"/>
      <point x="68" y="725" type="line"/>
      <point x="63" y="701" type="line"/>
      <point x="61" y="689" type="line"/>
      <point x="58" y="677" type="line"/>
      <point x="56" y="665" type="line"/>
      <point x="53" y="651" type="line"/>
      <point x="51" y="641" type="line"/>
      <point x="48" y="627" type="line"/>
    </contour>
    <contour>
      <point x="89" y="525" type="line"/>
      <point x="80" y="517" type="line"/>
      <point x="64" y="497" type="line"/>
      <point x="13" y="433" type="line"/>
      <point x="22" y="428" type="line"/>
      <point x="27" y="425" type="line"/>
      <point x="31" y="421" type="line"/>
      <point x="32" y="420" type="line"/>
      <point x="39" y="415" type="line"/>
      <point x="44" y="406" type="line"/>
      <point x="49" y="398" type="line"/>
      <point x="51" y="386" type="line"/>
      <point x="51" y="371" type="line"/>
      <point x="50" y="353" type="line"/>
      <point x="49" y="314" type="line"/>
      <point x="49" y="194" type="line"/>
      <point x="47" y="178" type="line"/>
      <point x="47" y="166" type="line"/>
      <point x="46" y="160" type="line"/>
      <point x="45" y="151" type="line"/>
      <point x="45" y="144" type="line"/>
      <point x="43" y="139" type="line"/>
      <point x="41" y="134" type="line"/>
      <point x="37" y="128" type="line"/>
      <point x="33" y="122" type="line"/>
      <point x="30" y="116" type="line"/>
      <point x="26" y="109" type="line"/>
      <point x="22" y="103" type="line"/>
      <point x="18" y="99" type="line"/>
      <point x="44" y="78" type="line"/>
      <point x="82" y="46" type="line"/>
      <point x="120" y="16" type="line"/>
      <point x="156" y="57" type="line"/>
      <point x="173" y="80" type="line"/>
      <point x="218" y="134" type="line"/>
      <point x="212" y="137" type="line"/>
      <point x="203" y="142" type="line"/>
      <point x="193" y="151" type="line"/>
      <point x="185" y="158" type="line"/>
      <point x="178" y="168" type="line"/>
      <point x="173" y="176" type="line"/>
      <point x="171" y="191" type="line"/>
      <point x="172" y="210" type="line"/>
      <point x="172" y="228" type="line"/>
      <point x="173" y="244" type="line"/>
      <point x="174" y="292" type="line"/>
      <point x="177" y="354" type="line"/>
      <point x="180" y="418" type="line"/>
      <point x="192" y="455" type="line"/>
      <point x="198" y="476" type="line"/>
      <point x="183" y="482" type="line"/>
      <point x="160" y="494" type="line"/>
      <point x="147" y="500" type="line"/>
      <point x="133" y="506" type="line"/>
      <point x="113" y="516" type="line"/>
    </contour>
  </outline>
</glyph>
<glyph name="n" format="2">
  <advance width="500"/>
  <unicode hex="006E"/>
  <outline>
    <contour>
      <point x="94" y="527" type="line"/>
      <point x="62" y="487" type="line"/>
      <point x="20" y="435" type="line"/>
      <point x="24" y="432" type="line"/>
      <point x="29" y="428" type="line"/>
      <point x="32" y="426" type="line"/>
      <point x="39" y="420" type="line"/>
      <point x="42" y="417" type="line"/>
      <point x="45" y="414" type="line"/>
      <point x="50" y="407" type="line"/>
      <point x="52" y="404" type="line"/>
      <point x="55" y="396" type="line"/>
      <point x="56" y="389" type="line"/>
      <point x="56" y="380" type="line"/>
      <point x="54" y="283" type="line"/>
      <point x="53" y="196" type="line"/>
      <point x="53" y="186" type="line"/>
      <point x="53" y="179" type="line"/>
      <point x="52" y="167" type="line"/>
      <point x="52" y="161" type="line"/>
      <point x="51" y="151" type="line"/>
      <point x="49" y="144" type="line"/>
      <point x="47" y="136" type="line"/>
      <point x="44" y="129" type="line"/>
      <point x="40" y="122" type="line"/>
      <point x="37" y="116" type="line"/>
      <point x="32" y="109" type="line"/>
      <point x="24" y="99" type="line"/>
      <point x="127" y="16" type="line"/>
      <point x="225" y="134" type="line"/>
      <point x="219" y="137" type="line"/>
      <point x="212" y="141" type="line"/>
      <point x="207" y="144" type="line"/>
      <point x="201" y="148" type="line"/>
      <point x="196" y="153" type="line"/>
      <point x="190" y="159" type="line"/>
      <point x="183" y="169" type="line"/>
      <point x="180" y="175" type="line"/>
      <point x="178" y="182" type="line"/>
      <point x="177" y="189" type="line"/>
      <point x="180" y="271" type="line"/>
      <point x="186" y="384" type="line"/>
      <point x="189" y="389" type="line"/>
      <point x="191" y="392" type="line"/>
      <point x="194" y="397" type="line"/>
      <point x="198" y="403" type="line"/>
      <point x="200" y="406" type="line"/>
      <point x="206" y="415" type="line"/>
      <point x="212" y="410" type="line"/>
      <point x="217" y="406" type="line"/>
      <point x="224" y="400" type="line"/>
      <point x="230" y="395" type="line"/>
      <point x="237" y="389" type="line"/>
      <point x="243" y="383" type="line"/>
      <point x="252" y="374" type="line"/>
      <point x="257" y="368" type="line"/>
      <point x="261" y="363" type="line"/>
      <point x="266" y="355" type="line"/>
      <point x="268" y="349" type="line"/>
      <point x="268" y="343" type="line"/>
      <point x="266" y="257" type="line"/>
      <point x="264" y="162" type="line"/>
      <point x="264" y="148" type="line"/>
      <point x="264" y="138" type="line"/>
      <point x="264" y="128" type="line"/>
      <point x="266" y="114" type="line"/>
      <point x="268" y="102" type="line"/>
      <point x="272" y="88" type="line"/>
      <point x="277" y="75" type="line"/>
      <point x="280" y="70" type="line"/>
      <point x="285" y="65" type="line"/>
      <point x="296" y="52" type="line"/>
      <point x="307" y="41" type="line"/>
      <point x="322" y="29" type="line"/>
      <point x="339" y="15" type="line"/>
      <point x="385" y="72" type="line"/>
      <point x="437" y="134" type="line"/>
      <point x="431" y="137" type="line"/>
      <point x="426" y="140" type="line"/>
      <point x="417" y="146" type="line"/>
      <point x="410" y="151" type="line"/>
      <point x="405" y="156" type="line"/>
      <point x="400" y="162" type="line"/>
      <point x="395" y="170" type="line"/>
      <point x="393" y="174" type="line"/>
      <point x="391" y="181" type="line"/>
      <point x="390" y="188" type="line"/>
      <point x="389" y="200" type="line"/>
      <point x="390" y="219" type="line"/>
      <point x="392" y="275" type="line"/>
      <point x="396" y="357" type="line"/>
      <point x="397" y="363" type="line"/>
      <point x="399" y="371" type="line"/>
      <point x="402" y="382" type="line"/>
      <point x="404" y="390" type="line"/>
      <point x="407" y="402" type="line"/>
      <point x="410" y="414" type="line"/>
      <point x="389" y="430" type="line"/>
      <point x="371" y="443" type="line"/>
      <point x="353" y="456" type="line"/>
      <point x="336" y="468" type="line"/>
      <point x="317" y="482" type="line"/>
      <point x="303" y="492" type="line"/>
      <point x="291" y="501" type="line"/>
      <point x="277" y="511" type="line"/>
      <point x="254" y="527" type="line"/>
      <point x="246" y="517" type="line"/>
      <point x="237" y="506" type="line"/>
      <point x="229" y="496" type="line"/>
      <point x="222" y="487" type="line"/>
      <point x="214" y="477" type="line"/>
      <point x="209" y="471" type="line"/>
      <point x="200" y="460" type="line"/>
      <point x="197" y="456" type="line"/>
      <point x="193" y="459" type="line"/>
      <point x="180" y="468" type="line"/>
      <point x="170" y="475" type="line"/>
      <point x="148" y="490" type="line"/>
      <point x="135" y="499" type="line"/>
      <point x="122" y="508" type="line"/>
      <point x="109" y="517" type="line"/>
    </contour>
  </outline>
</glyph>
<glyph name="o" format="2">
  <advance width="450"/>
  <unicode hex="006F"/>
  <outline>
    <contour>
      <point x="227" y="529" type="line"/>
      <point x="206" y="510" type="line"/>
      <point x="175" y="488" type="line"/>
      <point x="139" y="462" type="line"/>
      <point x="110" y="438" type="line"/>
      <point x="76" y="414" type="line"/>
      <point x="39" y="391" type="line"/>
      <point x="42" y="381" type="line"/>
      <point x="45" y="360" type="line"/>
      <point x="47" y="321" type="line"/>
      <point x="47" y="299" type="line"/>
      <point x="47" y="270" type="line"/>
      <point x="47" y="245" type="line"/>
      <point x="47" y="221" type="line"/>
      <point x="45" y="199" type="line"/>
      <point x="37" y="168" type="line"/>
      <point x="30" y="146" type="line"/>
      <point x="22" y="127" type="line"/>
      <point x="14" y="110" type="line"/>
      <point x="30" y="102" type="line"/>
      <point x="60" y="87" type="line"/>
      <point x="93" y="71" type="line"/>
      <point x="133" y="51" type="line"/>
      <point x="183" y="27" type="line"/>
      <point x="223" y="7" type="line"/>
      <point x="246" y="36" type="line"/>
      <point x="270" y="67" type="line"/>
      <point x="294" y="97" type="line"/>
      <point x="323" y="133" type="line"/>
      <point x="348" y="167" type="line"/>
      <point x="369" y="192" type="line"/>
      <point x="391" y="221" type="line"/>
      <point x="400" y="238" type="line"/>
      <point x="403" y="270" type="line"/>
      <point x="400" y="295" type="line"/>
      <point x="393" y="325" type="line"/>
      <point x="382" y="355" type="line"/>
      <point x="370" y="381" type="line"/>
      <point x="359" y="400" type="line"/>
      <point x="347" y="419" type="line"/>
      <point x="333" y="437" type="line"/>
      <point x="320" y="454" type="line"/>
      <point x="302" y="474" type="line"/>
      <point x="283" y="493" type="line"/>
      <point x="261" y="511" type="line"/>
    </contour>
    <contour>
      <point x="170" y="408" type="line"/>
      <point x="180" y="404" type="line"/>
      <point x="197" y="395" type="line"/>
      <point x="212" y="385" type="line"/>
      <point x="225" y="374" type="line"/>
      <point x="238" y="360" type="line"/>
      <point x="250" y="344" type="line"/>
      <point x="261" y="328" type="line"/>
      <point x="273" y="303" type="line"/>
      <point x="281" y="280" type="line"/>
      <point x="290" y="251" type="line"/>
      <point x="294" y="232" type="line"/>
      <point x="297" y="212" type="line"/>
      <point x="297" y="192" type="line"/>
      <point x="292" y="178" type="line"/>
      <point x="284" y="166" type="line"/>
      <point x="274" y="158" type="line"/>
      <point x="261" y="152" type="line"/>
      <point x="246" y="150" type="line"/>
      <point x="227" y="153" type="line"/>
      <point x="212" y="159" type="line"/>
      <point x="196" y="167" type="line"/>
      <point x="184" y="175" type="line"/>
      <point x="173" y="188" type="line"/>
      <point x="169" y="200" type="line"/>
      <point x="169" y="234" type="line"/>
      <point x="169" y="249" type="line"/>
      <point x="170" y="272" type="line"/>
      <point x="170" y="288" type="line"/>
      <point x="170" y="305" type="line"/>
      <point x="170" y="320" type="line"/>
      <point x="170" y="338" type="line"/>
      <point x="170" y="357" type="line"/>
      <point x="170" y="372" type="line"/>
      <point x="170" y="381" type="line"/>
    </contour>
  </outline>
</glyph>
<glyph name="s" format="2">
  <advance width="500"/>
  <unicode hex="0073"/>
  <outline>
    <contour>
      <point x="334" y="390" type="line"/>
      <point x="426" y="484" type="line"/>
      <point x="411" y="481" type="line"/>
      <point x="304" y="501" type="line"/>
      <point x="279" y="507"/>
      <point x="247" y="515"/>
      <point x="206" y="527" type="curve" smooth="yes"/>
      <point x="205" y="527"/>
      <point x="160" y="495"/>
      <point x="129" y="459" type="curve" smooth="yes"/>
      <point x="97" y="422"/>
      <point x="39" y="358"/>
      <point x="36" y="337" type="curve" smooth="yes"/>
      <point x="31" y="296"/>
      <point x="100" y="191"/>
      <point x="114" y="172" type="curve" smooth="yes"/>
      <point x="125" y="156"/>
      <point x="242" y="306"/>
      <point x="250" y="302" type="curve" smooth="yes"/>
      <point x="269" y="291"/>
      <point x="301" y="227"/>
      <point x="309" y="211" type="curve" smooth="yes"/>
      <point x="334" y="162"/>
      <point x="311" y="144"/>
      <point x="301" y="143" type="curve" smooth="yes"/>
      <point x="264" y="139"/>
      <point x="237" y="140"/>
      <point x="234" y="141" type="curve" smooth="yes"/>
      <point x="205" y="146"/>
      <point x="157" y="174"/>
      <point x="136" y="180" type="curve" smooth="yes"/>
      <point x="131" y="181"/>
      <point x="110" y="194"/>
      <point x="97" y="195" type="curve"/>
      <point x="13" y="108" type="line"/>
      <point x="104" y="80" type="line"/>
      <point x="165" y="56" type="line"/>
      <point x="171" y="54"/>
      <point x="199" y="40"/>
      <point x="245" y="16" type="curve" smooth="yes"/>
      <point x="246" y="15"/>
      <point x="347" y="151"/>
      <point x="413" y="188" type="curve" smooth="yes"/>
      <point x="415" y="189"/>
      <point x="342" y="364"/>
      <point x="334" y="390" type="curve" smooth="yes"/>
      <point x="334" y="390"/>
      <point x="288" y="392"/>
      <point x="288" y="392" type="curve" smooth="yes"/>
      <point x="284" y="390"/>
      <point x="195" y="293"/>
      <point x="193" y="296" type="curve" smooth="yes"/>
      <point x="181" y="313"/>
      <point x="131" y="381"/>
      <point x="143" y="409" type="curve" smooth="yes"/>
      <point x="145" y="415"/>
      <point x="180" y="419"/>
      <point x="203" y="413" type="curve" smooth="yes"/>
      <point x="225" y="408"/>
      <point x="223" y="408"/>
      <point x="251" y="402" type="curve" smooth="yes"/>
      <point x="270" y="398"/>
      <point x="275" y="396"/>
      <point x="288" y="392" type="curve"/>
    </contour>
  </outline>
</glyph>
<glyph name="t" format="2">
  <advance width="300"/>
  <unicode hex="0074"/>
  <outline>
    <contour>
      <point x="214" y="707" type="curve"/>
      <point x="190" y="712" type="line"/>
      <point x="183" y="693"/>
      <point x="91" y="551"/>
      <point x="24" y="468" type="curve"/>
      <point x="24" y="454"/>
      <point x="24" y="447"/>
      <point x="23" y="430" type="curve"/>
      <point x="65" y="429" type="line"/>
      <point x="63" y="217" type="line"/>
      <point x="54" y="167"/>
      <point x="41" y="155"/>
      <point x="9" y="126" type="curve"/>
      <point x="152" y="15" type="line"/>
      <point x="219" y="91"/>
      <point x="227" y="95"/>
      <point x="261" y="134" type="curve"/>
      <point x="254" y="139" type="line"/>
      <point x="219" y="160"/>
      <point x="185" y="176"/>
      <point x="185" y="193" type="curve"/>
      <point x="183" y="300"/>
      <point x="183" y="335"/>
      <point x="184" y="430" type="curve"/>
      <point x="272" y="430" type="line"/>
      <point x="272" y="444"/>
      <point x="273" y="506"/>
      <point x="273" y="535" type="curve"/>
      <point x="250" y="535"/>
      <point x="186" y="533"/>
      <point x="186" y="535" type="curve" smooth="yes"/>
      <point x="187" y="589"/>
      <point x="195" y="614"/>
    </contour>
  </outline>
</glyph>
<glyph name="u" format="2">
  <advance width="500"/>
  <unicode hex="0075"/>
  <outline>
    <contour>
      <point x="203" y="476" type="curve"/>
      <point x="95" y="526" type="line"/>
      <point x="22" y="436" type="line"/>
      <point x="58" y="401"/>
      <point x="52" y="407"/>
      <point x="57" y="369" type="curve"/>
      <point x="58" y="330"/>
      <point x="54" y="393"/>
      <point x="54" y="177" type="curve"/>
      <point x="57" y="148"/>
      <point x="40" y="118"/>
      <point x="26" y="97" type="curve"/>
      <point x="69" y="63"/>
      <point x="77" y="57"/>
      <point x="128" y="15" type="curve"/>
      <point x="150" y="29"/>
      <point x="205" y="73"/>
      <point x="255" y="108" type="curve"/>
      <point x="308" y="61"/>
      <point x="329" y="43"/>
      <point x="329" y="43" type="curve" smooth="yes"/>
      <point x="343" y="31"/>
      <point x="348" y="26"/>
      <point x="361" y="14" type="curve"/>
      <point x="365" y="18" type="line"/>
      <point x="458" y="135" type="line"/>
      <point x="421" y="154"/>
      <point x="413" y="165"/>
      <point x="411" y="197" type="curve"/>
      <point x="412" y="222"/>
      <point x="410" y="234"/>
      <point x="415" y="333" type="curve"/>
      <point x="419" y="402"/>
      <point x="410" y="400"/>
      <point x="437" y="476" type="curve"/>
      <point x="328" y="527" type="line"/>
      <point x="254" y="434" type="line"/>
      <point x="305" y="407"/>
      <point x="287" y="385"/>
      <point x="289" y="329" type="curve"/>
      <point x="288" y="310"/>
      <point x="289" y="302"/>
      <point x="286" y="187" type="curve"/>
      <point x="260" y="167"/>
      <point x="256" y="161"/>
      <point x="245" y="155" type="curve"/>
      <point x="223" y="142"/>
      <point x="209" y="138"/>
      <point x="196" y="149" type="curve"/>
      <point x="159" y="221"/>
      <point x="186" y="136"/>
      <point x="181" y="348" type="curve"/>
      <point x="183" y="389"/>
      <point x="181" y="419"/>
    </contour>
  </outline>
</glyph>
<glyph name="w" format="2">
  <advance width="650"/>
  <unicode hex="0077"/>
  <outline>
    <contour>
      <point x="92" y="526" type="curve"/>
      <point x="56" y="480" type="line"/>
      <point x="19" y="429" type="line"/>
      <point x="39" y="414"/>
      <point x="49" y="417"/>
      <point x="59" y="394" type="curve"/>
      <point x="66" y="379"/>
      <point x="52" y="291"/>
      <point x="59" y="197" type="curve"/>
      <point x="63" y="182"/>
      <point x="16" y="128"/>
      <point x="28" y="123" type="curve"/>
      <point x="46" y="124"/>
      <point x="175" y="26"/>
      <point x="196" y="16" type="curve"/>
      <point x="223" y="44"/>
      <point x="226" y="47"/>
      <point x="244" y="66" type="curve"/>
      <point x="260" y="83"/>
      <point x="265" y="88"/>
      <point x="279" y="102" type="curve"/>
      <point x="323" y="74"/>
      <point x="325" y="75"/>
      <point x="369" y="47" type="curve"/>
      <point x="394" y="33"/>
      <point x="403" y="27"/>
      <point x="441" y="7" type="curve"/>
      <point x="453" y="21"/>
      <point x="479" y="60"/>
      <point x="491" y="75" type="curve"/>
      <point x="507" y="98"/>
      <point x="519" y="116"/>
      <point x="533" y="134" type="curve"/>
      <point x="543" y="151"/>
      <point x="591" y="205"/>
      <point x="603" y="240" type="curve"/>
      <point x="623" y="294"/>
      <point x="572" y="384"/>
      <point x="563" y="408" type="curve"/>
      <point x="541" y="450"/>
      <point x="488" y="505"/>
      <point x="448" y="530" type="curve"/>
      <point x="385" y="443" type="line"/>
      <point x="386" y="373" type="line"/>
      <point x="405" y="394" type="line"/>
      <point x="443" y="378"/>
      <point x="528" y="257"/>
      <point x="511" y="190" type="curve"/>
      <point x="502" y="169"/>
      <point x="507" y="161"/>
      <point x="472" y="147" type="curve"/>
      <point x="414" y="166"/>
      <point x="444" y="152"/>
      <point x="380" y="179" type="curve"/>
      <point x="373" y="235"/>
      <point x="392" y="366"/>
      <point x="384" y="443" type="curve"/>
      <point x="330" y="480"/>
      <point x="329" y="490"/>
      <point x="270" y="526" type="curve"/>
      <point x="195" y="443" type="line"/>
      <point x="215" y="396" type="line"/>
      <point x="305" y="356"/>
      <point x="260" y="157"/>
      <point x="253" y="148" type="curve"/>
      <point x="237" y="161"/>
      <point x="207" y="158"/>
      <point x="179" y="203" type="curve"/>
      <point x="176" y="211"/>
      <point x="183" y="241"/>
      <point x="184" y="357" type="curve"/>
      <point x="188" y="377"/>
      <point x="205" y="385"/>
      <point x="214" y="396" type="curve"/>
      <point x="223" y="454"/>
      <point x="145" y="472"/>
    </contour>
  </outline>
</glyph>
<glyph name="x" format="2">
  <advance width="420"/>
  <unicode hex="0078"/>
  <outline>
    <contour>
      <point x="139" y="520" type="line"/>
      <point x="135" y="527" type="line"/>
      <point x="101" y="510"/>
      <point x="60" y="482"/>
      <point x="15" y="423" type="curve"/>
      <point x="13" y="419" type="line"/>
      <point x="85" y="430"/>
      <point x="78" y="391"/>
      <point x="135" y="306" type="curve"/>
      <point x="72" y="198" type="line"/>
      <point x="50" y="154"/>
      <point x="15" y="61"/>
      <point x="5" y="17" type="curve"/>
      <point x="29" y="28" type="line"/>
      <point x="56" y="44"/>
      <point x="107" y="67"/>
      <point x="134" y="69" type="curve"/>
      <point x="129" y="137" type="line"/>
      <point x="126" y="165"/>
      <point x="133" y="195"/>
      <point x="142" y="225" type="curve"/>
      <point x="159" y="260" type="line"/>
      <point x="166" y="253"/>
      <point x="176" y="222"/>
      <point x="207" y="166" type="curve"/>
      <point x="228" y="118" type="line"/>
      <point x="239" y="98"/>
      <point x="250" y="78"/>
      <point x="273" y="15" type="curve"/>
      <point x="346" y="80" type="line"/>
      <point x="400" y="139" type="line"/>
      <point x="374" y="146"/>
      <point x="354" y="142"/>
      <point x="325" y="194" type="curve"/>
      <point x="271" y="277" type="line"/>
      <point x="250" y="312"/>
      <point x="240" y="332"/>
      <point x="223" y="361" type="curve"/>
      <point x="267" y="416" type="line"/>
      <point x="296" y="406"/>
      <point x="289" y="407"/>
      <point x="337" y="366" type="curve"/>
      <point x="399" y="476" type="line"/>
      <point x="339" y="503"/>
      <point x="312" y="519"/>
      <point x="309" y="517" type="curve"/>
      <point x="288" y="526" type="line"/>
      <point x="281" y="512"/>
      <point x="246" y="477"/>
      <point x="248" y="475" type="curve"/>
      <point x="199" y="405" type="line"/>
      <point x="183" y="435"/>
      <point x="178" y="442"/>
      <point x="174" y="451" type="curve"/>
      <point x="162" y="475" type="line"/>
    </contour>
  </outline>
</glyph>
<glyph name="z" format="2">
  <advance width="530"/>
  <unicode hex="007A"/>
  <outline>
    <contour>
      <point x="68" y="537" type="curve"/>
      <point x="37" y="384" type="line"/>
      <point x="52" y="389"/>
      <point x="98" y="399"/>
      <point x="98" y="399" type="curve" smooth="yes"/>
      <point x="115" y="403"/>
      <point x="173" y="412"/>
      <point x="219" y="406" type="curve"/>
      <point x="224" y="404" type="line"/>
      <point x="202" y="383"/>
      <point x="186" y="368"/>
      <point x="104" y="277" type="curve"/>
      <point x="138" y="256"/>
      <point x="171" y="245"/>
      <point x="189" y="225" type="curve" smooth="yes"/>
      <point x="287" y="115"/>
      <point x="273" y="90"/>
      <point x="273" y="91" type="curve"/>
      <point x="292" y="-48"/>
      <point x="173" y="-98"/>
      <point x="140" y="-81" type="curve" smooth="yes"/>
      <point x="41" y="-31"/>
      <point x="87" y="49"/>
      <point x="91" y="57" type="curve" smooth="yes"/>
      <point x="139" y="159"/>
      <point x="213" y="154"/>
      <point x="247" y="157" type="curve" smooth="yes"/>
      <point x="270" y="159"/>
      <point x="197" y="229"/>
      <point x="185" y="222" type="curve" smooth="yes"/>
      <point x="102" y="171"/>
      <point x="69" y="131"/>
      <point x="33" y="37" type="curve"/>
      <point x="23" y="-14" type="line"/>
      <point x="-15" y="-255"/>
      <point x="214" y="-131"/>
      <point x="218" y="-128" type="curve" smooth="yes"/>
      <point x="413" y="39"/>
      <point x="389" y="201"/>
      <point x="295" y="321" type="curve"/>
      <point x="242" y="373" type="line"/>
      <point x="359" y="520" type="line"/>
      <point x="339" y="520"/>
      <point x="157" y="494"/>
    </contour>
  </outline>
</glyph>
<glyph name="braceleft" format="2">
  <advance width="374"/>
  <unicode hex="007B"/>
  <outline>
    <contour>
      <point x="321" y="-25" type="curve"/>
      <point x="324" y="-6" type="line"/>
      <point x="324" y="17"/>
      <point x="263" y="-21"/>
      <point x="231" y="34" type="curve" smooth="yes"/>
      <point x="214" y="64"/>
      <point x="228" y="80"/>
      <point x="227" y="177" type="curve" smooth="yes"/>
      <point x="227" y="192"/>
      <point x="225" y="243"/>
      <point x="224" y="262" type="curve" smooth="yes"/>
      <point x="223" y="275"/>
      <point x="214" y="332"/>
      <point x="175" y="348" type="curve"/>
      <point x="149" y="361" type="line"/>
      <point x="206" y="365"/>
      <point x="225" y="422"/>
      <point x="226" y="426" type="curve" smooth="yes"/>
      <point x="233" y="447"/>
      <point x="230" y="529"/>
      <point x="229" y="546" type="curve" smooth="yes"/>
      <point x="228" y="563"/>
      <point x="223" y="657"/>
      <point x="228" y="679" type="curve" smooth="yes"/>
      <point x="240" y="732"/>
      <point x="316" y="702"/>
      <point x="320" y="722" type="curve"/>
      <point x="321" y="740" type="line"/>
      <point x="309" y="761"/>
      <point x="229" y="749"/>
      <point x="194" y="747" type="curve" smooth="yes"/>
      <point x="174" y="746"/>
      <point x="143" y="724"/>
      <point x="129" y="690" type="curve" smooth="yes"/>
      <point x="122" y="672"/>
      <point x="152" y="487"/>
      <point x="122" y="412" type="curve" smooth="yes"/>
      <point x="99" y="354"/>
      <point x="65" y="383"/>
      <point x="51" y="363" type="curve"/>
      <point x="50" y="356" type="line"/>
      <point x="91" y="324"/>
      <point x="105" y="354"/>
      <point x="122" y="286" type="curve" smooth="yes"/>
      <point x="131" y="251"/>
      <point x="123" y="143"/>
      <point x="125" y="120" type="curve" smooth="yes"/>
      <point x="127" y="96"/>
      <point x="118" y="43"/>
      <point x="144" y="0" type="curve" smooth="yes"/>
      <point x="161" y="-29"/>
      <point x="326" y="-52"/>
    </contour>
  </outline>
</glyph>
<glyph name="bar" format="2">
  <advance width="269"/>
  <unicode hex="007C"/>
  <outline>
    <contour>
      <point x="100" y="756" type="line"/>
      <point x="100" y="-5" type="line"/>
      <point x="169" y="-5" type="line"/>
      <point x="169" y="756" type="line"/>
    </contour>
  </outline>
</glyph>
<glyph name="braceright" format="2">
  <advance width="374"/>
  <unicode hex="007D"/>
  <outline>
    <contour>
      <point x="53" y="740" type="curve"/>
      <point x="50" y="721" type="line"/>
      <point x="50" y="698"/>
      <point x="111" y="736"/>
      <point x="143" y="681" type="curve" smooth="yes"/>
      <point x="160" y="651"/>
      <point x="146" y="635"/>
      <point x="147" y="538" type="curve" smooth="yes"/>
      <point x="147" y="523"/>
      <point x="149" y="472"/>
      <point x="150" y="453" type="curve" smooth="yes"/>
      <point x="151" y="440"/>
      <point x="160" y="383"/>
      <point x="199" y="367" type="curve"/>
      <point x="225" y="354" type="line"/>
      <point x="168" y="350"/>
      <point x="149" y="293"/>
      <point x="148" y="289" type="curve" smooth="yes"/>
      <point x="141" y="268"/>
      <point x="144" y="186"/>
      <point x="145" y="169" type="curve" smooth="yes"/>
      <point x="146" y="152"/>
      <point x="151" y="58"/>
      <point x="146" y="36" type="curve" smooth="yes"/>
      <point x="134" y="-17"/>
      <point x="58" y="13"/>
      <point x="54" y="-7" type="curve"/>
      <point x="53" y="-25" type="line"/>
      <point x="65" y="-46"/>
      <point x="145" y="-34"/>
      <point x="180" y="-32" type="curve" smooth="yes"/>
      <point x="200" y="-31"/>
      <point x="231" y="-9"/>
      <point x="245" y="25" type="curve" smooth="yes"/>
      <point x="252" y="43"/>
      <point x="222" y="228"/>
      <point x="252" y="303" type="curve" smooth="yes"/>
      <point x="275" y="361"/>
      <point x="309" y="332"/>
      <point x="323" y="352" type="curve"/>
      <point x="324" y="359" type="line"/>
      <point x="283" y="391"/>
      <point x="269" y="361"/>
      <point x="252" y="429" type="curve" smooth="yes"/>
      <point x="243" y="464"/>
      <point x="251" y="572"/>
      <point x="249" y="595" type="curve" smooth="yes"/>
      <point x="247" y="619"/>
      <point x="256" y="672"/>
      <point x="230" y="715" type="curve" smooth="yes"/>
      <point x="213" y="744"/>
      <point x="48" y="767"/>
    </contour>
  </outline>
</glyph>
<glyph name="asciitilde" format="2">
  <advance width="336"/>
  <unicode hex="007E"/>
  <outline>
    <contour>
      <point x="92" y="410" type="line"/>
      <point x="88" y="408" type="line"/>
      <point x="82" y="401"/>
      <point x="67" y="385"/>
      <point x="64" y="381" type="qcurve" smooth="yes"/>
      <point x="60" y="374"/>
      <point x="54" y="374" type="qcurve" smooth="yes"/>
      <point x="50" y="374" type="line" smooth="yes"/>
      <point x="35" y="374"/>
      <point x="29" y="384" type="qcurve"/>
      <point x="27" y="386"/>
      <point x="27" y="391"/>
      <point x="31" y="400" type="qcurve" smooth="yes"/>
      <point x="42" y="425"/>
      <point x="81" y="470" type="qcurve"/>
      <point x="85" y="474"/>
      <point x="87" y="475" type="qcurve" smooth="yes"/>
      <point x="104" y="487"/>
      <point x="114" y="486"/>
      <point x="115" y="486"/>
      <point x="116" y="486" type="qcurve"/>
      <point x="108" y="476" type="line"/>
      <point x="119" y="485" type="line"/>
      <point x="120" y="486" type="line"/>
      <point x="238" y="437" type="line"/>
      <point x="241" y="437" type="line" smooth="yes"/>
      <point x="246" y="437"/>
      <point x="255" y="439" type="qcurve"/>
      <point x="259" y="443"/>
      <point x="267" y="457"/>
      <point x="270" y="462" type="qcurve" smooth="yes"/>
      <point x="275" y="472"/>
      <point x="283" y="469" type="qcurve" smooth="yes"/>
      <point x="302" y="463" type="line" smooth="yes"/>
      <point x="309" y="461"/>
      <point x="309" y="454" type="qcurve" smooth="yes"/>
      <point x="309" y="441"/>
      <point x="250" y="375" type="qcurve"/>
      <point x="239" y="358"/>
      <point x="223" y="358" type="qcurve" smooth="yes"/>
      <point x="216" y="358" type="line" smooth="yes"/>
      <point x="210" y="358"/>
      <point x="195" y="365"/>
      <point x="182" y="370"/>
      <point x="171" y="375"/>
      <point x="168" y="376"/>
      <point x="156" y="380" type="qcurve" smooth="yes"/>
      <point x="128" y="391"/>
      <point x="95" y="409" type="qcurve"/>
    </contour>
  </outline>
</glyph>
<glyph name="currency" format="2">
  <advance width="500"/>
  <unicode hex="00A4"/>
  <outline>
    <contour>
      <point x="444" y="576" type="line"/>
      <point x="357" y="490" type="line"/>
      <point x="325" y="506"/>
      <point x="297" y="518"/>
      <point x="250" y="518" type="curve" smooth="yes"/>
      <point x="224" y="518"/>
      <point x="196" y="515"/>
      <point x="150" y="491" type="curve"/>
      <point x="56" y="577" type="line"/>
      <point x="12" y="530" type="line"/>
      <point x="100" y="447" type="line"/>
      <point x="80" y="424"/>
      <point x="61" y="382"/>
      <point x="60" y="346" type="curve" smooth="yes"/>
      <point x="60" y="321"/>
      <point x="52" y="296"/>
      <point x="98" y="231" type="curve"/>
      <point x="11" y="146" type="line"/>
      <point x="55" y="99" type="line"/>
      <point x="142" y="188" type="line"/>
      <point x="190" y="158"/>
      <point x="215" y="156"/>
      <point x="254" y="157" type="curve" smooth="yes"/>
      <point x="292" y="158"/>
      <point x="301" y="161"/>
      <point x="353" y="184" type="curve"/>
      <point x="446" y="100" type="line"/>
      <point x="490" y="148" type="line"/>
      <point x="403" y="229" type="line"/>
      <point x="436" y="262"/>
      <point x="442" y="318"/>
      <point x="442" y="341" type="curve" smooth="yes"/>
      <point x="442" y="381"/>
      <point x="436" y="407"/>
      <point x="404" y="451" type="curve"/>
      <point x="489" y="532" type="line"/>
    </contour>
    <contour>
      <point x="351" y="337" type="curve" smooth="yes"/>
      <point x="353" y="271"/>
      <point x="317" y="229"/>
      <point x="248" y="228" type="curve" smooth="yes"/>
      <point x="191" y="227"/>
      <point x="155" y="274"/>
      <point x="152" y="330" type="curve" smooth="yes"/>
      <point x="148" y="409"/>
      <point x="203" y="447"/>
      <point x="250" y="446" type="curve" smooth="yes"/>
      <point x="332" y="443"/>
      <point x="351" y="385"/>
    </contour>
  </outline>
</glyph>
<glyph name="yen" format="2">
  <advance width="550"/>
  <unicode hex="00A5"/>
  <outline>
    <contour>
      <point x="242" y="666" type="line"/>
      <point x="32" y="667" type="line"/>
      <point x="36" y="631" type="line"/>
      <point x="55" y="633"/>
      <point x="65" y="633"/>
      <point x="78" y="634" type="curve" smooth="yes"/>
      <point x="79" y="634"/>
      <point x="80" y="631"/>
      <point x="176" y="404" type="curve"/>
      <point x="63" y="404" type="line"/>
      <point x="63" y="362" type="line"/>
      <point x="193" y="361" type="line"/>
      <point x="223" y="293" type="line"/>
      <point x="222" y="253" type="line"/>
      <point x="63" y="251" type="line"/>
      <point x="63" y="211" type="line"/>
      <point x="221" y="210" type="line"/>
      <point x="223" y="141"/>
      <point x="221" y="98"/>
      <point x="222" y="34" type="curve" smooth="yes"/>
      <point x="222" y="34"/>
      <point x="194" y="32"/>
      <point x="162" y="32" type="curve"/>
      <point x="163" y="0" type="line"/>
      <point x="386" y="0" type="line"/>
      <point x="385" y="34" type="line"/>
      <point x="361" y="33"/>
      <point x="327" y="32"/>
      <point x="327" y="33" type="curve" smooth="yes"/>
      <point x="325" y="97"/>
      <point x="328" y="146"/>
      <point x="325" y="211" type="curve"/>
      <point x="481" y="210" type="line"/>
      <point x="483" y="252" type="line"/>
      <point x="326" y="252" type="line"/>
      <point x="326" y="316" type="line"/>
      <point x="345" y="362" type="line"/>
      <point x="480" y="360" type="line"/>
      <point x="482" y="404" type="line"/>
      <point x="362" y="404" type="line"/>
      <point x="432" y="572" type="line"/>
      <point x="467" y="630"/>
      <point x="455" y="633"/>
      <point x="510" y="633" type="curve"/>
      <point x="510" y="666" type="line"/>
      <point x="350" y="667" type="line"/>
      <point x="350" y="633" type="line"/>
      <point x="414" y="640"/>
      <point x="405" y="605"/>
      <point x="401" y="586" type="curve"/>
      <point x="311" y="364" type="line"/>
      <point x="308" y="371" type="line"/>
      <point x="197" y="633" type="line"/>
      <point x="218" y="632"/>
      <point x="227" y="633"/>
      <point x="242" y="633" type="curve"/>
    </contour>
  </outline>
</glyph>
<glyph name="section" format="2">
  <advance width="500"/>
  <unicode hex="00A7"/>
  <outline>
    <contour>
      <point x="382" y="518" type="curve"/>
      <point x="411" y="518"/>
      <point x="443" y="547"/>
      <point x="435" y="592" type="curve" smooth="yes"/>
      <point x="421" y="660"/>
      <point x="340" y="695"/>
      <point x="271" y="695" type="curve" smooth="yes"/>
      <point x="149" y="693"/>
      <point x="91" y="637"/>
      <point x="79" y="590" type="curve" smooth="yes"/>
      <point x="71" y="554"/>
      <point x="76" y="470"/>
      <point x="142" y="419" type="curve"/>
      <point x="111" y="406" type="line"/>
      <point x="43" y="370"/>
      <point x="26" y="257"/>
      <point x="81" y="205" type="curve" smooth="yes"/>
      <point x="149" y="141"/>
      <point x="222" y="105"/>
      <point x="258" y="91" type="curve" smooth="yes"/>
      <point x="324" y="66"/>
      <point x="384" y="20"/>
      <point x="384" y="-19" type="curve" smooth="yes"/>
      <point x="384" y="-48"/>
      <point x="394" y="-112"/>
      <point x="265" y="-121" type="curve" smooth="yes"/>
      <point x="214" y="-124"/>
      <point x="146" y="-109"/>
      <point x="129" y="-83" type="curve" smooth="yes"/>
      <point x="115" y="-62"/>
      <point x="154" y="-53"/>
      <point x="167" y="-14" type="curve" smooth="yes"/>
      <point x="178" y="21"/>
      <point x="136" y="52"/>
      <point x="108" y="51" type="curve" smooth="yes"/>
      <point x="50" y="50"/>
      <point x="43" y="-4"/>
      <point x="49" y="-41" type="curve" smooth="yes"/>
      <point x="54" y="-75"/>
      <point x="96" y="-115"/>
      <point x="119" y="-130" type="curve" smooth="yes"/>
      <point x="143" y="-144"/>
      <point x="202" y="-162"/>
      <point x="265" y="-160" type="curve" smooth="yes"/>
      <point x="333" y="-157"/>
      <point x="399" y="-131"/>
      <point x="431" y="-83" type="curve" smooth="yes"/>
      <point x="440" y="-69"/>
      <point x="456" y="-46"/>
      <point x="459" y="-10" type="curve" smooth="yes"/>
      <point x="463" y="32"/>
      <point x="439" y="88"/>
      <point x="388" y="129" type="curve"/>
      <point x="414" y="147" type="line"/>
      <point x="462" y="191"/>
      <point x="480" y="248"/>
      <point x="464" y="293" type="curve" smooth="yes"/>
      <point x="443" y="351"/>
      <point x="418" y="367"/>
      <point x="384" y="393" type="curve" smooth="yes"/>
      <point x="355" y="417"/>
      <point x="262" y="463"/>
      <point x="239" y="475" type="curve" smooth="yes"/>
      <point x="216" y="487"/>
      <point x="163" y="509"/>
      <point x="150" y="565" type="curve" smooth="yes"/>
      <point x="140" y="609"/>
      <point x="170" y="654"/>
      <point x="234" y="659" type="curve" smooth="yes"/>
      <point x="268" y="661"/>
      <point x="341" y="651"/>
      <point x="345" y="622" type="curve" smooth="yes"/>
      <point x="350" y="593"/>
      <point x="322" y="605"/>
      <point x="320" y="571" type="curve" smooth="yes"/>
      <point x="318" y="534"/>
      <point x="335" y="525"/>
    </contour>
    <contour>
      <point x="187" y="394" type="curve"/>
      <point x="247" y="369"/>
      <point x="271" y="352"/>
      <point x="308" y="332" type="curve" smooth="yes"/>
      <point x="345" y="311"/>
      <point x="389" y="277"/>
      <point x="396" y="241" type="curve" smooth="yes"/>
      <point x="407" y="182"/>
      <point x="348" y="158"/>
      <point x="347" y="158" type="curve" smooth="yes"/>
      <point x="330" y="163"/>
      <point x="329" y="163"/>
      <point x="299" y="177" type="curve" smooth="yes"/>
      <point x="263" y="193"/>
      <point x="226" y="214"/>
      <point x="192" y="236" type="curve" smooth="yes"/>
      <point x="148" y="265"/>
      <point x="125" y="287"/>
      <point x="122" y="317" type="curve" smooth="yes"/>
      <point x="120" y="338"/>
      <point x="129" y="382"/>
    </contour>
  </outline>
</glyph>
<glyph name="macron" format="2">
  <advance width="300"/>
  <unicode hex="00AF"/>
  <outline>
    <contour>
      <point x="10" y="750" type="line"/>
      <point x="10" y="694" type="line"/>
      <point x="293" y="694" type="line"/>
      <point x="293" y="750" type="line"/>
    </contour>
  </outline>
</glyph>
<glyph name="micro" format="2">
  <advance width="470"/>
  <unicode hex="00B5"/>
  <outline>
    <contour>
      <point x="209" y="475" type="line"/>
      <point x="93" y="525" type="line"/>
      <point x="21" y="433" type="line"/>
      <point x="54" y="416"/>
      <point x="60" y="399"/>
      <point x="59" y="376" type="curve" smooth="yes"/>
      <point x="57" y="328"/>
      <point x="53" y="253"/>
      <point x="53" y="229" type="curve" smooth="yes"/>
      <point x="53" y="205"/>
      <point x="43" y="23"/>
      <point x="39" y="-5" type="curve" smooth="yes"/>
      <point x="35" y="-35"/>
      <point x="7" y="-169"/>
      <point x="8" y="-169" type="curve" smooth="yes"/>
      <point x="50" y="-178"/>
      <point x="60" y="-193"/>
      <point x="60" y="-193" type="curve" smooth="yes"/>
      <point x="72" y="-157"/>
      <point x="112" y="-62"/>
      <point x="135" y="18" type="curve" smooth="yes"/>
      <point x="136" y="21"/>
      <point x="190" y="61"/>
      <point x="208" y="74" type="curve" smooth="yes"/>
      <point x="217" y="81"/>
      <point x="235" y="91"/>
      <point x="257" y="106" type="curve"/>
      <point x="297" y="75"/>
      <point x="361" y="16"/>
      <point x="363" y="16" type="curve" smooth="yes"/>
      <point x="364" y="16"/>
      <point x="408" y="72"/>
      <point x="461" y="134" type="curve"/>
      <point x="447" y="140"/>
      <point x="446" y="138"/>
      <point x="423" y="161" type="curve"/>
      <point x="415" y="175" type="line"/>
      <point x="413" y="188" type="line"/>
      <point x="413" y="236"/>
      <point x="422" y="371"/>
      <point x="420" y="399" type="curve" smooth="yes"/>
      <point x="419" y="416"/>
      <point x="430" y="445"/>
      <point x="439" y="476" type="curve"/>
      <point x="331" y="526" type="line"/>
      <point x="256" y="435" type="line"/>
      <point x="275" y="423"/>
      <point x="290" y="410"/>
      <point x="291" y="392" type="curve" smooth="yes"/>
      <point x="292" y="367"/>
      <point x="290" y="189"/>
      <point x="289" y="188" type="curve" smooth="yes"/>
      <point x="234" y="138"/>
      <point x="209" y="143"/>
      <point x="208" y="143" type="curve" smooth="yes"/>
      <point x="158" y="171"/>
      <point x="188" y="309"/>
      <point x="185" y="403" type="curve" smooth="yes"/>
      <point x="185" y="404"/>
      <point x="198" y="455"/>
      <point x="211" y="471" type="curve"/>
    </contour>
  </outline>
</glyph>
<glyph name="cedilla" format="2">
  <advance width="500"/>
  <unicode hex="00B8"/>
  <outline>
    <contour>
      <point x="302" y="0" type="line"/>
      <point x="272" y="1" type="line"/>
      <point x="209" y="-95" type="line"/>
      <point x="210" y="-96"/>
      <point x="213" y="-100"/>
      <point x="215" y="-102" type="curve" smooth="yes"/>
      <point x="219" y="-106"/>
      <point x="222" y="-110"/>
      <point x="222" y="-110" type="curve" smooth="yes"/>
      <point x="256" y="-94"/>
      <point x="290" y="-107"/>
      <point x="290" y="-142" type="curve" smooth="yes"/>
      <point x="290" y="-168"/>
      <point x="266" y="-181"/>
      <point x="230" y="-184" type="curve" smooth="yes"/>
      <point x="206" y="-186"/>
      <point x="191" y="-182"/>
      <point x="168" y="-175" type="curve" smooth="yes"/>
      <point x="167" y="-175"/>
      <point x="156" y="-196"/>
      <point x="158" y="-197" type="curve" smooth="yes"/>
      <point x="194" y="-213"/>
      <point x="276" y="-219"/>
      <point x="310" y="-211" type="curve" smooth="yes"/>
      <point x="337" y="-204"/>
      <point x="387" y="-193"/>
      <point x="390" y="-141" type="curve" smooth="yes"/>
      <point x="392" y="-109"/>
      <point x="368" y="-83"/>
      <point x="344" y="-75" type="curve" smooth="yes"/>
      <point x="325" y="-69"/>
      <point x="288" y="-67"/>
      <point x="256" y="-74" type="curve"/>
    </contour>
  </outline>
</glyph>
<glyph name="Agrave" format="2">
  <advance width="800"/>
  <unicode hex="00C0"/>
  <anchor x="289.2332250384968" y="711.9197697043707" name="_top"/>
  <outline>
    <contour>
      <point x="223" y="632" type="line"/>
      <point x="222" y="633" type="line"/>
      <point x="221" y="761"/>
      <point x="199" y="823"/>
      <point x="198" y="823" type="curve" smooth="yes"/>
      <point x="170" y="815"/>
      <point x="83" y="802"/>
      <point x="84" y="800" type="curve" smooth="yes"/>
      <point x="102" y="785"/>
      <point x="120" y="756"/>
      <point x="128" y="748" type="curve" smooth="yes"/>
      <point x="134" y="742"/>
      <point x="160" y="715"/>
      <point x="201" y="655" type="curve"/>
    </contour>
    <contour>
      <point x="204" y="572" type="qcurve"/>
      <point x="160" y="540"/>
      <point x="107" y="513" type="qcurve"/>
      <point x="143" y="441"/>
      <point x="160" y="234"/>
      <point x="119" y="62"/>
      <point x="91" y="-15" type="qcurve" smooth="yes"/>
      <point x="71" y="-72"/>
      <point x="35" y="-118" type="qcurve" smooth="yes"/>
      <point x="25" y="-131"/>
      <point x="10" y="-147" type="qcurve"/>
      <point x="10" y="-145"/>
      <point x="51" y="-173" type="qcurve"/>
      <point x="59" y="-165"/>
      <point x="99" y="-118" type="qcurve" smooth="yes"/>
      <point x="147" y="-63"/>
      <point x="202" y="14" type="qcurve" smooth="yes"/>
      <point x="290" y="136"/>
      <point x="308" y="312" type="qcurve"/>
      <point x="493" y="312" type="line"/>
      <point x="493" y="186"/>
      <point x="482" y="108" type="qcurve"/>
      <point x="544" y="54" type="line"/>
      <point x="595" y="11" type="line"/>
      <point x="682" y="131" type="line"/>
      <point x="653" y="155" type="line"/>
      <point x="632" y="172" type="line" smooth="yes"/>
      <point x="621" y="181"/>
      <point x="621" y="213" type="qcurve" smooth="yes"/>
      <point x="617" y="479" type="line"/>
      <point x="617" y="506" type="line" smooth="yes"/>
      <point x="617" y="523"/>
      <point x="621" y="532" type="qcurve"/>
      <point x="631" y="550"/>
      <point x="664" y="577"/>
      <point x="675" y="595" type="qcurve"/>
      <point x="556" y="626"/>
      <point x="423" y="755" type="qcurve"/>
      <point x="390" y="719"/>
      <point x="346" y="686" type="qcurve"/>
      <point x="328" y="666"/>
      <point x="308" y="654"/>
      <point x="308" y="649" type="qcurve"/>
      <point x="272" y="623"/>
      <point x="253" y="613" type="qcurve" smooth="yes"/>
      <point x="244" y="608"/>
    </contour>
    <contour>
      <point x="491" y="428" type="qcurve"/>
      <point x="313" y="428" type="line"/>
      <point x="317" y="495"/>
      <point x="330" y="609"/>
      <point x="388" y="589" type="qcurve"/>
      <point x="446" y="564"/>
      <point x="491" y="532" type="qcurve"/>
      <point x="491" y="515"/>
      <point x="491" y="488"/>
    </contour>
  </outline>
</glyph>
<glyph name="Atilde" format="2">
  <advance width="1000"/>
  <unicode hex="00C3"/>
  <outline>
    <contour>
      <point x="559" y="911" type="line"/>
      <point x="552" y="876"/>
      <point x="573" y="847"/>
      <point x="541" y="836" type="curve" smooth="yes"/>
      <point x="509" y="825"/>
      <point x="458" y="831"/>
      <point x="436" y="849" type="curve" smooth="yes"/>
      <point x="414" y="867"/>
      <point x="357" y="901"/>
      <point x="333" y="906" type="curve" smooth="yes"/>
      <point x="309" y="911"/>
      <point x="223" y="908"/>
      <point x="204" y="893" type="curve" smooth="yes"/>
      <point x="191" y="883"/>
      <point x="169" y="856"/>
      <point x="136" y="812" type="curve"/>
      <point x="276" y="679" type="line"/>
      <point x="283" y="716"/>
      <point x="267" y="723"/>
      <point x="285" y="751" type="curve" smooth="yes"/>
      <point x="303" y="779"/>
      <point x="296" y="821"/>
      <point x="329" y="823" type="curve" smooth="yes"/>
      <point x="362" y="825"/>
      <point x="400" y="819"/>
      <point x="414" y="806" type="curve" smooth="yes"/>
      <point x="428" y="793"/>
      <point x="469" y="771"/>
      <point x="491" y="762" type="curve" smooth="yes"/>
      <point x="506" y="756"/>
      <point x="532" y="738"/>
      <point x="570" y="707" type="curve"/>
      <point x="633" y="742" type="line"/>
      <point x="654" y="759"/>
      <point x="669" y="782"/>
      <point x="679" y="810" type="curve"/>
    </contour>
    <contour>
      <point x="204" y="572" type="qcurve"/>
      <point x="160" y="540"/>
      <point x="107" y="513" type="qcurve"/>
      <point x="143" y="441"/>
      <point x="160" y="234"/>
      <point x="119" y="62"/>
      <point x="91" y="-15" type="qcurve" smooth="yes"/>
      <point x="71" y="-72"/>
      <point x="35" y="-118" type="qcurve" smooth="yes"/>
      <point x="25" y="-131"/>
      <point x="10" y="-147" type="qcurve"/>
      <point x="10" y="-145"/>
      <point x="51" y="-173" type="qcurve"/>
      <point x="59" y="-165"/>
      <point x="99" y="-118" type="qcurve" smooth="yes"/>
      <point x="147" y="-63"/>
      <point x="202" y="14" type="qcurve" smooth="yes"/>
      <point x="290" y="136"/>
      <point x="308" y="312" type="qcurve"/>
      <point x="493" y="312" type="line"/>
      <point x="493" y="186"/>
      <point x="482" y="108" type="qcurve"/>
      <point x="544" y="54" type="line"/>
      <point x="595" y="11" type="line"/>
      <point x="682" y="131" type="line"/>
      <point x="653" y="155" type="line"/>
      <point x="632" y="172" type="line" smooth="yes"/>
      <point x="621" y="181"/>
      <point x="621" y="213" type="qcurve" smooth="yes"/>
      <point x="617" y="479" type="line"/>
      <point x="617" y="506" type="line" smooth="yes"/>
      <point x="617" y="523"/>
      <point x="621" y="532" type="qcurve"/>
      <point x="631" y="550"/>
      <point x="664" y="577"/>
      <point x="675" y="595" type="qcurve"/>
      <point x="556" y="626"/>
      <point x="423" y="755" type="qcurve"/>
      <point x="390" y="719"/>
      <point x="346" y="686" type="qcurve"/>
      <point x="328" y="666"/>
      <point x="308" y="654"/>
      <point x="308" y="649" type="qcurve"/>
      <point x="272" y="623"/>
      <point x="253" y="613" type="qcurve" smooth="yes"/>
      <point x="244" y="608"/>
    </contour>
    <contour>
      <point x="491" y="428" type="qcurve"/>
      <point x="313" y="428" type="line"/>
      <point x="317" y="495"/>
      <point x="330" y="609"/>
      <point x="388" y="589" type="qcurve"/>
      <point x="446" y="564"/>
      <point x="491" y="532" type="qcurve"/>
      <point x="491" y="515"/>
      <point x="491" y="488"/>
    </contour>
  </outline>
</glyph>
<glyph name="Edieresis" format="2">
  <advance width="700"/>
  <unicode hex="00CB"/>
  <outline>
    <contour>
      <point x="192" y="631" type="line"/>
      <point x="11" y="527" type="line"/>
      <point x="17" y="427" type="line"/>
      <point x="33" y="329" type="line"/>
      <point x="57" y="270" type="line"/>
      <point x="83" y="216" type="line"/>
      <point x="109" y="178" type="line"/>
      <point x="131" y="154" type="line"/>
      <point x="154" y="131" type="line"/>
      <point x="177" y="111" type="line"/>
      <point x="205" y="92" type="line"/>
      <point x="231" y="77" type="line"/>
      <point x="259" y="64" type="line"/>
      <point x="302" y="45" type="line"/>
      <point x="374" y="25" type="line"/>
      <point x="443" y="14" type="line"/>
      <point x="495" y="86" type="line"/>
      <point x="548" y="160" type="line"/>
      <point x="378" y="175" type="line"/>
      <point x="256" y="240" type="line"/>
      <point x="216" y="283" type="line"/>
      <point x="174" y="353" type="line"/>
      <point x="157" y="442" type="line"/>
      <point x="159" y="515" type="line"/>
      <point x="171" y="545" type="line"/>
      <point x="200" y="577" type="line"/>
      <point x="242" y="604" type="line"/>
      <point x="241" y="571" type="line"/>
      <point x="240" y="509" type="line"/>
      <point x="239" y="411" type="line"/>
      <point x="253" y="294" type="line"/>
      <point x="216" y="282" type="line"/>
      <point x="252" y="239" type="line"/>
      <point x="288" y="252" type="line"/>
      <point x="312" y="263" type="line"/>
      <point x="345" y="275" type="line"/>
      <point x="368" y="281" type="line"/>
      <point x="358" y="341" type="line"/>
      <point x="355" y="415" type="line"/>
      <point x="451" y="413" type="line"/>
      <point x="556" y="413" type="line"/>
      <point x="555" y="527" type="line"/>
      <point x="528" y="527" type="line"/>
      <point x="492" y="527" type="line"/>
      <point x="467" y="527" type="line"/>
      <point x="452" y="527" type="line"/>
      <point x="442" y="527" type="line"/>
      <point x="432" y="527" type="line"/>
      <point x="415" y="527" type="line"/>
      <point x="389" y="527" type="line"/>
      <point x="353" y="527" type="line"/>
      <point x="354" y="560" type="line"/>
      <point x="360" y="607" type="line"/>
      <point x="363" y="621" type="line"/>
      <point x="391" y="618" type="line"/>
      <point x="424" y="607" type="line"/>
      <point x="441" y="601" type="line"/>
      <point x="456" y="590" type="line"/>
      <point x="471" y="583" type="line"/>
      <point x="485" y="577" type="line"/>
      <point x="509" y="561" type="line"/>
      <point x="591" y="657" type="line"/>
      <point x="481" y="700" type="line"/>
      <point x="389" y="749" type="line"/>
    </contour>
    <contour>
      <point x="116" y="816" type="curve" smooth="yes"/>
      <point x="101" y="772"/>
      <point x="127" y="637"/>
      <point x="129" y="638" type="curve" smooth="yes"/>
      <point x="175" y="662"/>
      <point x="231" y="703"/>
      <point x="234" y="705" type="curve" smooth="yes"/>
      <point x="289" y="738"/>
      <point x="318" y="760"/>
      <point x="318" y="760" type="curve" smooth="yes"/>
      <point x="249" y="777"/>
      <point x="118" y="820"/>
    </contour>
    <contour>
      <point x="613" y="676" type="curve" smooth="yes"/>
      <point x="613" y="725"/>
      <point x="612" y="742"/>
      <point x="619" y="798" type="curve" smooth="yes"/>
      <point x="619" y="799"/>
      <point x="527" y="782"/>
      <point x="525" y="782" type="curve" smooth="yes"/>
      <point x="520" y="780"/>
      <point x="442" y="764"/>
      <point x="442" y="764" type="curve" smooth="yes"/>
      <point x="494" y="691"/>
      <point x="613" y="675"/>
    </contour>
  </outline>
</glyph>
<glyph name="multiply" format="2">
  <advance width="500"/>
  <unicode hex="00D7"/>
  <outline>
    <contour>
      <point x="122" y="499" type="line"/>
      <point x="70" y="449" type="line"/>
      <point x="170" y="342" type="line"/>
      <point x="64" y="245" type="line"/>
      <point x="115" y="191" type="line"/>
      <point x="220" y="289" type="line"/>
      <point x="320" y="183" type="line"/>
      <point x="373" y="235" type="line"/>
      <point x="272" y="341" type="line"/>
      <point x="381" y="440" type="line"/>
      <point x="329" y="496" type="line"/>
      <point x="223" y="396" type="line"/>
    </contour>
  </outline>
</glyph>
<glyph name="Oslash" format="2">
  <advance width="800"/>
  <unicode hex="00D8"/>
  <outline>
    <contour>
      <point x="461" y="645" type="line"/>
      <point x="460" y="751" type="line"/>
      <point x="374" y="732" type="line"/>
      <point x="317" y="711" type="line"/>
      <point x="259" y="686" type="line"/>
      <point x="211" y="657" type="line"/>
      <point x="166" y="620" type="line"/>
      <point x="120" y="575" type="line"/>
      <point x="81" y="539" type="line"/>
      <point x="56" y="503" type="line"/>
      <point x="20" y="453" type="line"/>
      <point x="28" y="399" type="line"/>
      <point x="39" y="350" type="line"/>
      <point x="56" y="291" type="line"/>
      <point x="74" y="246" type="line"/>
      <point x="100" y="195" type="line"/>
      <point x="129" y="135" type="line"/>
      <point x="174" y="84" type="line"/>
      <point x="230" y="51" type="line"/>
      <point x="285" y="30" type="line"/>
      <point x="376" y="15" type="line"/>
      <point x="458" y="20" type="line"/>
      <point x="510" y="41" type="line"/>
      <point x="583" y="80" type="line"/>
      <point x="622" y="112" type="line"/>
      <point x="667" y="163" type="line"/>
      <point x="717" y="233" type="line"/>
      <point x="740" y="281" type="line"/>
      <point x="760" y="333" type="line"/>
      <point x="776" y="401" type="line"/>
      <point x="782" y="493" type="line"/>
      <point x="729" y="529" type="line"/>
      <point x="668" y="576" type="line"/>
      <point x="617" y="629" type="line"/>
      <point x="571" y="693" type="line"/>
      <point x="547" y="730" type="line"/>
      <point x="491" y="679" type="line"/>
    </contour>
    <contour>
      <point x="218" y="323" type="line"/>
      <point x="206" y="400" type="line"/>
      <point x="204" y="455" type="line"/>
      <point x="217" y="529" type="line"/>
      <point x="266" y="603" type="line"/>
      <point x="304" y="635" type="line"/>
      <point x="317" y="565" type="line"/>
      <point x="321" y="511" type="line"/>
      <point x="323" y="455" type="line"/>
      <point x="325" y="400" type="line"/>
      <point x="325" y="339" type="line"/>
      <point x="322" y="262" type="line"/>
      <point x="316" y="215" type="line"/>
      <point x="306" y="175" type="line"/>
      <point x="345" y="145" type="line"/>
      <point x="382" y="178" type="line"/>
      <point x="410" y="204" type="line"/>
      <point x="446" y="222" type="line"/>
      <point x="481" y="236" type="line"/>
      <point x="508" y="243" type="line"/>
      <point x="495" y="275" type="line"/>
      <point x="480" y="322" type="line"/>
      <point x="471" y="379" type="line"/>
      <point x="463" y="446" type="line"/>
      <point x="459" y="518" type="line"/>
      <point x="454" y="579" type="line"/>
      <point x="509" y="538" type="line"/>
      <point x="536" y="513" type="line"/>
      <point x="558" y="490" type="line"/>
      <point x="580" y="461" type="line"/>
      <point x="599" y="430" type="line"/>
      <point x="620" y="393" type="line"/>
      <point x="633" y="356" type="line"/>
      <point x="640" y="326" type="line"/>
      <point x="649" y="281" type="line"/>
      <point x="642" y="242" type="line"/>
      <point x="626" y="213" type="line"/>
      <point x="609" y="180" type="line"/>
      <point x="586" y="156" type="line"/>
      <point x="559" y="136" type="line"/>
      <point x="523" y="121" type="line"/>
      <point x="471" y="115" type="line"/>
      <point x="397" y="121" type="line"/>
      <point x="345" y="145" type="line"/>
      <point x="306" y="175" type="line"/>
      <point x="244" y="249" type="line"/>
    </contour>
    <contour>
      <point x="623" y="736" type="line"/>
      <point x="125" y="-1" type="line"/>
      <point x="124" y="-2"/>
      <point x="248" y="0"/>
      <point x="248" y="0" type="curve"/>
      <point x="755" y="744" type="line"/>
    </contour>
  </outline>
</glyph>
<glyph name="divide" format="2">
  <advance width="550"/>
  <unicode hex="00F7"/>
  <outline>
    <contour>
      <point x="363" y="173" type="curve" smooth="yes"/>
      <point x="364" y="204"/>
      <point x="343" y="241"/>
      <point x="297" y="241" type="curve" smooth="yes"/>
      <point x="252" y="241"/>
      <point x="231" y="201"/>
      <point x="231" y="173" type="curve" smooth="yes"/>
      <point x="231" y="157"/>
      <point x="251" y="109"/>
      <point x="296" y="110" type="curve" smooth="yes"/>
      <point x="341" y="111"/>
      <point x="362" y="143"/>
    </contour>
    <contour>
      <point x="361" y="497" type="curve" smooth="yes"/>
      <point x="362" y="528"/>
      <point x="341" y="565"/>
      <point x="295" y="565" type="curve" smooth="yes"/>
      <point x="250" y="565"/>
      <point x="229" y="525"/>
      <point x="229" y="497" type="curve" smooth="yes"/>
      <point x="229" y="481"/>
      <point x="249" y="433"/>
      <point x="294" y="434" type="curve" smooth="yes"/>
      <point x="339" y="435"/>
      <point x="360" y="467"/>
    </contour>
    <contour>
      <point x="62" y="366" type="line"/>
      <point x="62" y="317" type="line"/>
      <point x="516" y="317" type="line"/>
      <point x="516" y="366" type="line"/>
    </contour>
  </outline>
</glyph>
<glyph name="Lslash" format="2">
  <advance width="500"/>
  <unicode hex="0141"/>
  <outline>
    <contour>
      <point x="261" y="263" type="line"/>
      <point x="285" y="244" type="line"/>
      <point x="318" y="271" type="line"/>
      <point x="337" y="286" type="line"/>
      <point x="360" y="305" type="line"/>
      <point x="386" y="325" type="line"/>
      <point x="401" y="344" type="line"/>
      <point x="417" y="365" type="line"/>
      <point x="427" y="388" type="line"/>
      <point x="428" y="396" type="line"/>
      <point x="424" y="416" type="line"/>
      <point x="420" y="430" type="line"/>
      <point x="421" y="452" type="line"/>
      <point x="419" y="459" type="line"/>
      <point x="504" y="500" type="line"/>
      <point x="493" y="575" type="line"/>
      <point x="408" y="539" type="line"/>
      <point x="407" y="544" type="line"/>
      <point x="405" y="556" type="line"/>
      <point x="409" y="600" type="line"/>
      <point x="411" y="617" type="line"/>
      <point x="413" y="653" type="line"/>
      <point x="430" y="658" type="line"/>
      <point x="456" y="665" type="line"/>
      <point x="490" y="667" type="line"/>
      <point x="515" y="673" type="line"/>
      <point x="548" y="674" type="line"/>
      <point x="528" y="713" type="line"/>
      <point x="517" y="731" type="line"/>
      <point x="495" y="751" type="line"/>
      <point x="454" y="748" type="line"/>
      <point x="393" y="726" type="line"/>
      <point x="334" y="700" type="line"/>
      <point x="267" y="678" type="line"/>
      <point x="195" y="655" type="line"/>
      <point x="136" y="628" type="line"/>
      <point x="88" y="611" type="line"/>
      <point x="55" y="589" type="line"/>
      <point x="50" y="569" type="line"/>
      <point x="55" y="545" type="line"/>
      <point x="72" y="484" type="line"/>
      <point x="96" y="398" type="line"/>
      <point x="4" y="328" type="line"/>
      <point x="38" y="243" type="line"/>
      <point x="106" y="293" type="line"/>
      <point x="105" y="259" type="line"/>
      <point x="92" y="229" type="line"/>
      <point x="77" y="188" type="line"/>
      <point x="59" y="161" type="line"/>
      <point x="40" y="129" type="line"/>
      <point x="7" y="100" type="line"/>
      <point x="44" y="94" type="line"/>
      <point x="83" y="81" type="line"/>
      <point x="138" y="73" type="line"/>
      <point x="174" y="64" type="line"/>
      <point x="212" y="59" type="line"/>
      <point x="226" y="55" type="line"/>
      <point x="253" y="51" type="line"/>
      <point x="282" y="44" type="line"/>
      <point x="309" y="38" type="line"/>
      <point x="344" y="31" type="line"/>
      <point x="373" y="25" type="line"/>
      <point x="410" y="18" type="line"/>
      <point x="434" y="16" type="line"/>
      <point x="450" y="16" type="line"/>
      <point x="465" y="24" type="line"/>
      <point x="478" y="36" type="line"/>
      <point x="488" y="49" type="line"/>
      <point x="498" y="62" type="line"/>
      <point x="507" y="78" type="line"/>
      <point x="518" y="94" type="line"/>
      <point x="528" y="109" type="line"/>
      <point x="538" y="125" type="line"/>
      <point x="554" y="151" type="line"/>
      <point x="536" y="150" type="line"/>
      <point x="509" y="150" type="line"/>
      <point x="492" y="150" type="line"/>
      <point x="470" y="150" type="line"/>
      <point x="452" y="152" type="line"/>
      <point x="430" y="153" type="line"/>
      <point x="410" y="155" type="line"/>
      <point x="389" y="158" type="line"/>
      <point x="370" y="159" type="line"/>
      <point x="349" y="162" type="line"/>
      <point x="325" y="165" type="line"/>
      <point x="304" y="171" type="line"/>
      <point x="288" y="173" type="line"/>
      <point x="263" y="177" type="line"/>
      <point x="239" y="184" type="line"/>
      <point x="217" y="192" type="line"/>
      <point x="244" y="209" type="line"/>
      <point x="261" y="224" type="line"/>
      <point x="285" y="244" type="line"/>
      <point x="261" y="263" type="line"/>
      <point x="251" y="301" type="line"/>
      <point x="253" y="319" type="line"/>
      <point x="253" y="352" type="line"/>
      <point x="252" y="373" type="line"/>
      <point x="257" y="386" type="line"/>
      <point x="305" y="413" type="line"/>
      <point x="305" y="500" type="line"/>
      <point x="305" y="507" type="line"/>
      <point x="224" y="465" type="line"/>
      <point x="221" y="553" type="line"/>
      <point x="236" y="578" type="line"/>
      <point x="261" y="596" type="line"/>
      <point x="293" y="612" type="line"/>
      <point x="289" y="572" type="line"/>
      <point x="292" y="520" type="line"/>
      <point x="296" y="464" type="line"/>
      <point x="296" y="414" type="line"/>
      <point x="277" y="329" type="line"/>
      <point x="251" y="301" type="line"/>
    </contour>
  </outline>
</glyph>
<glyph name="oe" format="2">
  <advance width="650"/>
  <unicode hex="0153"/>
  <outline>
    <contour>
      <point x="228" y="529" type="curve"/>
      <point x="227" y="530"/>
      <point x="86" y="417"/>
      <point x="40" y="390" type="curve" smooth="yes"/>
      <point x="38" y="389"/>
      <point x="52" y="318"/>
      <point x="47" y="263" type="curve" smooth="yes"/>
      <point x="45" y="240"/>
      <point x="52" y="178"/>
      <point x="14" y="110" type="curve" smooth="yes"/>
      <point x="14" y="110"/>
      <point x="185" y="25"/>
      <point x="224" y="7" type="curve" smooth="yes"/>
      <point x="226" y="6"/>
      <point x="236" y="26"/>
      <point x="300" y="102" type="curve"/>
      <point x="353" y="85"/>
      <point x="364" y="78"/>
      <point x="414" y="58" type="curve" smooth="yes"/>
      <point x="458" y="40"/>
      <point x="519" y="14"/>
      <point x="520" y="15" type="curve"/>
      <point x="622" y="157" type="line"/>
      <point x="596" y="158"/>
      <point x="569" y="152"/>
      <point x="524" y="154" type="curve" smooth="yes"/>
      <point x="481" y="156"/>
      <point x="469" y="157"/>
      <point x="448" y="183" type="curve" smooth="yes"/>
      <point x="447" y="184"/>
      <point x="533" y="275"/>
      <point x="545" y="286" type="curve" smooth="yes"/>
      <point x="564" y="304"/>
      <point x="620" y="368"/>
      <point x="645" y="390" type="curve" smooth="yes"/>
      <point x="645" y="390"/>
      <point x="585" y="434"/>
      <point x="537" y="468" type="curve" smooth="yes"/>
      <point x="508" y="488"/>
      <point x="479" y="509"/>
      <point x="455" y="526" type="curve" smooth="yes"/>
      <point x="454" y="527"/>
      <point x="413" y="502"/>
      <point x="324" y="450" type="curve"/>
      <point x="287" y="495"/>
      <point x="253" y="514"/>
    </contour>
    <contour>
      <point x="172" y="407" type="curve"/>
      <point x="191" y="403"/>
      <point x="233" y="377"/>
      <point x="253" y="341" type="curve" smooth="yes"/>
      <point x="264" y="322"/>
      <point x="271" y="310"/>
      <point x="294" y="238" type="curve" smooth="yes"/>
      <point x="302" y="214"/>
      <point x="303" y="177"/>
      <point x="275" y="160" type="curve" smooth="yes"/>
      <point x="254" y="147"/>
      <point x="232" y="146"/>
      <point x="198" y="166" type="curve" smooth="yes"/>
      <point x="165" y="186"/>
      <point x="169" y="207"/>
      <point x="169" y="263" type="curve" smooth="yes"/>
      <point x="169" y="281"/>
      <point x="169" y="299"/>
      <point x="170" y="325" type="curve" smooth="yes"/>
      <point x="170" y="336"/>
      <point x="170" y="345"/>
      <point x="170" y="358" type="curve" smooth="yes"/>
      <point x="169" y="387"/>
      <point x="170" y="388"/>
    </contour>
    <contour>
      <point x="428" y="224" type="curve"/>
      <point x="412" y="266"/>
      <point x="410" y="314"/>
      <point x="411" y="332" type="curve" smooth="yes"/>
      <point x="412" y="346"/>
      <point x="412" y="384"/>
      <point x="431" y="393" type="curve" smooth="yes"/>
      <point x="448" y="401"/>
      <point x="458" y="392"/>
      <point x="483" y="373" type="curve" smooth="yes"/>
      <point x="491" y="367"/>
      <point x="499" y="358"/>
      <point x="505" y="349" type="curve" smooth="yes"/>
      <point x="509" y="342"/>
      <point x="518" y="326"/>
      <point x="511" y="314" type="curve" smooth="yes"/>
      <point x="503" y="301"/>
      <point x="499" y="296"/>
      <point x="487" y="287" type="curve" smooth="yes"/>
      <point x="481" y="282"/>
      <point x="472" y="272"/>
      <point x="462" y="261" type="curve" smooth="yes"/>
      <point x="448" y="245"/>
      <point x="441" y="237"/>
    </contour>
  </outline>
</glyph>
<glyph name="fhook" format="2">
  <advance width="600"/>
  <unicode hex="0192"/>
  <outline>
    <contour>
      <point x="529" y="580" type="curve"/>
      <point x="543" y="600"/>
      <point x="531" y="628"/>
      <point x="510" y="648" type="curve" smooth="yes"/>
      <point x="468" y="688"/>
      <point x="393" y="692"/>
      <point x="334" y="668" type="curve" smooth="yes"/>
      <point x="289" y="650"/>
      <point x="263" y="629"/>
      <point x="233" y="586" type="curve" smooth="yes"/>
      <point x="212" y="555"/>
      <point x="182" y="481"/>
      <point x="165" y="395" type="curve"/>
      <point x="98" y="395" type="line"/>
      <point x="89" y="393" type="line"/>
      <point x="86" y="385" type="line"/>
      <point x="80" y="363" type="line"/>
      <point x="80" y="355" type="line"/>
      <point x="85" y="353" type="line"/>
      <point x="160" y="353" type="line"/>
      <point x="160" y="318"/>
      <point x="146" y="159"/>
      <point x="139" y="128" type="curve" smooth="yes"/>
      <point x="134" y="107"/>
      <point x="130" y="-35"/>
      <point x="89" y="-86" type="curve"/>
      <point x="36" y="-96"/>
      <point x="34" y="-56"/>
      <point x="16" y="-22" type="curve" smooth="yes"/>
      <point x="6" y="-3"/>
      <point x="-37" y="1"/>
      <point x="-55" y="-16" type="curve" smooth="yes"/>
      <point x="-73" y="-33"/>
      <point x="-67" y="-75"/>
      <point x="-53" y="-94" type="curve" smooth="yes"/>
      <point x="-38" y="-115"/>
      <point x="37" y="-145"/>
      <point x="95" y="-122" type="curve" smooth="yes"/>
      <point x="137" y="-106"/>
      <point x="195" y="-82"/>
      <point x="234" y="22" type="curve" smooth="yes"/>
      <point x="248" y="60"/>
      <point x="257" y="45"/>
      <point x="296" y="353" type="curve"/>
      <point x="400" y="353" type="line"/>
      <point x="410" y="355" type="line"/>
      <point x="412" y="363" type="line"/>
      <point x="418" y="390" type="line"/>
      <point x="417" y="394" type="line"/>
      <point x="412" y="395" type="line"/>
      <point x="299" y="395" type="line"/>
      <point x="302" y="424"/>
      <point x="305" y="466"/>
      <point x="311" y="512" type="curve" smooth="yes"/>
      <point x="320" y="585"/>
      <point x="353" y="637"/>
      <point x="389" y="640" type="curve" smooth="yes"/>
      <point x="438" y="645"/>
      <point x="418" y="581"/>
      <point x="451" y="564" type="curve" smooth="yes"/>
      <point x="485" y="546"/>
      <point x="504" y="556"/>
    </contour>
  </outline>
</glyph>
<glyph name="breve" format="2">
  <advance width="300"/>
  <unicode hex="02D8"/>
  <outline>
    <contour>
      <point x="400" y="768" type="curve"/>
      <point x="278" y="824" type="line"/>
      <point x="275" y="803"/>
      <point x="249" y="751"/>
      <point x="229" y="736" type="curve" smooth="yes"/>
      <point x="209" y="721"/>
      <point x="184" y="715"/>
      <point x="165" y="715" type="curve" smooth="yes"/>
      <point x="146" y="715"/>
      <point x="108" y="721"/>
      <point x="91" y="730" type="curve" smooth="yes"/>
      <point x="81" y="736"/>
      <point x="48" y="753"/>
      <point x="31" y="774" type="curve"/>
      <point x="-10" y="778" type="line"/>
      <point x="-12" y="750"/>
      <point x="13" y="720"/>
      <point x="23" y="707" type="curve" smooth="yes"/>
      <point x="36" y="691"/>
      <point x="51" y="673"/>
      <point x="70" y="661" type="curve" smooth="yes"/>
      <point x="91" y="648"/>
      <point x="131" y="642"/>
      <point x="152" y="640" type="curve" smooth="yes"/>
      <point x="173" y="638"/>
      <point x="204" y="650"/>
      <point x="223" y="658" type="curve" smooth="yes"/>
      <point x="242" y="666"/>
      <point x="303" y="697"/>
      <point x="318" y="708" type="curve" smooth="yes"/>
      <point x="325" y="713"/>
      <point x="393" y="733"/>
    </contour>
  </outline>
</glyph>
<glyph name="gravecomb" format="2">
  <unicode hex="0300"/>
  <anchor x="81" y="602" name="_top"/>
  <outline>
    <contour>
      <point x="-21" y="631" type="line"/>
      <point x="-21" y="632" type="line"/>
      <point x="-18" y="754"/>
      <point x="-44" y="820"/>
      <point x="-45" y="820" type="curve" smooth="yes"/>
      <point x="-74" y="817"/>
      <point x="-158" y="803"/>
      <point x="-157" y="801" type="curve" smooth="yes"/>
      <point x="-142" y="783"/>
      <point x="-120" y="757"/>
      <point x="-114" y="748" type="curve" smooth="yes"/>
      <point x="-109" y="741"/>
      <point x="-81" y="707"/>
      <point x="-35" y="651" type="curve"/>
    </contour>
  </outline>
</glyph>
<glyph name="macroncomb" format="2">
  <unicode hex="0304"/>
  <anchor x="3" y="573" name="_top"/>
  <outline>
    <contour>
      <point x="-121" y="696" type="line"/>
      <point x="-121" y="642" type="line"/>
      <point x="120" y="642" type="line"/>
      <point x="120" y="696" type="line"/>
    </contour>
  </outline>
</glyph>
<glyph name="dotaccentcomb" format="2">
  <unicode hex="0307"/>
  <anchor x="2" y="480" name="_top"/>
  <outline>
    <contour>
      <point x="92" y="672" type="curve" smooth="yes"/>
      <point x="88" y="677"/>
      <point x="5" y="761"/>
      <point x="4" y="763" type="curve" smooth="yes"/>
      <point x="3" y="764"/>
      <point x="-88" y="674"/>
      <point x="-88" y="672" type="curve" smooth="yes"/>
      <point x="-89" y="668"/>
      <point x="4" y="578"/>
      <point x="1" y="577" type="curve" smooth="yes"/>
      <point x="0" y="577"/>
      <point x="93" y="671"/>
    </contour>
  </outline>
</glyph>
<glyph name="cedillacomb" format="2">
  <unicode hex="0327"/>
  <outline>
    <contour>
      <point x="15" y="7" type="line"/>
      <point x="-15" y="8" type="line"/>
      <point x="-78" y="-88" type="line"/>
      <point x="-77" y="-89"/>
      <point x="-74" y="-93"/>
      <point x="-72" y="-95" type="curve" smooth="yes"/>
      <point x="-68" y="-99"/>
      <point x="-65" y="-103"/>
      <point x="-65" y="-103" type="curve" smooth="yes"/>
      <point x="-31" y="-87"/>
      <point x="3" y="-100"/>
      <point x="3" y="-135" type="curve" smooth="yes"/>
      <point x="3" y="-161"/>
      <point x="-21" y="-174"/>
      <point x="-57" y="-177" type="curve" smooth="yes"/>
      <point x="-81" y="-179"/>
      <point x="-96" y="-175"/>
      <point x="-119" y="-168" type="curve" smooth="yes"/>
      <point x="-120" y="-168"/>
      <point x="-131" y="-189"/>
      <point x="-129" y="-190" type="curve" smooth="yes"/>
      <point x="-93" y="-206"/>
      <point x="-11" y="-212"/>
      <point x="23" y="-204" type="curve" smooth="yes"/>
      <point x="50" y="-197"/>
      <point x="100" y="-186"/>
      <point x="103" y="-134" type="curve" smooth="yes"/>
      <point x="105" y="-102"/>
      <point x="81" y="-76"/>
      <point x="57" y="-68" type="curve" smooth="yes"/>
      <point x="38" y="-62"/>
      <point x="1" y="-60"/>
      <point x="-31" y="-67" type="curve"/>
    </contour>
  </outline>
</glyph>
<glyph name="quoteleft" format="2">
  <advance width="200"/>
  <unicode hex="2018"/>
  <outline>
    <contour>
      <point x="162" y="750" type="curve"/>
      <point x="136" y="757" type="line"/>
      <point x="118" y="737"/>
      <point x="97" y="708"/>
      <point x="79" y="676" type="curve" smooth="yes"/>
      <point x="55" y="634"/>
      <point x="44" y="612"/>
      <point x="36" y="584" type="curve" smooth="yes"/>
      <point x="21" y="532"/>
      <point x="19" y="535"/>
      <point x="8" y="460" type="curve" smooth="yes"/>
      <point x="8" y="459"/>
      <point x="32" y="474"/>
      <point x="53" y="489" type="curve" smooth="yes"/>
      <point x="76" y="505"/>
      <point x="82" y="507"/>
      <point x="101" y="519" type="curve" smooth="yes"/>
      <point x="111" y="525"/>
      <point x="117" y="530"/>
      <point x="128" y="537" type="curve"/>
      <point x="124" y="552" type="line"/>
      <point x="114" y="587"/>
      <point x="117" y="631"/>
      <point x="122" y="653" type="curve" smooth="yes"/>
      <point x="133" y="703"/>
      <point x="141" y="716"/>
    </contour>
  </outline>
</glyph>
<glyph name="quotesinglbase" format="2">
  <advance width="300"/>
  <unicode hex="201A"/>
  <outline>
    <contour>
      <point x="8" y="-133" type="curve"/>
      <point x="34" y="-140" type="line"/>
      <point x="52" y="-120"/>
      <point x="73" y="-91"/>
      <point x="91" y="-59" type="curve" smooth="yes"/>
      <point x="115" y="-17"/>
      <point x="126" y="5"/>
      <point x="134" y="33" type="curve" smooth="yes"/>
      <point x="149" y="85"/>
      <point x="151" y="82"/>
      <point x="162" y="157" type="curve" smooth="yes"/>
      <point x="162" y="158"/>
      <point x="138" y="143"/>
      <point x="117" y="128" type="curve" smooth="yes"/>
      <point x="94" y="112"/>
      <point x="88" y="110"/>
      <point x="69" y="98" type="curve" smooth="yes"/>
      <point x="59" y="92"/>
      <point x="53" y="87"/>
      <point x="42" y="80" type="curve"/>
      <point x="46" y="65" type="line"/>
      <point x="56" y="30"/>
      <point x="53" y="-14"/>
      <point x="48" y="-36" type="curve" smooth="yes"/>
      <point x="37" y="-86"/>
      <point x="29" y="-99"/>
    </contour>
  </outline>
</glyph>
<glyph name="dagger" format="2">
  <advance width="550"/>
  <unicode hex="2020"/>
  <outline>
    <contour>
      <point x="253" y="724" type="curve"/>
      <point x="190" y="721"/>
      <point x="177" y="654"/>
      <point x="183" y="639" type="curve" smooth="yes"/>
      <point x="224" y="530"/>
      <point x="231" y="494"/>
      <point x="229" y="478" type="curve" smooth="yes"/>
      <point x="227" y="462"/>
      <point x="229" y="455"/>
      <point x="207" y="462" type="curve" smooth="yes"/>
      <point x="185" y="469"/>
      <point x="108" y="499"/>
      <point x="90" y="501" type="curve" smooth="yes"/>
      <point x="44" y="507"/>
      <point x="17" y="466"/>
      <point x="18" y="438" type="curve" smooth="yes"/>
      <point x="19" y="409"/>
      <point x="53" y="380"/>
      <point x="81" y="380" type="curve" smooth="yes"/>
      <point x="109" y="380"/>
      <point x="208" y="433"/>
      <point x="228" y="430" type="curve"/>
      <point x="232" y="405" type="line"/>
      <point x="223" y="359"/>
      <point x="176" y="307"/>
      <point x="177" y="303" type="curve" smooth="yes"/>
      <point x="196" y="199"/>
      <point x="212" y="127"/>
      <point x="215" y="92" type="curve" smooth="yes"/>
      <point x="217" y="69"/>
      <point x="229" y="46"/>
      <point x="234" y="-133" type="curve"/>
      <point x="275" y="-133" type="line"/>
      <point x="271" y="-101" type="line"/>
      <point x="266" y="26"/>
      <point x="315" y="272"/>
      <point x="328" y="308" type="curve" smooth="yes"/>
      <point x="329" y="312"/>
      <point x="282" y="329"/>
      <point x="275" y="395" type="curve" smooth="yes"/>
      <point x="273" y="417"/>
      <point x="270" y="429"/>
      <point x="274" y="430" type="curve" smooth="yes"/>
      <point x="300" y="439"/>
      <point x="384" y="374"/>
      <point x="419" y="378" type="curve" smooth="yes"/>
      <point x="470" y="384"/>
      <point x="480" y="425"/>
      <point x="480" y="446" type="curve" smooth="yes"/>
      <point x="480" y="467"/>
      <point x="464" y="507"/>
      <point x="420" y="504" type="curve" smooth="yes"/>
      <point x="373" y="501"/>
      <point x="307" y="452"/>
      <point x="271" y="459" type="curve"/>
      <point x="280" y="549"/>
      <point x="314" y="611"/>
      <point x="320" y="637" type="curve" smooth="yes"/>
      <point x="330" y="682"/>
      <point x="299" y="723"/>
    </contour>
  </outline>
</glyph>
<glyph name="bullet" format="2">
  <advance width="330"/>
  <unicode hex="2022"/>
  <outline>
    <contour>
      <point x="298" y="368" type="curve" smooth="yes"/>
      <point x="298" y="441"/>
      <point x="238" y="500"/>
      <point x="164" y="500" type="curve" smooth="yes"/>
      <point x="90" y="500"/>
      <point x="30" y="441"/>
      <point x="30" y="368" type="curve" smooth="yes"/>
      <point x="30" y="294"/>
      <point x="90" y="236"/>
      <point x="164" y="236" type="curve" smooth="yes"/>
      <point x="238" y="236"/>
      <point x="298" y="294"/>
    </contour>
  </outline>
</glyph>
<glyph name="guilsinglleft" format="2">
  <advance width="350"/>
  <unicode hex="2039"/>
  <outline>
    <contour>
      <point x="324" y="470" type="line"/>
      <point x="243" y="517" type="line"/>
      <point x="20" y="277" type="line"/>
      <point x="247" y="43" type="line"/>
      <point x="327" y="97" type="line"/>
      <point x="179" y="285" type="line"/>
    </contour>
  </outline>
</glyph>
<glyph name="fraction" format="2">
  <advance width="500"/>
  <unicode hex="2044"/>
  <outline>
    <contour>
      <point x="272" y="765" type="line"/>
      <point x="-282" y="5" type="line"/>
      <point x="-283" y="4"/>
      <point x="-229" y="-4"/>
      <point x="-229" y="-4" type="curve"/>
      <point x="321" y="765" type="line"/>
    </contour>
  </outline>
</glyph>
<glyph name="rupeeIndian" format="2">
  <advance width="500"/>
  <unicode hex="20B9"/>
  <outline>
    <contour>
      <point x="49" y="727" type="line"/>
      <point x="8" y="645" type="line"/>
      <point x="196" y="648" type="line"/>
      <point x="254" y="626" type="line"/>
      <point x="282" y="592" type="line"/>
      <point x="291" y="558" type="line"/>
      <point x="301" y="524" type="line"/>
      <point x="287" y="476" type="line"/>
      <point x="270" y="454" type="line"/>
      <point x="68" y="454" type="line"/>
      <point x="27" y="375" type="line"/>
      <point x="233" y="375" type="line"/>
      <point x="215" y="340" type="line"/>
      <point x="170" y="265" type="line"/>
      <point x="161" y="241" type="line"/>
      <point x="171" y="223" type="line"/>
      <point x="199" y="176" type="line"/>
      <point x="239" y="119" type="line"/>
      <point x="278" y="71" type="line"/>
      <point x="331" y="21" type="line"/>
      <point x="377" y="-6" type="line"/>
      <point x="441" y="26" type="line"/>
      <point x="366" y="101" type="line"/>
      <point x="320" y="148" type="line"/>
      <point x="280" y="210" type="line"/>
      <point x="260" y="240" type="line"/>
      <point x="271" y="268" type="line"/>
      <point x="304" y="333" type="line"/>
      <point x="336" y="375" type="line"/>
      <point x="445" y="372" type="line"/>
      <point x="466" y="454" type="line"/>
      <point x="362" y="454" type="line"/>
      <point x="395" y="508" type="line"/>
      <point x="390" y="562" type="line"/>
      <point x="381" y="610" type="line"/>
      <point x="333" y="648" type="line"/>
      <point x="431" y="645" type="line"/>
      <point x="463" y="727" type="line"/>
      <point x="304" y="727" type="line"/>
      <point x="145" y="727" type="line"/>
    </contour>
  </outline>
</glyph>
